<?xml version="1.0" encoding="UTF-8" standalone="no"?><svg xmlns="http://www.w3.org/2000/svg" xmlns:xlink="http://www.w3.org/1999/xlink" contentScriptType="application/ecmascript" contentStyleType="text/css" height="572px" preserveAspectRatio="none" style="width:601px;height:572px;" version="1.1" viewBox="0 0 601 572" width="601px" zoomAndPan="magnify"><defs/><g><!--MD5=[0050c6625e3b42e2857ba4d8ed699679]
entity operator--><polygon fill="#08427B" points="7,7,7,7.2102,17.1579,6.5857,27.3158,7.1933,37.4737,7.3997,47.6316,6.2866,57.7895,6.9223,67.9474,6.5735,78.1053,6.6165,88.2632,6.9318,98.4211,6.3086,108.5789,7.5536,118.7368,6.3697,128.8947,6.8022,139.0526,7.4319,149.2105,6.9142,159.3684,7.0682,169.5263,6.9681,179.6842,7.1785,189.8421,7.2391,200,7,200.5857,7,200.6711,17.3281,200.6793,27.6563,200.2546,37.9844,200.4636,48.3125,200.7022,58.6406,199.2788,68.9688,200.6785,79.2969,199.7035,89.625,200,99.9531,200,100.4869,189.8421,99.4581,179.6842,99.8846,169.5263,100.6947,159.3684,99.9044,149.2105,100.0584,139.0526,100.2918,128.8947,100.3694,118.7368,99.9492,108.5789,100.2403,98.4211,99.3807,88.2632,100.2375,78.1053,100.5013,67.9474,100.3977,57.7895,100.5661,47.6316,99.47,37.4737,99.3009,27.3158,99.3317,17.1579,99.8942,7,99.9531,6.8035,99.9531,7.6814,89.625,6.8253,79.2969,6.6569,68.9688,7.2283,58.6406,6.3332,48.3125,6.4809,37.9844,7.649,27.6563,7.4357,17.3281,7,7" style="stroke:#073B6F;stroke-width:1.5;"/><text fill="#FFFFFF" font-family="sans-serif" font-size="16" font-weight="bold" lengthAdjust="spacing" textLength="67" x="70" y="33.6094">Operator</text><text fill="#FFFFFF" font-family="sans-serif" font-size="14" lengthAdjust="spacing" textLength="0" x="105.5" y="51.6582"/><text fill="#FFFFFF" font-family="sans-serif" font-size="14" lengthAdjust="spacing" textLength="165" x="21" y="69.2676">desktop OS, web browser,</text><text fill="#FFFFFF" font-family="sans-serif" font-size="14" lengthAdjust="spacing" textLength="33" x="87" y="86.877">Excel</text><!--MD5=[55f2968de154b8cc740615bf6e5af92f]
entity owner--><polygon fill="#08427B" points="235,7,235,7.2102,245.1579,6.5857,255.3158,7.1933,265.4737,7.3997,275.6316,6.2866,285.7895,6.9223,295.9474,6.5735,306.1053,6.6165,316.2632,6.9318,326.4211,6.3086,336.5789,7.5536,346.7368,6.3697,356.8947,6.8022,367.0526,7.4319,377.2105,6.9142,387.3684,7.0682,397.5263,6.9681,407.6842,7.1785,417.8421,7.2391,428,7,428.5857,7,428.6711,17.3281,428.6793,27.6563,428.2546,37.9844,428.4636,48.3125,428.7022,58.6406,427.2788,68.9688,428.6785,79.2969,427.7035,89.625,428,99.9531,428,100.4869,417.8421,99.4581,407.6842,99.8846,397.5263,100.6947,387.3684,99.9044,377.2105,100.0584,367.0526,100.2918,356.8947,100.3694,346.7368,99.9492,336.5789,100.2403,326.4211,99.3807,316.2632,100.2375,306.1053,100.5013,295.9474,100.3977,285.7895,100.5661,275.6316,99.47,265.4737,99.3009,255.3158,99.3317,245.1579,99.8942,235,99.9531,234.8035,99.9531,235.6814,89.625,234.8253,79.2969,234.6569,68.9688,235.2283,58.6406,234.3332,48.3125,234.4809,37.9844,235.649,27.6563,235.4357,17.3281,235,7" style="stroke:#073B6F;stroke-width:1.5;"/><text fill="#FFFFFF" font-family="sans-serif" font-size="16" font-weight="bold" lengthAdjust="spacing" textLength="126" x="268.5" y="33.6094">Business Owner</text><text fill="#FFFFFF" font-family="sans-serif" font-size="14" lengthAdjust="spacing" textLength="0" x="333.5" y="51.6582"/><text fill="#FFFFFF" font-family="sans-serif" font-size="14" lengthAdjust="spacing" textLength="165" x="249" y="69.2676">desktop OS, web browser,</text><text fill="#FFFFFF" font-family="sans-serif" font-size="14" lengthAdjust="spacing" textLength="33" x="315" y="86.877">Excel</text><!--MD5=[79a439086b036a57b90a01d7b2f8bbd1]
entity admin--><polygon fill="#686868" points="463.5,33.5,463.5,33.7102,473.6538,33.0857,483.8077,33.6933,493.9615,33.8997,504.1154,32.7866,514.2692,33.4223,524.4231,33.0735,534.5769,33.1165,544.7308,33.4318,554.8846,32.8086,565.0385,34.0536,575.1923,32.8697,585.3462,33.3022,595.5,33.5,595.644,33.5,595.4714,41.525,595.5227,49.55,595.4894,57.575,595.5595,65.6,595.5,73.625,595.5,73.8641,585.3462,74.2107,575.1923,74.2961,565.0385,74.3043,554.8846,73.8796,544.7308,74.0886,534.5769,74.3272,524.4231,72.9038,514.2692,74.3035,504.1154,73.3285,493.9615,74.1588,483.8077,73.13,473.6538,73.5565,463.5,73.625,463.7472,73.625,463.4838,65.6,463.5351,57.575,463.6129,49.55,463.6387,41.525,463.5,33.5" style="stroke:#8A8A8A;stroke-width:1.5;"/><text fill="#FFFFFF" font-family="sans-serif" font-size="16" font-weight="bold" lengthAdjust="spacing" textLength="112" x="473.5" y="60.1094">Remote Admin</text><!--MD5=[35dc5981f426b321e66b521db4fdbff3]
entity tools--><polygon fill="#85BBF0" points="240,177,240,177.2102,249.8571,176.5857,259.7143,177.1933,269.5714,177.3997,279.4286,176.2866,289.2857,176.9223,299.1429,176.5735,309,176.6165,318.8571,176.9318,328.7143,176.3086,338.5714,177.5536,348.4286,176.3697,358.2857,176.8022,368.1429,177.4319,378,176.9142,387.8571,177.0682,397.7143,176.9681,407.5714,177.1785,417.4286,177.2391,427.2857,177.5857,437.1429,177.6711,447,177,447.6793,177,447.2546,186.4896,447.4636,195.9792,447.7022,205.4688,446.2788,214.9583,447.6785,224.4479,446.7035,233.9375,447.5338,243.4271,446.505,252.9167,447,262.4063,447,262.3378,437.1429,263.1479,427.2857,262.3575,417.4286,262.5116,407.5714,262.7449,397.7143,262.8225,387.8571,262.4023,378,262.6935,368.1429,261.8338,358.2857,262.6906,348.4286,262.9544,338.5714,262.8508,328.7143,263.0193,318.8571,261.9232,309,261.7541,299.1429,261.7848,289.2857,262.3474,279.4286,262.2097,269.5714,263.0877,259.7143,262.2316,249.8571,262.0632,240,262.4063,240.2283,262.4063,239.3332,252.9167,239.4809,243.4271,240.649,233.9375,240.4357,224.4479,240.7345,214.9583,239.6782,205.4688,240.3192,195.9792,240.5904,186.4896,240,177" style="stroke:#78A8D8;stroke-width:1.5;"/><text fill="#000000" font-family="sans-serif" font-size="16" font-weight="bold" lengthAdjust="spacing" textLength="159" x="264" y="203.6094">Remote Admin Tools</text><text fill="#000000" font-family="sans-serif" font-size="12" font-style="italic" lengthAdjust="spacing" textLength="184" x="250" y="219.582">[shared folder accessible over the</text><text fill="#000000" font-family="sans-serif" font-size="12" font-style="italic" lengthAdjust="spacing" textLength="173" x="255.5" y="234.6758">web, scripts, data curation tools,</text><text fill="#000000" font-family="sans-serif" font-size="12" font-style="italic" lengthAdjust="spacing" textLength="120" x="283.5" y="249.7695">admin web page, etc.]</text><!--MD5=[7ce3a4e336439a2e943227980734751e]
entity raw_db--><path d="M333.5,333 L333.5,333 L333.5316,333.0879 L336.6565,331.6704 L339.9665,330.7683 L343.2163,329.6984 L346.2678,328.0766 L349.5938,327.2188 L349.5901,327.1844 L352.8727,326.6748 L356.1739,326.3383 L359.4882,326.1222 L362.7577,325.4914 L366.0898,325.4414 L366.1053,325.687 L369.8543,324.9236 L373.6484,324.8771 L377.448,324.9182 L381.2156,324.4502 L385,324.25 L385.0012,324.2803 L388.7815,324.0913 L392.5671,324.0402 L396.3502,323.9226 L400.1381,323.932 L403.9102,323.5273 L403.9169,323.8255 L407.2162,323.7549 L410.5111,323.492 L413.8124,323.5107 L417.1141,323.5425 L420.4063,323.1563 L420.4031,322.8357 L423.6279,323.4265 L426.8425,322.962 L430.0648,323.2997 L433.2791,322.8113 L436.5,323 L436.5,323 L436.4997,322.9696 L439.7219,323.3608 L442.9373,323.0408 L446.1567,323.1405 L449.3765,323.2755 L452.5938,323.1563 L452.5979,323.3412 L455.8929,323.2287 L459.1951,323.4323 L462.4857,323.1246 L465.7935,323.5795 L469.0898,323.5273 L469.0991,323.7708 L472.8794,323.8693 L476.6643,324.0887 L480.4277,323.7464 L484.2069,323.8158 L488,324.25 L487.9826,323.9744 L491.7804,324.4622 L495.5586,324.6394 L499.3651,325.2671 L503.1232,325.1256 L506.9102,325.4414 L506.8938,325.2898 L510.2202,325.8977 L513.4768,325.8577 L516.7831,326.2784 L520.1379,327.15 L523.4063,327.2188 L523.4717,327.401 L526.7354,328.6822 L529.7954,329.3967 L533.1105,330.821 L536.37,332.0907 L539.5,333 L538.2403,333 L539.2444,342.9297 L539.836,352.8594 L541.238,362.7891 L539.4888,372.7188 L540.7335,382.6484 L538.0232,392.5781 L537.694,402.5078 L539.5,412.4375 L539.5,412.4375 L539.5757,412.6481 L536.1735,413.2939 L533.139,414.9629 L529.8748,415.9927 L526.5847,416.9504 L523.4063,418.2188 L523.3894,418.0624 L520.1289,418.7769 L516.7936,418.7974 L513.5368,419.5467 L510.1831,419.3964 L506.9102,419.9961 L506.9274,420.27 L503.1417,420.4492 L499.3529,420.5813 L495.5654,420.7319 L491.8023,421.2715 L488,421.1875 L488.0104,421.46 L484.2208,421.4072 L480.4405,421.5957 L476.6517,421.5632 L472.884,422.0838 L469.0898,421.9102 L469.0914,421.979 L465.7923,422.0611 L462.4853,421.7883 L459.1881,421.9528 L455.8983,422.4429 L452.5938,422.2813 L452.5956,422.4722 L449.3748,422.2934 L446.1549,422.2006 L442.9366,422.2777 L439.7158,422.1013 L436.5,422.4375 L436.5,422.4375 L436.5018,422.6218 L433.2844,422.7349 L430.0648,422.6089 L426.8467,422.6526 L423.6244,422.2517 L420.4063,422.2813 L420.4071,422.32 L417.1032,422.0348 L413.8107,422.259 L410.5111,422.1682 L407.2149,422.2298 L403.9102,421.9102 L403.9063,421.8082 L400.1258,421.7059 L396.3536,421.818 L392.5737,421.7285 L388.7733,421.1044 L385,421.1875 L384.9946,421.1015 L381.2221,421.0154 L377.4189,420.44 L373.6638,420.6294 L369.8791,420.3488 L366.0898,419.9961 L366.085,419.9516 L362.7974,419.7035 L359.5261,419.6071 L356.1773,418.7914 L352.908,418.7134 L349.5938,418.2188 L349.6367,418.3382 L346.3924,417.1109 L343.1774,415.9652 L339.9546,414.7975 L336.625,413.3327 L333.5,412.4375 L332.4312,412.4375 L332.2692,402.5078 L333.6702,392.5781 L333.735,382.6484 L333.9313,372.7188 L332.7241,362.7891 L333.32,352.8594 L333.1794,342.9297 L333.5,333 " fill="#85BBF0" style="stroke:#78A8D8;stroke-width:1.5;"/><path d="M333.5,333 L333.5,333 L333.5316,333.0879 L336.6565,333.9829 L339.9665,335.3933 L343.2163,336.6359 L346.2678,337.3266 L349.5938,338.7813 L349.5901,338.7469 L352.8727,338.9483 L356.1739,339.3227 L359.4882,339.8175 L362.7577,339.8976 L366.0898,340.5586 L366.1053,340.8042 L369.8543,340.5173 L373.6484,340.9474 L377.448,341.465 L381.2156,341.4737 L385,341.75 L385.0012,341.7803 L388.7815,341.8803 L392.5671,342.1183 L396.3502,342.2898 L400.1381,342.5882 L403.9102,342.4727 L403.9169,342.7708 L407.2162,342.8487 L410.5111,342.7342 L413.8124,342.9013 L417.1141,343.0816 L420.4063,342.8438 L420.4031,342.5232 L423.6279,343.1765 L426.8425,342.7745 L430.0648,343.1747 L433.2791,342.7488 L436.5,343 L436.5,343 L436.4997,342.9696 L439.7219,343.2983 L442.9373,342.9158 L446.1567,342.953 L449.3765,343.0255 L452.5938,342.8438 L452.5979,343.0287 L455.8929,342.7678 L459.1951,342.8229 L462.4857,342.3668 L465.7935,342.6732 L469.0898,342.4727 L469.0991,342.7161 L472.8794,342.5256 L476.6643,342.4559 L480.4277,341.8245 L484.2069,341.6049 L488,341.75 L487.9826,341.4744 L491.7804,341.4856 L495.5586,341.1863 L499.3651,341.3374 L503.1232,340.7194 L506.9102,340.5586 L506.8938,340.407 L510.2202,340.304 L513.4768,339.553 L516.7831,339.2628 L520.1379,339.4235 L523.4063,338.7813 L523.4717,338.9635 L526.7354,337.9322 L529.7954,336.3342 L533.1105,335.446 L536.37,334.4032 L539.5,333 " fill="none" style="stroke:#78A8D8;stroke-width:1.5;"/><text fill="#000000" font-family="sans-serif" font-size="16" font-weight="bold" lengthAdjust="spacing" textLength="158" x="355.5" y="363.6094">Data Storage/Shared</text><text fill="#000000" font-family="sans-serif" font-size="16" font-weight="bold" lengthAdjust="spacing" textLength="44" x="414.5" y="383.7344">folder</text><text fill="#000000" font-family="sans-serif" font-size="12" font-style="italic" lengthAdjust="spacing" textLength="183" x="343.5" y="399.707">[client base, visits, season tickets,</text><text fill="#000000" font-family="sans-serif" font-size="12" font-style="italic" lengthAdjust="spacing" textLength="43" x="415" y="414.8008">DR etc.]</text><!--MD5=[201123e383ef23701dff16f90e00d41d]
link admin to tools--><path d="M507.25,73.65 L507.3111,73.7206 L500.9762,78.839 L494.9997,84.3714 L488.9065,89.769 L482.4294,94.7233 L476.4838,100.2912 L476.4156,100.2132 L469.3127,105.8049 L462.5537,111.7898 L456.0337,118.0481 L448.69,123.3642 L442.5,130 L442.9904,130.5518 L434.9618,135.5747 L428.3648,142.2086 L421.9426,149.0391 L414.504,154.7259 L407.6604,161.0823 L400.5917,167.1853 L393.64,173.42 " fill="none" style="stroke:#666666;stroke-width:1.0;"/><polygon fill="#666666" points="389.71,176.94,389.7314,177.0067,391.5433,176.2066,393.4808,175.7975,395.3774,175.261,397.1395,174.3058,399.0877,173.9303,399.0863,173.9045,397.9501,173.7244,396.8214,173.6746,395.6978,173.7156,394.5565,173.4441,393.4399,173.6102,393.6242,173.6206,393.2942,172.4688,393.5022,171.3474,393.7758,170.2297,393.6675,169.0904,393.7601,167.9624,393.7808,167.9718,392.9403,169.7536,392.1943,171.5779,391.4027,173.3817,390.698,175.2248,389.71,176.94" style="stroke:#666666;stroke-width:1.0;"/><text fill="#666666" font-family="sans-serif" font-size="12" lengthAdjust="spacing" textLength="53" x="443.5" y="143.457">manages</text><!--MD5=[d479c58b1261d68ace374bcd4224bd73]
link operator to tools--><path d="M170.35,100.18 L170.5081,100.4114 L178.3406,105.3978 L187.1,111.7405 L195.5576,117.6415 L203.0225,122.0901 L211.8031,128.4637 L219.843,133.7536 L228.1776,139.4748 L236.7172,145.4957 L244.5506,150.4835 L253.7896,157.5279 L261.2012,161.8985 L269.8289,168.0484 L278.28,173.94 " fill="none" style="stroke:#666666;stroke-width:1.0;"/><polygon fill="#666666" points="282.75,176.99,282.8097,177.0267,281.5996,175.2403,280.7393,173.6691,279.7651,172.0279,278.4164,170.1561,277.5862,168.6034,277.5607,168.5987,277.6542,169.6894,277.8761,170.8042,278.1873,171.9356,278.1909,173.0096,278.6252,174.164,278.6591,174.3454,277.4745,174.1653,276.3889,174.5148,275.3153,174.929,274.1715,174.9672,273.0646,175.2031,273.0687,175.2254,274.9998,175.55,276.9496,175.9764,278.8903,176.3536,280.8483,176.8246,282.75,176.99" style="stroke:#666666;stroke-width:1.0;"/><text fill="#666666" font-family="sans-serif" font-size="12" lengthAdjust="spacing" textLength="28" x="239.5" y="143.457">uses</text><!--MD5=[b332d52f16de0d3e578650ae607d4f6e]
link owner to tools--><path d="M334.84,100.18 L335.1195,100.2004 L335.039,110.394 L336.597,120.7074 L337.6215,130.9817 L336.8913,141.1278 L338.4867,151.4439 L338.7729,161.6642 L340.09,171.96 " fill="none" style="stroke:#666666;stroke-width:1.0;"/><polygon fill="#666666" points="340.46,176.99,340.526,177.0136,340.994,175.089,341.8488,173.3028,342.5776,171.4715,342.8924,169.492,343.7803,167.7177,343.7607,167.7008,342.9342,168.4821,342.2067,169.3487,341.548,170.2745,340.6523,170.9962,340.0885,172.0038,340.209,172.1436,339.0942,171.1063,338.3311,170.4772,337.6108,169.8978,336.641,169.0287,335.8024,168.312,335.8225,168.3228,336.7246,170.0426,337.7179,171.8114,338.6672,173.5565,339.7005,175.3467,340.46,176.99" style="stroke:#666666;stroke-width:1.0;"/><text fill="#666666" font-family="sans-serif" font-size="12" lengthAdjust="spacing" textLength="28" x="338.5" y="143.457">uses</text><!--MD5=[0d38629c5a2a51ab86bac6042fedd185]
link admin to raw_db--><path d="M523.82,73.85 L524.0889,73.9289 L520.4267,83.4545 L518.3409,93.4425 L515.7418,103.28 L511.4545,112.6222 L509.4046,122.6208 L506.0951,132.2499 L503.2869,142.0261 L500.8272,151.9044 L497.1667,161.4305 L495.8963,171.6578 L491.5184,180.9734 L489.2086,190.8958 L487.151,200.8921 L483.6255,210.4578 L480.9593,220.2756 L477.9679,229.998 L475.374,239.837 L472.5884,249.6198 L470.1685,259.5098 L467.4146,269.3019 L464.5619,279.0649 L461.1554,288.6656 L458.5595,298.504 L456.0016,308.3536 L452.24,317.85 " fill="none" style="stroke:#666666;stroke-width:1.0;"/><polygon fill="#666666" points="450.74,322.95,450.7935,322.9952,451.9065,321.3568,453.3332,319.9836,454.6577,318.524,455.6464,316.7804,457.1,315.43,457.0875,315.4073,456.0396,315.8493,455.0545,316.4059,454.1131,317.0421,453.0212,317.4039,452.14,318.15,452.3018,318.2387,451.4118,317.057,450.9942,316.1343,450.6342,315.2432,449.9389,314.1683,449.42,313.19,449.4425,313.193,449.6734,315.1406,450.007,317.102,450.291,319.0567,450.6695,321.0242,450.74,322.95" style="stroke:#666666;stroke-width:1.0;"/><text fill="#666666" font-family="sans-serif" font-size="12" lengthAdjust="spacing" textLength="53" x="493.5" y="224.457">manages</text><!--MD5=[88f73683876ab635ecb74282ed6e31dd]
link tools to raw_db--><path d="M371.91,266.62 L372.1486,266.7669 L376.7629,274.9753 L382.7761,284.0451 L388.3338,292.8344 L392.3934,300.7013 L398.4384,309.7907 L403.85,318.49 " fill="none" style="stroke:#666666;stroke-width:1.0;"/><polygon fill="#666666" points="406.48,322.76,406.5494,322.7694,406.0782,320.7896,406.0139,318.8649,405.8171,316.9223,405.1845,314.9205,405.1552,313.0007,405.1299,312.9947,404.7564,314.0689,404.5099,315.1732,404.3518,316.2984,403.8893,317.3516,403.8531,318.5056,403.8956,318.6852,402.7038,318.0408,401.636,317.9207,400.5833,317.8645,399.4426,317.4362,398.3482,317.2036,398.361,317.2224,399.9685,318.3061,401.6345,319.4753,403.2722,320.6033,404.9638,321.8099,406.48,322.76" style="stroke:#666666;stroke-width:1.0;"/><polygon fill="#666666" points="369.16,262.16,369.2294,262.1694,369.2881,264.0933,369.7538,266.0724,370.0869,268.0335,369.9842,269.9355,370.4848,271.9193,370.4596,271.9134,370.6069,270.7856,370.8813,269.6879,371.2439,268.6111,371.3022,267.4623,371.7869,266.4144,371.8293,266.594,372.8395,266.4703,373.9737,266.871,375.123,267.3357,376.1843,267.4281,377.2918,267.7164,377.3047,267.7352,375.6595,266.5963,374.0727,265.543,372.4577,264.4484,370.8965,263.4325,369.16,262.16" style="stroke:#666666;stroke-width:1.0;"/><polygon fill="#DDDDDD" points="410.5,436.4375,410.5,436.6477,420.75,436.0232,431,436.6308,441.25,436.8372,451.5,435.7241,461.75,436.3598,472,436.011,482.25,436.054,492.5,436.3693,502.75,435.7461,513,436.9911,523.25,435.8072,533.5,436.2397,543.75,436.8694,554,436.3517,564.25,436.5057,574.5,436.4375,574.4959,436.4277,575.2299,436.7854,575.9447,437.0969,576.696,437.4965,577.414,437.8157,578.0355,437.902,578.2447,437.9886,578.4068,438.6416,578.7641,439.3753,579.1305,440.1129,578.985,440.6384,579.5,441.4375,580.1785,441.4375,579.2035,451.4063,580.0338,461.375,579.005,471.3438,579.4315,481.3125,580.2416,491.2813,579.4513,501.25,579.6053,511.2188,579.8386,521.1875,579.9162,531.1563,579.4961,541.125,579.5,551.0938,579.5885,551.1304,579.0308,551.7278,579.0018,552.5442,578.7901,553.285,578.4653,553.9789,578.0355,554.6293,578.1137,554.8181,577.2668,554.7734,576.5381,555.0142,575.8349,555.3166,575.1996,555.7827,574.5,556.0938,574.5,555.8972,564.25,556.7752,554,555.9191,543.75,555.7507,533.5,556.322,523.25,555.4269,513,555.5746,502.75,556.7427,492.5,556.5294,482.25,556.8282,472,555.772,461.75,556.4129,451.5,556.6842,441.25,555.6213,431,555.9979,420.75,556.2197,410.5,556.0938,410.5831,556.2945,409.7924,555.7996,409.1448,555.6504,408.308,555.0445,407.5852,554.7136,406.9645,554.6293,407.1196,554.6935,406.4508,553.8307,406.5354,553.28,406.1494,552.5343,405.7104,551.7667,405.5,551.0938,405.1462,551.0938,405.9588,541.125,405.2007,531.1563,406.0919,521.1875,404.9473,511.2188,406.1174,501.25,405.9843,491.2813,405.745,481.3125,405.5472,471.3438,406.2266,461.375,406.1136,451.4063,405.5,441.4375,405.5521,441.4591,405.8755,440.7646,406.0457,440.0067,406.5993,439.4076,406.7193,438.6288,406.9645,437.902,406.9865,437.9551,407.594,437.4217,408.327,437.1914,409.1535,437.1867,409.8477,436.8627,410.5,436.4375" style="stroke:#000000;stroke-width:1.0;"/><text fill="#000000" font-family="sans-serif" font-size="14" font-weight="bold" lengthAdjust="spacing" textLength="0" x="467.5" y="457.9707"/><text fill="#000000" font-family="sans-serif" font-size="14" font-weight="bold" lengthAdjust="spacing" textLength="33" x="471.5" y="457.9707">Type</text><polygon fill="#08427B" points="411.5,461.0469,411.5,461.2571,420.8333,460.6326,430.1667,461.2402,439.5,461.4466,448.8333,460.3335,458.1667,460.9692,467.5,461.0469,467.3578,461.0469,467.3722,464.5688,467.4773,468.0906,467.2695,471.6125,467.6845,475.1344,467.5,478.6563,467.5,478.026,458.1667,478.4585,448.8333,479.0882,439.5,478.5705,430.1667,478.7245,420.8333,478.6243,411.5,478.6563,411.5595,478.6563,411.5797,475.1344,411.6952,471.6125,411.7237,468.0906,411.7264,464.5688,411.5,461.0469" style="stroke:none;stroke-width:1.0;"/><text fill="#000000" font-family="sans-serif" font-size="14" lengthAdjust="spacing" textLength="0" x="435.5" y="475.5801"/><text fill="#000000" font-family="sans-serif" font-size="14" lengthAdjust="spacing" textLength="44" x="471.5" y="475.5801">person</text><polygon fill="#686868" points="411.5,478.6563,411.5,478.8664,420.8333,478.2419,430.1667,478.8495,439.5,479.0559,448.8333,477.9429,458.1667,478.5785,467.5,478.6563,467.3578,478.6563,467.3722,482.1781,467.4773,485.7,467.2695,489.2219,467.6845,492.7438,467.5,496.2656,467.5,495.6353,458.1667,496.0679,448.8333,496.6976,439.5,496.1798,430.1667,496.3339,420.8333,496.2337,411.5,496.2656,411.5595,496.2656,411.5797,492.7438,411.6952,489.2219,411.7237,485.7,411.7264,482.1781,411.5,478.6563" style="stroke:none;stroke-width:1.0;"/><text fill="#000000" font-family="sans-serif" font-size="14" lengthAdjust="spacing" textLength="0" x="435.5" y="493.1895"/><text fill="#000000" font-family="sans-serif" font-size="14" lengthAdjust="spacing" textLength="98" x="471.5" y="493.1895">external person</text><polygon fill="#1168BD" points="411.5,496.2656,411.5,496.4758,420.8333,495.8513,430.1667,496.4589,439.5,496.6653,448.8333,495.5522,458.1667,496.1879,467.5,496.2656,467.3578,496.2656,467.3722,499.7875,467.4773,503.3094,467.2695,506.8313,467.6845,510.3531,467.5,513.875,467.5,513.2447,458.1667,513.6772,448.8333,514.3069,439.5,513.7892,430.1667,513.9432,420.8333,513.8431,411.5,513.875,411.5595,513.875,411.5797,510.3531,411.6952,506.8313,411.7237,503.3094,411.7264,499.7875,411.5,496.2656" style="stroke:none;stroke-width:1.0;"/><text fill="#000000" font-family="sans-serif" font-size="14" lengthAdjust="spacing" textLength="0" x="423.5" y="510.7988"/><text fill="#000000" font-family="sans-serif" font-size="14" lengthAdjust="spacing" textLength="44" x="471.5" y="510.7988">system</text><polygon fill="#999999" points="411.5,513.875,411.5,514.0852,420.8333,513.4607,430.1667,514.0683,439.5,514.2747,448.8333,513.1616,458.1667,513.7973,467.5,513.875,467.3578,513.875,467.3722,517.3969,467.4773,520.9188,467.2695,524.4406,467.6845,527.9625,467.5,531.4844,467.5,530.8541,458.1667,531.2866,448.8333,531.9163,439.5,531.3986,430.1667,531.5526,420.8333,531.4524,411.5,531.4844,411.5595,531.4844,411.5797,527.9625,411.6952,524.4406,411.7237,520.9188,411.7264,517.3969,411.5,513.875" style="stroke:none;stroke-width:1.0;"/><text fill="#000000" font-family="sans-serif" font-size="14" lengthAdjust="spacing" textLength="0" x="435.5" y="528.4082"/><text fill="#000000" font-family="sans-serif" font-size="14" lengthAdjust="spacing" textLength="98" x="471.5" y="528.4082">external system</text><polygon fill="#438DD5" points="411.5,531.4844,411.5,531.6946,420.8333,531.0701,430.1667,531.6777,439.5,531.8841,448.8333,530.771,458.1667,531.4067,467.5,531.4844,467.3578,531.4844,467.3722,535.0063,467.4773,538.5281,467.2695,542.05,467.6845,545.5719,467.5,549.0938,467.5,548.4635,458.1667,548.896,448.8333,549.5257,439.5,549.008,430.1667,549.162,420.8333,549.0618,411.5,549.0938,411.5595,549.0938,411.5797,545.5719,411.6952,542.05,411.7237,538.5281,411.7264,535.0063,411.5,531.4844" style="stroke:none;stroke-width:1.0;"/><text fill="#000000" font-family="sans-serif" font-size="14" lengthAdjust="spacing" textLength="0" x="423.5" y="546.0176"/><text fill="#000000" font-family="sans-serif" font-size="14" lengthAdjust="spacing" textLength="59" x="471.5" y="546.0176">container</text><path d="M411.5,443.4375 L411.5,443.7177 L421.625,442.8851 L431.75,443.6952 L441.875,443.9704 L452,442.4863 L462.125,443.3339 L472.25,442.8688 L482.375,442.9262 L492.5,443.3466 L502.625,442.5157 L512.75,444.1757 L522.875,442.5971 L533,443.1738 L543.125,444.0134 L553.25,443.3231 L563.375,443.5285 L573.5,443.4375 " fill="none" style="stroke:#000000;stroke-width:1.0;"/><path d="M411.5,461.0469 L411.5,461.3271 L421.625,460.4944 L431.75,461.3046 L441.875,461.5798 L452,460.0957 L462.125,460.9433 L472.25,460.4782 L482.375,460.5355 L492.5,460.956 L502.625,460.125 L512.75,461.7851 L522.875,460.2065 L533,460.7832 L543.125,461.6228 L553.25,460.9325 L563.375,461.1379 L573.5,461.0469 " fill="none" style="stroke:#000000;stroke-width:1.0;"/><path d="M411.5,478.6563 L411.5,478.9365 L421.625,478.1038 L431.75,478.914 L441.875,479.1892 L452,477.7051 L462.125,478.5526 L472.25,478.0876 L482.375,478.1449 L492.5,478.5654 L502.625,477.7344 L512.75,479.3944 L522.875,477.8159 L533,478.3926 L543.125,479.2322 L553.25,478.5419 L563.375,478.7472 L573.5,478.6563 " fill="none" style="stroke:#000000;stroke-width:1.0;"/><path d="M411.5,496.2656 L411.5,496.5459 L421.625,495.7132 L431.75,496.5233 L441.875,496.7985 L452,495.3144 L462.125,496.162 L472.25,495.697 L482.375,495.7543 L492.5,496.1747 L502.625,495.3438 L512.75,497.0038 L522.875,495.4253 L533,496.0019 L543.125,496.8416 L553.25,496.1513 L563.375,496.3566 L573.5,496.2656 " fill="none" style="stroke:#000000;stroke-width:1.0;"/><path d="M411.5,513.875 L411.5,514.1552 L421.625,513.3226 L431.75,514.1327 L441.875,514.4079 L452,512.9238 L462.125,513.7714 L472.25,513.3063 L482.375,513.3637 L492.5,513.7841 L502.625,512.9532 L512.75,514.6132 L522.875,513.0346 L533,513.6113 L543.125,514.4509 L553.25,513.7606 L563.375,513.966 L573.5,513.875 " fill="none" style="stroke:#000000;stroke-width:1.0;"/><path d="M411.5,531.4844 L411.5,531.7646 L421.625,530.9319 L431.75,531.7421 L441.875,532.0173 L452,530.5332 L462.125,531.3808 L472.25,530.9157 L482.375,530.973 L492.5,531.3935 L502.625,530.5625 L512.75,532.2226 L522.875,530.644 L533,531.2207 L543.125,532.0603 L553.25,531.37 L563.375,531.5754 L573.5,531.4844 " fill="none" style="stroke:#000000;stroke-width:1.0;"/><path d="M411.5,549.0938 L411.5,549.374 L421.625,548.5413 L431.75,549.3515 L441.875,549.6267 L452,548.1426 L462.125,548.9901 L472.25,548.5251 L482.375,548.5824 L492.5,549.0029 L502.625,548.1719 L512.75,549.8319 L522.875,548.2534 L533,548.8301 L543.125,549.6697 L553.25,548.9794 L563.375,549.1847 L573.5,549.0938 " fill="none" style="stroke:#000000;stroke-width:1.0;"/><path d="M411.5,443.4375 L411.7802,443.4375 L410.9476,453.0426 L411.7577,462.6477 L412.0329,472.2528 L410.5488,481.858 L411.3964,491.4631 L410.9313,501.0682 L410.9887,510.6733 L411.4091,520.2784 L410.5782,529.8835 L412.2382,539.4886 L411.5,549.0938 " fill="none" style="stroke:#000000;stroke-width:1.0;"/><path d="M467.5,443.4375 L467.7802,443.4375 L466.9476,453.0426 L467.7577,462.6477 L468.0329,472.2528 L466.5488,481.858 L467.3964,491.4631 L466.9313,501.0682 L466.9887,510.6733 L467.4091,520.2784 L466.5782,529.8835 L468.2382,539.4886 L467.5,549.0938 " fill="none" style="stroke:#000000;stroke-width:1.0;"/><path d="M573.5,443.4375 L573.7802,443.4375 L572.9476,453.0426 L573.7577,462.6477 L574.0329,472.2528 L572.5488,481.858 L573.3964,491.4631 L572.9313,501.0682 L572.9887,510.6733 L573.4091,520.2784 L572.5782,529.8835 L574.2382,539.4886 L573.5,549.0938 " fill="none" style="stroke:#000000;stroke-width:1.0;"/><!--MD5=[8441822493ca53a8682aa68c5074b842]
@startuml components
skinparam handwritten true
!includeurl https://raw.githubusercontent.com/RicardoNiepel/C4-PlantUML/release/1-0/C4.puml
!includeurl https://raw.githubusercontent.com/RicardoNiepel/C4-PlantUML/release/1-0/C4_Component.puml
!includeurl https://raw.githubusercontent.com/RicardoNiepel/C4-PlantUML/release/1-0/C4_Container.puml

LAYOUT_TOP_DOWN
LAYOUT_WITH_LEGEND()

Person(operator, "Operator", "desktop OS, web browser, Excel")
Person(owner, "Business Owner", "desktop OS, web browser, Excel")
Person_Ext(admin, "Remote Admin")
Component(tools, "Remote Admin Tools", "shared folder accessible over the web, scripts, data curation tools, admin web page, etc.")
ComponentDb(raw_db, "Data Storage/Shared folder", "client base, visits, season tickets, DR etc.")

admin - -> tools: manages
operator - -> tools: uses
owner - -> tools: uses
admin - -> raw_db: manages
tools <- -> raw_db

@enduml

@startuml components
skinparam handwritten true





skinparam defaultTextAlignment center

skinparam wrapWidth 200
skinparam maxMessageSize 150

skinparam rectangle {
    StereotypeFontSize 12
    shadowing false
}

skinparam database {
    StereotypeFontSize 12
    shadowing false
}

skinparam Arrow {
    Color #666666
    FontColor #666666
    FontSize 12
}

skinparam rectangle<<boundary>> {
    Shadowing false
    StereotypeFontSize 0
    FontColor #444444
    BorderColor #444444
    BorderStyle dashed
}






















skinparam defaultTextAlignment center

skinparam wrapWidth 200
skinparam maxMessageSize 150

skinparam rectangle {
    StereotypeFontSize 12
    shadowing false
}

skinparam database {
    StereotypeFontSize 12
    shadowing false
}

skinparam Arrow {
    Color #666666
    FontColor #666666
    FontSize 12
}

skinparam rectangle<<boundary>> {
    Shadowing false
    StereotypeFontSize 0
    FontColor #444444
    BorderColor #444444
    BorderStyle dashed
}






















skinparam rectangle<<person>> {
    StereotypeFontColor #FFFFFF
    FontColor #FFFFFF
    BackgroundColor #08427B
    BorderColor #073B6F
}

skinparam rectangle<<external_person>> {
    StereotypeFontColor #FFFFFF
    FontColor #FFFFFF
    BackgroundColor #686868
    BorderColor #8A8A8A
}

skinparam rectangle<<system>> {
    StereotypeFontColor #FFFFFF
    FontColor #FFFFFF
    BackgroundColor #1168BD
    BorderColor #3C7FC0
}

skinparam rectangle<<external_system>> {
    StereotypeFontColor #FFFFFF
    FontColor #FFFFFF
    BackgroundColor #999999
    BorderColor #8A8A8A
}

skinparam database<<system>> {
    StereotypeFontColor #FFFFFF
    FontColor #FFFFFF
    BackgroundColor #1168BD
    BorderColor #3C7FC0
}

skinparam database<<external_system>> {
    StereotypeFontColor #FFFFFF
    FontColor #FFFFFF
    BackgroundColor #999999
    BorderColor #8A8A8A
}
















skinparam rectangle<<container>> {
    StereotypeFontColor #FFFFFF
    FontColor #FFFFFF
    BackgroundColor #438DD5
    BorderColor #3C7FC0
}

skinparam database<<container>> {
    StereotypeFontColor #FFFFFF
    FontColor #FFFFFF
    BackgroundColor #438DD5
    BorderColor #3C7FC0
}












skinparam rectangle<<component>> {
    StereotypeFontColor #FFFFFF
    FontColor #000000
    BackgroundColor #85BBF0
    BorderColor #78A8D8
}

skinparam database<<component>> {
    StereotypeFontColor #FFFFFF
    FontColor #000000
    BackgroundColor #85BBF0
    BorderColor #78A8D8
}










skinparam defaultTextAlignment center

skinparam wrapWidth 200
skinparam maxMessageSize 150

skinparam rectangle {
    StereotypeFontSize 12
    shadowing false
}

skinparam database {
    StereotypeFontSize 12
    shadowing false
}

skinparam Arrow {
    Color #666666
    FontColor #666666
    FontSize 12
}

skinparam rectangle<<boundary>> {
    Shadowing false
    StereotypeFontSize 0
    FontColor #444444
    BorderColor #444444
    BorderStyle dashed
}






















skinparam rectangle<<person>> {
    StereotypeFontColor #FFFFFF
    FontColor #FFFFFF
    BackgroundColor #08427B
    BorderColor #073B6F
}

skinparam rectangle<<external_person>> {
    StereotypeFontColor #FFFFFF
    FontColor #FFFFFF
    BackgroundColor #686868
    BorderColor #8A8A8A
}

skinparam rectangle<<system>> {
    StereotypeFontColor #FFFFFF
    FontColor #FFFFFF
    BackgroundColor #1168BD
    BorderColor #3C7FC0
}

skinparam rectangle<<external_system>> {
    StereotypeFontColor #FFFFFF
    FontColor #FFFFFF
    BackgroundColor #999999
    BorderColor #8A8A8A
}

skinparam database<<system>> {
    StereotypeFontColor #FFFFFF
    FontColor #FFFFFF
    BackgroundColor #1168BD
    BorderColor #3C7FC0
}

skinparam database<<external_system>> {
    StereotypeFontColor #FFFFFF
    FontColor #FFFFFF
    BackgroundColor #999999
    BorderColor #8A8A8A
}
















skinparam rectangle<<container>> {
    StereotypeFontColor #FFFFFF
    FontColor #FFFFFF
    BackgroundColor #438DD5
    BorderColor #3C7FC0
}

skinparam database<<container>> {
    StereotypeFontColor #FFFFFF
    FontColor #FFFFFF
    BackgroundColor #438DD5
    BorderColor #3C7FC0
}








top to bottom direction
hide stereotype
legend right
|=              |= Type |
|<#08427B>      | person |
|<#686868>      | external person |
|<#1168BD>   | system |
|<#999999>      | external system |
|<#438DD5>   | container |
endlegend

rectangle "==Operator\n\n desktop OS, web browser, Excel" <<person>> as operator
rectangle "==Business Owner\n\n desktop OS, web browser, Excel" <<person>> as owner
rectangle "==Remote Admin" <<external_person>> as admin
rectangle "==Remote Admin Tools\n//<size:12>[shared folder accessible over the web, scripts, data curation tools, admin web page, etc.]</size>//" <<component>> as tools
database "==Data Storage/Shared folder\n//<size:12>[client base, visits, season tickets, DR etc.]</size>//" <<component>> as raw_db

admin - -> tools: manages
operator - -> tools: uses
owner - -> tools: uses
admin - -> raw_db: manages
tools <- -> raw_db

@enduml

PlantUML version 1.2021.00(Sun Jan 10 12:25:05 EET 2021)
(GPL source distribution)
Java Runtime: Java(TM) SE Runtime Environment
JVM: Java HotSpot(TM) Client VM
Default Encoding: Cp1251
Language: en
Country: US
--></g></svg>