<?xml version="1.0" encoding="UTF-8" standalone="no"?><svg xmlns="http://www.w3.org/2000/svg" xmlns:xlink="http://www.w3.org/1999/xlink" contentScriptType="application/ecmascript" contentStyleType="text/css" height="566px" preserveAspectRatio="none" style="width:309px;height:566px;" version="1.1" viewBox="0 0 309 566" width="309px" zoomAndPan="magnify"><defs/><g><!--MD5=[0050c6625e3b42e2857ba4d8ed699679]
entity operator--><polygon fill="#08427B" points="100.5,124,100.5,124.2102,110.1667,123.5857,119.8333,124.1933,129.5,124.3997,139.1667,123.2866,148.8333,123.9223,158.5,123.5735,168.1667,123.6165,177.8333,123.9318,187.5,124,187.2695,124,187.6845,132.025,187.2899,140.05,187.4341,148.075,187.644,156.1,187.5,164.125,187.5,164.0392,177.8333,164.1932,168.1667,164.0931,158.5,164.3035,148.8333,164.3641,139.1667,164.7107,129.5,164.7961,119.8333,164.8043,110.1667,164.3796,100.5,164.125,100.6545,164.125,100.7341,156.1,100.2596,148.075,100.7262,140.05,100.4012,132.025,100.5,124" style="stroke:#073B6F;stroke-width:1.5;"/><text fill="#FFFFFF" font-family="sans-serif" font-size="16" font-weight="bold" lengthAdjust="spacing" textLength="67" x="110.5" y="150.6094">Operator</text><!--MD5=[79a439086b036a57b90a01d7b2f8bbd1]
entity admin--><polygon fill="#686868" points="7,378,7,378.2102,17.1538,377.5857,27.3077,378.1933,37.4615,378.3997,47.6154,377.2866,57.7692,377.9223,67.9231,377.5735,78.0769,377.6165,88.2308,377.9318,98.3846,377.3086,108.5385,378.5536,118.6923,377.3697,128.8462,377.8022,139,378,139.144,378,138.9714,386.025,139.0227,394.05,138.9894,402.075,139.0595,410.1,139,418.125,139,418.3641,128.8462,418.7107,118.6923,418.7961,108.5385,418.8043,98.3846,418.3796,88.2308,418.5886,78.0769,418.8272,67.9231,417.4038,57.7692,418.8035,47.6154,417.8285,37.4615,418.6588,27.3077,417.63,17.1538,418.0565,7,418.125,7.2472,418.125,6.9838,410.1,7.0351,402.075,7.1129,394.05,7.1387,386.025,7,378" style="stroke:#8A8A8A;stroke-width:1.5;"/><text fill="#FFFFFF" font-family="sans-serif" font-size="16" font-weight="bold" lengthAdjust="spacing" textLength="112" x="17" y="404.6094">Remote Admin</text><!--MD5=[55f2968de154b8cc740615bf6e5af92f]
entity owner--><polygon fill="#08427B" points="181,378,181,378.2102,191,377.5857,201,378.1933,211,378.3997,221,377.2866,231,377.9223,241,377.5735,251,378,250.8722,378,250.9773,386.025,250.7695,394.05,251.1845,402.075,250.7899,410.1,251,418.125,251,417.9272,241,418.5569,231,418.0392,221,418.1932,211,418.0931,201,418.3035,191,418.3641,181,418.125,181.1952,418.125,181.2237,410.1,181.2264,402.075,181.0849,394.05,181.1545,386.025,181,378" style="stroke:#073B6F;stroke-width:1.5;"/><text fill="#FFFFFF" font-family="sans-serif" font-size="16" font-weight="bold" lengthAdjust="spacing" textLength="50" x="191" y="404.6094">Owner</text><!--MD5=[4a65e84059005d12693a083370a06717]
entity client--><polygon fill="#686868" points="112,7,112,7.2102,122.6667,6.5857,133.3333,7.1933,144,7.3997,154.6667,6.2866,165.3333,6.9223,176,7,175.8578,7,175.8722,15.025,175.9773,23.05,175.7695,31.075,176.1845,39.1,176,47.125,176,46.4947,165.3333,46.9272,154.6667,47.5569,144,47.0392,133.3333,47.1932,122.6667,47.0931,112,47.125,112.0595,47.125,112.0797,39.1,112.1952,31.075,112.2237,23.05,112.2264,15.025,112,7" style="stroke:#8A8A8A;stroke-width:1.5;"/><text fill="#FFFFFF" font-family="sans-serif" font-size="16" font-weight="bold" lengthAdjust="spacing" textLength="44" x="122" y="33.6094">Client</text><!--MD5=[838374ec2649c1c662fe2ac98e66bdde]
entity existing_syst--><polygon fill="#1168BD" points="56,241,56,241.2102,65.7778,240.5857,75.5556,241.1933,85.3333,241.3997,95.1111,240.2866,104.8889,240.9223,114.6667,240.5735,124.4444,240.6165,134.2222,240.9318,144,240.3086,153.7778,241.5536,163.5556,240.3697,173.3333,240.8022,183.1111,241.4319,192.8889,240.9142,202.6667,241.0682,212.4444,240.9681,222.2222,241.1785,232,241,232.2391,241,232.5857,251.0417,232.6711,261.0833,232.6793,271.125,232.2546,281.1667,232.4636,291.2083,232,301.25,232,301.9522,222.2222,300.5288,212.4444,301.9285,202.6667,300.9535,192.8889,301.7838,183.1111,300.755,173.3333,301.1815,163.5556,301.9916,153.7778,301.2013,144,301.3553,134.2222,301.5886,124.4444,301.6662,114.6667,301.2461,104.8889,301.5372,95.1111,300.6776,85.3333,301.5344,75.5556,301.7982,65.7778,301.6945,56,301.25,56.613,301.25,55.5169,291.2083,55.3478,281.1667,55.3786,271.125,55.9411,261.0833,55.8035,251.0417,56,241" style="stroke:#3C7FC0;stroke-width:1.5;"/><text fill="#FFFFFF" font-family="sans-serif" font-size="16" font-weight="bold" lengthAdjust="spacing" textLength="152" x="66" y="267.6094">Existing processing</text><text fill="#FFFFFF" font-family="sans-serif" font-size="16" font-weight="bold" lengthAdjust="spacing" textLength="55" x="116.5" y="287.7344">system</text><!--MD5=[e45c2a2784d366d45211861b37fbdda9]
link client to operator--><path d="M115.91,47.02 L115.9761,47.086 L113.0603,49.6103 L110.5318,52.5217 L107.8771,55.3071 L104.8078,57.6778 L102.3125,60.6225 L102.2833,60.6041 L100.0896,63.797 L98.0433,67.0827 L96.0994,70.4329 L93.8025,73.5608 L92,77 L92.2424,77.0421 L91.3084,79.3451 L91.0821,81.7711 L90.9422,84.212 L90.2998,86.5657 L89.9217,88.9653 L89.9509,88.9736 L90.561,91.2544 L91.3038,93.5729 L91.9827,95.8732 L92.7837,98.2084 L93.1863,100.43 L93.434,100.596 L94.8674,102.7334 L96.1408,104.7639 L97.6483,106.951 L99.1667,109.1454 L100.3377,111.1072 L100.1108,110.8808 L102.4676,113.2408 L104.0773,114.8552 L106.255,117.0365 L107.8478,118.634 L109.92,120.71 " fill="none" style="stroke:#666666;stroke-width:1.0;"/><polygon fill="#666666" points="113.85,123.99,113.9128,124.021,112.8548,122.1623,112.1652,120.4853,111.3556,118.7492,110.1515,116.8185,109.4935,115.157,109.4677,115.1547,109.4548,116.2708,109.5719,117.3988,109.7794,118.535,109.6754,119.6428,110.0077,120.7905,110.0245,120.9743,108.8619,120.6841,107.7484,120.9305,106.6408,121.2424,105.4984,121.1734,104.3743,121.3047,104.3805,121.3266,106.2665,121.8315,108.1808,122.4361,110.0814,122.9926,112.0081,123.6408,113.85,123.99" style="stroke:#666666;stroke-width:1.0;"/><text fill="#666666" font-family="sans-serif" font-size="12" lengthAdjust="spacing" textLength="57" x="93" y="90.457">phone call</text><!--MD5=[e45c2a2784d366d45211861b37fbdda9]
link client to operator--><path d="M149.39,47.39 L149.4812,47.4103 L149.8545,50.2397 L150.7623,53.1882 L151.4961,56.0979 L151.6575,58.88 L152.6112,61.8388 L152.5771,61.8334 L152.9018,64.8415 L153.3984,67.8767 L154.0146,70.9308 L154.2187,73.9199 L155,77 L155.2458,77.0111 L154.8158,79.1061 L155.1035,81.2335 L155.4787,83.3648 L155.3445,85.4732 L155.4783,87.5936 L155.5086,87.5954 L155.3327,89.7413 L155.2947,91.8955 L155.1901,94.0457 L155.2125,96.2036 L154.8213,98.3362 L155.1165,98.3782 L154.8226,100.4736 L154.3382,102.542 L154.1326,104.6499 L153.9401,106.7598 L153.3336,108.8108 L153.0196,108.7462 L153.2263,110.8294 L152.3991,112.6999 L152.3578,114.7321 L151.5072,116.5978 L151.32,118.6 " fill="none" style="stroke:#666666;stroke-width:1.0;"/><polygon fill="#666666" points="150.06,123.73,150.1153,123.773,151.1593,122.0897,152.5276,120.6584,153.7903,119.145,154.7057,117.3618,156.1019,115.9521,156.0885,115.9299,155.0599,116.4152,154.0987,117.0122,153.1845,117.687,152.1086,118.0939,151.2592,118.8759,151.4172,118.9713,150.4946,117.7988,150.0333,116.9048,149.6282,116.0448,148.8957,114.9871,148.3354,114.0333,148.3578,114.0373,148.6698,115.9708,149.0838,117.9224,149.4486,119.8653,149.9073,121.8248,150.06,123.73" style="stroke:#666666;stroke-width:1.0;"/><text fill="#666666" font-family="sans-serif" font-size="12" lengthAdjust="spacing" textLength="73" x="156" y="90.457">personal visit</text><!--MD5=[5463475c36240b9b0b9d130a862935c7]
link operator to existing_syst--><path d="M144,164.26 L144.2802,164.26 L143.4476,174.4543 L144.2577,184.6486 L144.5329,194.8429 L143.0488,205.0371 L143.8964,215.2314 L143.4313,225.4257 L144,235.62 " fill="none" style="stroke:#666666;stroke-width:1.0;"/><polygon fill="#666666" points="144,240.72,144.064,240.7485,144.6738,238.8639,145.6589,237.1462,146.5217,235.3741,146.9827,233.4234,148,231.72,147.9817,231.7017,147.0995,232.4195,146.3096,233.2296,145.5839,234.1039,144.637,234.757,144,235.72,144.1305,235.8505,143.0514,234.7714,142.3534,234.0734,141.7018,233.4218,140.7798,232.4998,140,231.72,140.0208,231.7292,140.7903,233.5157,141.6544,235.3442,142.4728,237.1524,143.3784,238.9993,144,240.72" style="stroke:#666666;stroke-width:1.0;"/><text fill="#666666" font-family="sans-serif" font-size="12" lengthAdjust="spacing" textLength="129" x="145" y="207.457">filled in Excel document</text><!--MD5=[3f9d2196f5cb9deb5303ccfafb71f672]
reverse link existing_syst to admin--><path d="M90.38,304.76 L90.4481,304.824 L87.9475,307.0802 L85.8461,309.7113 L83.6147,312.2204 L80.9559,314.3279 L78.8887,316.9913 L78.8596,316.9727 L76.9509,319.6914 L75.1893,322.5034 L73.5299,325.3803 L71.5183,328.0336 L70,331 L70.2339,331.0763 L68.9816,333.2201 L68.4123,335.5866 L67.9263,337.9802 L66.9555,340.2158 L66.2397,342.5345 L66.2699,342.5375 L65.9831,344.973 L65.8338,347.4221 L65.6181,349.8646 L65.529,352.3196 L65.0275,354.7338 L65.3253,354.7497 L65.4578,357.1578 L65.3981,359.5557 L65.6197,361.9687 L65.8544,364.3823 L65.6716,366.7736 L65.3552,366.7219 L66.3309,369.0336 L66.2649,371.1749 L66.9908,373.4457 L66.9012,375.5832 L67.48,377.83 " fill="none" style="stroke:#666666;stroke-width:1.0;"/><polygon fill="#666666" points="94.49,301.16,94.5109,301.2269,92.5685,301.6149,90.7485,302.3951,88.8887,303.0475,86.8978,303.2801,85.0883,304.0939,85.0866,304.0681,86.2081,304.0252,87.338,304.1126,88.4738,304.2907,89.5894,304.1565,90.7333,304.4596,90.9175,304.4715,90.4505,305.575,90.5213,306.7133,90.6576,307.8559,90.4122,308.9738,90.3676,310.1046,90.3883,310.1141,91.1824,308.3112,92.0706,306.5517,92.9135,304.7712,93.8428,303.0306,94.49,301.16" style="stroke:#666666;stroke-width:1.0;"/><text fill="#666666" font-family="sans-serif" font-size="12" lengthAdjust="spacing" textLength="101" x="71" y="344.457">data management</text><!--MD5=[ba5f0878b87972eb2bc92f8335f91af0]
link existing_syst to owner--><path d="M160.88,301.31 L161.1228,301.4499 L165.6001,310.058 L171.5008,319.4862 L176.938,328.6473 L180.8508,336.9302 L186.784,346.377 L191.5798,355.1686 L196.8282,364.221 L202.47,373.5 " fill="none" style="stroke:#666666;stroke-width:1.0;"/><polygon fill="#666666" points="205.04,377.98,205.1097,377.9874,204.6952,376.0066,204.6891,374.0692,204.55,372.1176,203.9736,370.1197,204.0026,368.1859,203.9776,368.1792,203.5726,369.242,203.2938,370.3386,203.1027,371.4587,202.6094,372.4978,202.5393,373.6503,202.5871,373.8285,201.3921,373.1547,200.3365,373.0013,199.298,372.9114,198.1605,372.452,197.075,372.187,197.0884,372.2054,198.6617,373.337,200.296,374.5523,201.9009,375.7273,203.5618,376.9793,205.04,377.98" style="stroke:#666666;stroke-width:1.0;"/><text fill="#666666" font-family="sans-serif" font-size="12" lengthAdjust="spacing" textLength="114" x="187" y="344.457">analytics, accounting</text><polygon fill="#DDDDDD" points="118,431.125,118,431.3352,128.25,430.7107,138.5,431.3183,148.75,431.5247,159,430.4116,169.25,431.0473,179.5,430.6985,189.75,430.7415,200,431.0568,210.25,430.4336,220.5,431.6786,230.75,430.4947,241,430.9272,251.25,431.5569,261.5,431.0392,271.75,431.1932,282,431.125,281.9959,431.1152,282.7299,431.4729,283.4447,431.7844,284.196,432.184,284.914,432.5032,285.5355,432.5895,285.7447,432.6761,285.9068,433.3291,286.2641,434.0628,286.6305,434.8004,286.485,435.3259,287,436.125,287.6785,436.125,286.7035,446.0938,287.5338,456.0625,286.505,466.0313,286.9315,476,287.7416,485.9688,286.9513,495.9375,287.1053,505.9063,287.3386,515.875,287.4162,525.8438,286.9961,535.8125,287,545.7813,287.0885,545.8179,286.5308,546.4153,286.5018,547.2317,286.2901,547.9725,285.9653,548.6664,285.5355,549.3168,285.6137,549.5056,284.7668,549.4609,284.0381,549.7017,283.3349,550.0041,282.6996,550.4702,282,550.7813,282,550.5847,271.75,551.4627,261.5,550.6066,251.25,550.4382,241,551.0095,230.75,550.1144,220.5,550.2621,210.25,551.4302,200,551.2169,189.75,551.5157,179.5,550.4595,169.25,551.1004,159,551.3717,148.75,550.3088,138.5,550.6854,128.25,550.9072,118,550.7813,118.0831,550.982,117.2924,550.4871,116.6448,550.3379,115.808,549.732,115.0852,549.4011,114.4645,549.3168,114.6196,549.381,113.9508,548.5182,114.0354,547.9675,113.6494,547.2218,113.2104,546.4542,113,545.7813,112.6462,545.7813,113.4588,535.8125,112.7007,525.8438,113.5919,515.875,112.4473,505.9063,113.6174,495.9375,113.4843,485.9688,113.245,476,113.0472,466.0313,113.7266,456.0625,113.6136,446.0938,113,436.125,113.0521,436.1466,113.3755,435.4521,113.5457,434.6942,114.0993,434.0951,114.2193,433.3163,114.4645,432.5895,114.4865,432.6426,115.094,432.1092,115.827,431.8789,116.6535,431.8742,117.3477,431.5502,118,431.125" style="stroke:#000000;stroke-width:1.0;"/><text fill="#000000" font-family="sans-serif" font-size="14" font-weight="bold" lengthAdjust="spacing" textLength="0" x="175" y="452.6582"/><text fill="#000000" font-family="sans-serif" font-size="14" font-weight="bold" lengthAdjust="spacing" textLength="33" x="179" y="452.6582">Type</text><polygon fill="#08427B" points="119,455.7344,119,455.9446,128.3333,455.3201,137.6667,455.9277,147,456.1341,156.3333,455.021,165.6667,455.6567,175,455.7344,174.8578,455.7344,174.8722,459.2563,174.9773,462.7781,174.7695,466.3,175.1845,469.8219,175,473.3438,175,472.7135,165.6667,473.146,156.3333,473.7757,147,473.258,137.6667,473.412,128.3333,473.3118,119,473.3438,119.0595,473.3438,119.0797,469.8219,119.1952,466.3,119.2237,462.7781,119.2264,459.2563,119,455.7344" style="stroke:none;stroke-width:1.0;"/><text fill="#000000" font-family="sans-serif" font-size="14" lengthAdjust="spacing" textLength="0" x="143" y="470.2676"/><text fill="#000000" font-family="sans-serif" font-size="14" lengthAdjust="spacing" textLength="44" x="179" y="470.2676">person</text><polygon fill="#686868" points="119,473.3438,119,473.5539,128.3333,472.9294,137.6667,473.537,147,473.7434,156.3333,472.6304,165.6667,473.266,175,473.3438,174.8578,473.3438,174.8722,476.8656,174.9773,480.3875,174.7695,483.9094,175.1845,487.4313,175,490.9531,175,490.3228,165.6667,490.7554,156.3333,491.3851,147,490.8673,137.6667,491.0214,128.3333,490.9212,119,490.9531,119.0595,490.9531,119.0797,487.4313,119.1952,483.9094,119.2237,480.3875,119.2264,476.8656,119,473.3438" style="stroke:none;stroke-width:1.0;"/><text fill="#000000" font-family="sans-serif" font-size="14" lengthAdjust="spacing" textLength="0" x="143" y="487.877"/><text fill="#000000" font-family="sans-serif" font-size="14" lengthAdjust="spacing" textLength="98" x="179" y="487.877">external person</text><polygon fill="#1168BD" points="119,490.9531,119,491.1633,128.3333,490.5388,137.6667,491.1464,147,491.3528,156.3333,490.2397,165.6667,490.8754,175,490.9531,174.8578,490.9531,174.8722,494.475,174.9773,497.9969,174.7695,501.5188,175.1845,505.0406,175,508.5625,175,507.9322,165.6667,508.3647,156.3333,508.9944,147,508.4767,137.6667,508.6307,128.3333,508.5306,119,508.5625,119.0595,508.5625,119.0797,505.0406,119.1952,501.5188,119.2237,497.9969,119.2264,494.475,119,490.9531" style="stroke:none;stroke-width:1.0;"/><text fill="#000000" font-family="sans-serif" font-size="14" lengthAdjust="spacing" textLength="0" x="131" y="505.4863"/><text fill="#000000" font-family="sans-serif" font-size="14" lengthAdjust="spacing" textLength="44" x="179" y="505.4863">system</text><polygon fill="#999999" points="119,508.5625,119,508.7727,128.3333,508.1482,137.6667,508.7558,147,508.9622,156.3333,507.8491,165.6667,508.4848,175,508.5625,174.8578,508.5625,174.8722,512.0844,174.9773,515.6063,174.7695,519.1281,175.1845,522.65,175,526.1719,175,525.5416,165.6667,525.9741,156.3333,526.6038,147,526.0861,137.6667,526.2401,128.3333,526.1399,119,526.1719,119.0595,526.1719,119.0797,522.65,119.1952,519.1281,119.2237,515.6063,119.2264,512.0844,119,508.5625" style="stroke:none;stroke-width:1.0;"/><text fill="#000000" font-family="sans-serif" font-size="14" lengthAdjust="spacing" textLength="0" x="143" y="523.0957"/><text fill="#000000" font-family="sans-serif" font-size="14" lengthAdjust="spacing" textLength="98" x="179" y="523.0957">external system</text><polygon fill="#438DD5" points="119,526.1719,119,526.3821,128.3333,525.7576,137.6667,526.3652,147,526.5716,156.3333,525.4585,165.6667,526.0942,175,526.1719,174.8578,526.1719,174.8722,529.6938,174.9773,533.2156,174.7695,536.7375,175.1845,540.2594,175,543.7813,175,543.151,165.6667,543.5835,156.3333,544.2132,147,543.6955,137.6667,543.8495,128.3333,543.7493,119,543.7813,119.0595,543.7813,119.0797,540.2594,119.1952,536.7375,119.2237,533.2156,119.2264,529.6938,119,526.1719" style="stroke:none;stroke-width:1.0;"/><text fill="#000000" font-family="sans-serif" font-size="14" lengthAdjust="spacing" textLength="0" x="131" y="540.7051"/><text fill="#000000" font-family="sans-serif" font-size="14" lengthAdjust="spacing" textLength="59" x="179" y="540.7051">container</text><path d="M119,438.125 L119,438.4052 L129.125,437.5726 L139.25,438.3827 L149.375,438.6579 L159.5,437.1738 L169.625,438.0214 L179.75,437.5563 L189.875,437.6137 L200,438.0341 L210.125,437.2032 L220.25,438.8632 L230.375,437.2846 L240.5,437.8613 L250.625,438.7009 L260.75,438.0106 L270.875,438.216 L281,438.125 " fill="none" style="stroke:#000000;stroke-width:1.0;"/><path d="M119,455.7344 L119,456.0146 L129.125,455.1819 L139.25,455.9921 L149.375,456.2673 L159.5,454.7832 L169.625,455.6308 L179.75,455.1657 L189.875,455.223 L200,455.6435 L210.125,454.8125 L220.25,456.4726 L230.375,454.894 L240.5,455.4707 L250.625,456.3103 L260.75,455.62 L270.875,455.8254 L281,455.7344 " fill="none" style="stroke:#000000;stroke-width:1.0;"/><path d="M119,473.3438 L119,473.624 L129.125,472.7913 L139.25,473.6015 L149.375,473.8767 L159.5,472.3926 L169.625,473.2401 L179.75,472.7751 L189.875,472.8324 L200,473.2529 L210.125,472.4219 L220.25,474.0819 L230.375,472.5034 L240.5,473.0801 L250.625,473.9197 L260.75,473.2294 L270.875,473.4347 L281,473.3438 " fill="none" style="stroke:#000000;stroke-width:1.0;"/><path d="M119,490.9531 L119,491.2334 L129.125,490.4007 L139.25,491.2108 L149.375,491.486 L159.5,490.0019 L169.625,490.8495 L179.75,490.3845 L189.875,490.4418 L200,490.8622 L210.125,490.0313 L220.25,491.6913 L230.375,490.1128 L240.5,490.6894 L250.625,491.5291 L260.75,490.8388 L270.875,491.0441 L281,490.9531 " fill="none" style="stroke:#000000;stroke-width:1.0;"/><path d="M119,508.5625 L119,508.8427 L129.125,508.0101 L139.25,508.8202 L149.375,509.0954 L159.5,507.6113 L169.625,508.4589 L179.75,507.9938 L189.875,508.0512 L200,508.4716 L210.125,507.6407 L220.25,509.3007 L230.375,507.7221 L240.5,508.2988 L250.625,509.1384 L260.75,508.4481 L270.875,508.6535 L281,508.5625 " fill="none" style="stroke:#000000;stroke-width:1.0;"/><path d="M119,526.1719 L119,526.4521 L129.125,525.6194 L139.25,526.4296 L149.375,526.7048 L159.5,525.2207 L169.625,526.0683 L179.75,525.6032 L189.875,525.6605 L200,526.081 L210.125,525.25 L220.25,526.9101 L230.375,525.3315 L240.5,525.9082 L250.625,526.7478 L260.75,526.0575 L270.875,526.2629 L281,526.1719 " fill="none" style="stroke:#000000;stroke-width:1.0;"/><path d="M119,543.7813 L119,544.0615 L129.125,543.2288 L139.25,544.039 L149.375,544.3142 L159.5,542.8301 L169.625,543.6776 L179.75,543.2126 L189.875,543.2699 L200,543.6904 L210.125,542.8594 L220.25,544.5194 L230.375,542.9409 L240.5,543.5176 L250.625,544.3572 L260.75,543.6669 L270.875,543.8722 L281,543.7813 " fill="none" style="stroke:#000000;stroke-width:1.0;"/><path d="M119,438.125 L119.2802,438.125 L118.4476,447.7301 L119.2577,457.3352 L119.5329,466.9403 L118.0488,476.5455 L118.8964,486.1506 L118.4313,495.7557 L118.4887,505.3608 L118.9091,514.9659 L118.0782,524.571 L119.7382,534.1761 L119,543.7813 " fill="none" style="stroke:#000000;stroke-width:1.0;"/><path d="M175,438.125 L175.2802,438.125 L174.4476,447.7301 L175.2577,457.3352 L175.5329,466.9403 L174.0488,476.5455 L174.8964,486.1506 L174.4313,495.7557 L174.4887,505.3608 L174.9091,514.9659 L174.0782,524.571 L175.7382,534.1761 L175,543.7813 " fill="none" style="stroke:#000000;stroke-width:1.0;"/><path d="M281,438.125 L281.2802,438.125 L280.4476,447.7301 L281.2577,457.3352 L281.5329,466.9403 L280.0488,476.5455 L280.8964,486.1506 L280.4313,495.7557 L280.4887,505.3608 L280.9091,514.9659 L280.0782,524.571 L281.7382,534.1761 L281,543.7813 " fill="none" style="stroke:#000000;stroke-width:1.0;"/><!--MD5=[fc188119633dbab9e2dd16832a46e8d6]
@startuml context
!includeurl https://raw.githubusercontent.com/RicardoNiepel/C4-PlantUML/release/1-0/C4_Container.puml
skinparam handwritten true
LAYOUT_TOP_DOWN
LAYOUT_WITH_LEGEND()

Person(operator, "Operator")
' Person(phone_operator, "Phone operator")
' Person(xls_operator, "Excel operator")
' Person(receptionist, "Receptionist")
' Person(manager, "On-site Manager")
Person_Ext(admin, "Remote Admin")
Person(owner, "Owner")
Person_Ext(client, "Client")

System(existing_syst, "Existing processing system")
' System_Ext(existing_vendors, "Existing vendors")

' Person_Ext(buyer, "Ancillary goods Buyer")
' Person_Ext(seller, "Ancillary goods Seller")

client - -> operator: phone call
client - -> operator: personal visit
operator - -> existing_syst: filled in Excel document
' existing_syst <- -> existing_vendors
existing_syst <- - admin: data management
existing_syst - -> owner: analytics, accounting

@enduml

@startuml context





skinparam defaultTextAlignment center

skinparam wrapWidth 200
skinparam maxMessageSize 150

skinparam rectangle {
    StereotypeFontSize 12
    shadowing false
}

skinparam database {
    StereotypeFontSize 12
    shadowing false
}

skinparam Arrow {
    Color #666666
    FontColor #666666
    FontSize 12
}

skinparam rectangle<<boundary>> {
    Shadowing false
    StereotypeFontSize 0
    FontColor #444444
    BorderColor #444444
    BorderStyle dashed
}






















skinparam rectangle<<person>> {
    StereotypeFontColor #FFFFFF
    FontColor #FFFFFF
    BackgroundColor #08427B
    BorderColor #073B6F
}

skinparam rectangle<<external_person>> {
    StereotypeFontColor #FFFFFF
    FontColor #FFFFFF
    BackgroundColor #686868
    BorderColor #8A8A8A
}

skinparam rectangle<<system>> {
    StereotypeFontColor #FFFFFF
    FontColor #FFFFFF
    BackgroundColor #1168BD
    BorderColor #3C7FC0
}

skinparam rectangle<<external_system>> {
    StereotypeFontColor #FFFFFF
    FontColor #FFFFFF
    BackgroundColor #999999
    BorderColor #8A8A8A
}

skinparam database<<system>> {
    StereotypeFontColor #FFFFFF
    FontColor #FFFFFF
    BackgroundColor #1168BD
    BorderColor #3C7FC0
}

skinparam database<<external_system>> {
    StereotypeFontColor #FFFFFF
    FontColor #FFFFFF
    BackgroundColor #999999
    BorderColor #8A8A8A
}
















skinparam rectangle<<container>> {
    StereotypeFontColor #FFFFFF
    FontColor #FFFFFF
    BackgroundColor #438DD5
    BorderColor #3C7FC0
}

skinparam database<<container>> {
    StereotypeFontColor #FFFFFF
    FontColor #FFFFFF
    BackgroundColor #438DD5
    BorderColor #3C7FC0
}







skinparam handwritten true
top to bottom direction
hide stereotype
legend right
|=              |= Type |
|<#08427B>      | person |
|<#686868>      | external person |
|<#1168BD>   | system |
|<#999999>      | external system |
|<#438DD5>   | container |
endlegend

rectangle "==Operator" <<person>> as operator
rectangle "==Remote Admin" <<external_person>> as admin
rectangle "==Owner" <<person>> as owner
rectangle "==Client" <<external_person>> as client

rectangle "==Existing processing system" <<system>> as existing_syst


client - -> operator: phone call
client - -> operator: personal visit
operator - -> existing_syst: filled in Excel document
existing_syst <- - admin: data management
existing_syst - -> owner: analytics, accounting

@enduml

PlantUML version 1.2021.00(Sun Jan 10 12:25:05 EET 2021)
(GPL source distribution)
Java Runtime: Java(TM) SE Runtime Environment
JVM: Java HotSpot(TM) Client VM
Default Encoding: Cp1251
Language: en
Country: US
--></g></svg>