<?xml version="1.0" encoding="UTF-8" standalone="no"?><svg xmlns="http://www.w3.org/2000/svg" xmlns:xlink="http://www.w3.org/1999/xlink" contentScriptType="application/ecmascript" contentStyleType="text/css" height="280px" preserveAspectRatio="none" style="width:1164px;height:280px;" version="1.1" viewBox="0 0 1164 280" width="1164px" zoomAndPan="magnify"><defs/><g><!--MD5=[095eed00359ffc2bedbadd577a413569]
cluster proc--><polygon fill="#FFFFFF" points="352.5,7,352.5,7.2102,362.4211,6.5857,372.3421,7.1933,382.2632,7.3997,392.1842,6.2866,402.1053,6.9223,412.0263,6.5735,421.9474,6.6165,431.8684,6.9318,441.7895,6.3086,451.7105,7.5536,461.6316,6.3697,471.5526,6.8022,481.4737,7.4319,491.3947,6.9142,501.3158,7.0682,511.2368,6.9681,521.1579,7.1785,531.0789,7.2391,541,7.5857,550.9211,7.6711,560.8421,7.6793,570.7632,7.2546,580.6842,7.4636,590.6053,7.7022,600.5263,6.2788,610.4474,7.6785,620.3684,6.7035,630.2895,7.5338,640.2105,6.505,650.1316,6.9315,660.0526,7.7416,669.9737,6.9513,679.8947,7.1053,689.8158,7.3386,699.7368,7.4162,709.6579,6.9961,719.5789,7.2872,729.5,7,728.9276,7,729.7844,16.6154,730.0482,26.2308,729.9445,35.8462,730.113,45.4615,729.0169,55.0769,728.8478,64.6923,728.8786,74.3077,729.4411,83.9231,729.3035,93.5385,730.1814,103.1538,729.3253,112.7692,729.1569,122.3846,729.5,132,729.5,132.2283,719.5789,131.3332,709.6579,131.4809,699.7368,132.649,689.8158,132.4357,679.8947,132.7345,669.9737,131.6782,660.0526,132.3192,650.1316,132.5904,640.2105,131.5276,630.2895,131.9041,620.3684,132.126,610.4474,132.6518,600.5263,131.9958,590.6053,132.4626,580.6842,131.4462,570.7632,131.3227,560.8421,132.5036,550.9211,131.2831,541,132.509,531.0789,132.2066,521.1579,131.7321,511.2368,131.6462,501.3158,132.4588,491.3947,131.7007,481.4737,132.5919,471.5526,131.4473,461.6316,132.6174,451.7105,132.4843,441.7895,132.245,431.8684,132.0472,421.9474,132.7266,412.0263,132.6136,402.1053,132.1693,392.1842,132.2682,382.2632,131.8697,372.3421,132.7165,362.4211,132.1549,352.5,132,352.6726,132,351.8916,122.3846,352.0948,112.7692,353.0307,103.1538,352.9298,93.5385,352.4571,83.9231,352.1778,74.3077,352.2811,64.6923,351.8138,55.0769,352.9147,45.4615,353.2396,35.8462,353.0264,26.2308,353.1949,16.6154,352.5,7" style="stroke:#444444;stroke-width:1.0;stroke-dasharray:7.0,7.0;"/><text fill="#444444" font-family="sans-serif" font-size="16" font-weight="bold" lengthAdjust="spacing" textLength="87" x="497.5" y="25.6094">Processing</text><!--MD5=[2cb4dc563c9785ed7df45b11e7f7d136]
cluster market--><polygon fill="#FFFFFF" points="753.5,7,753.5,7.2102,763.378,6.5857,773.2561,7.1933,783.1341,7.3997,793.0122,6.2866,802.8902,6.9223,812.7683,6.5735,822.6463,6.6165,832.5244,6.9318,842.4024,6.3086,852.2805,7.5536,862.1585,6.3697,872.0366,6.8022,881.9146,7.4319,891.7927,6.9142,901.6707,7.0682,911.5488,6.9681,921.4268,7.1785,931.3049,7.2391,941.1829,7.5857,951.061,7.6711,960.939,7.6793,970.8171,7.2546,980.6951,7.4636,990.5732,7.7022,1000.4512,6.2788,1010.3293,7.6785,1020.2073,6.7035,1030.0854,7.5338,1039.9634,6.505,1049.8415,6.9315,1059.7195,7.7416,1069.5976,6.9513,1079.4756,7.1053,1089.3537,7.3386,1099.2317,7.4162,1109.1098,6.9961,1118.9878,7.2872,1128.8659,6.4276,1138.7439,7.2844,1148.622,7.5482,1158.5,7,1158.9445,7,1159.113,16.6154,1158.0169,26.2308,1157.8478,35.8462,1157.8786,45.4615,1158.4411,55.0769,1158.3035,64.6923,1159.1814,74.3077,1158.3253,83.9231,1158.1569,93.5385,1158.7283,103.1538,1157.8332,112.7692,1157.9809,122.3846,1158.5,132,1158.5,132.649,1148.622,132.4357,1138.7439,132.7345,1128.8659,131.6782,1118.9878,132.3192,1109.1098,132.5904,1099.2317,131.5276,1089.3537,131.9041,1079.4756,132.126,1069.5976,132.6518,1059.7195,131.9958,1049.8415,132.4626,1039.9634,131.4462,1030.0854,131.3227,1020.2073,132.5036,1010.3293,131.2831,1000.4512,132.509,990.5732,132.2066,980.6951,131.7321,970.8171,131.6462,960.939,132.4588,951.061,131.7007,941.1829,132.5919,931.3049,131.4473,921.4268,132.6174,911.5488,132.4843,901.6707,132.245,891.7927,132.0472,881.9146,132.7266,872.0366,132.6136,862.1585,132.1693,852.2805,132.2682,842.4024,131.8697,832.5244,132.7165,822.6463,132.1549,812.7683,132.1726,802.8902,131.3916,793.0122,131.5948,783.1341,132.5307,773.2561,132.4298,763.378,131.9571,753.5,132,753.1778,132,753.2811,122.3846,752.8138,112.7692,753.9147,103.1538,754.2396,93.5385,754.0264,83.9231,754.1949,74.3077,753.3633,64.6923,753.5872,55.0769,753.1124,45.4615,753.784,35.8462,753.7468,26.2308,754.0524,16.6154,753.5,7" style="stroke:#444444;stroke-width:1.0;stroke-dasharray:7.0,7.0;"/><text fill="#444444" font-family="sans-serif" font-size="16" font-weight="bold" lengthAdjust="spacing" textLength="75" x="918.5" y="25.6094">Marketing</text><!--MD5=[6512644249e464bea9195b7540b25915]
entity crm--><polygon fill="#85BBF0" points="622,53.5,622,53.7102,632.1111,53.0857,642.2222,53.6933,652.3333,53.8997,662.4444,52.7866,672.5556,53.4223,682.6667,53.0735,692.7778,53.1165,702.8889,53.4318,713,53.5,712.3086,53.5,713.5536,62.7031,712.3697,71.9063,712.8022,81.1094,713.4319,90.3125,712.9142,99.5156,713,108.7188,713,108.787,702.8889,108.6868,692.7778,108.8973,682.6667,108.9579,672.5556,109.3044,662.4444,109.3898,652.3333,109.398,642.2222,108.9734,632.1111,109.1823,622,108.7188,622.7022,108.7188,621.2788,99.5156,622.6785,90.3125,621.7035,81.1094,622.5338,71.9063,621.505,62.7031,622,53.5" style="stroke:#78A8D8;stroke-width:1.5;"/><text fill="#000000" font-family="sans-serif" font-size="16" font-weight="bold" lengthAdjust="spacing" textLength="37" x="649" y="80.1094">CRM</text><text fill="#000000" font-family="sans-serif" font-size="12" font-style="italic" lengthAdjust="spacing" textLength="71" x="632" y="96.082">[Salesforce?]</text><!--MD5=[cff3e0fa100c0287cbc891a56da0abd3]
entity proc_tools--><polygon fill="#85BBF0" points="368.5,46,368.5,46.2102,378.4091,45.5857,388.3182,46.1933,398.2273,46.3997,408.1364,45.2866,418.0455,45.9223,427.9545,45.5735,437.8636,45.6165,447.7727,45.9318,457.6818,45.3086,467.5909,46.5536,477.5,45.3697,487.4091,45.8022,497.3182,46.4319,507.2273,45.9142,517.1364,46.0682,527.0455,45.9681,536.9545,46.1785,546.8636,46.2391,556.7727,46.5857,566.6818,46.6711,576.5909,46.6793,586.5,46,586.7546,46,586.9636,56.0446,587.2022,66.0893,585.7788,76.1339,587.1785,86.1786,586.2035,96.2232,587.0338,106.2679,586.5,116.3125,586.5,115.8175,576.5909,116.244,566.6818,117.0541,556.7727,116.2638,546.8636,116.4178,536.9545,116.6511,527.0455,116.7287,517.1364,116.3086,507.2273,116.5997,497.3182,115.7401,487.4091,116.5969,477.5,116.8607,467.5909,116.757,457.6818,116.9255,447.7727,115.8294,437.8636,115.6603,427.9545,115.6911,418.0455,116.2536,408.1364,116.116,398.2273,116.9939,388.3182,116.1378,378.4091,115.9694,368.5,116.3125,368.7283,116.3125,367.8332,106.2679,367.9809,96.2232,369.149,86.1786,368.9357,76.1339,369.2345,66.0893,368.1782,56.0446,368.5,46" style="stroke:#78A8D8;stroke-width:1.5;"/><text fill="#000000" font-family="sans-serif" font-size="16" font-weight="bold" lengthAdjust="spacing" textLength="195" x="380" y="72.6094">Internal Processing Tools</text><text fill="#000000" font-family="sans-serif" font-size="12" font-style="italic" lengthAdjust="spacing" textLength="195" x="378.5" y="88.582">[scripts, data curation tools, website,</text><text fill="#000000" font-family="sans-serif" font-size="12" font-style="italic" lengthAdjust="spacing" textLength="22" x="466.5" y="103.6758">etc.]</text><!--MD5=[5343f8e8e7c5c2b10cc01e945c6416c4]
entity ecomm--><polygon fill="#85BBF0" points="1022.5,53.5,1022.5,53.7102,1032.5,53.0857,1042.5,53.6933,1052.5,53.8997,1062.5,52.7866,1072.5,53.4223,1082.5,53.0735,1092.5,53.1165,1102.5,53.4318,1112.5,52.8086,1122.5,54.0536,1132.5,52.8697,1142.5,53.5,1142.3022,53.5,1142.9319,62.7031,1142.4142,71.9063,1142.5682,81.1094,1142.4681,90.3125,1142.6785,99.5156,1142.5,108.7188,1142.5,108.9579,1132.5,109.3044,1122.5,109.3898,1112.5,109.398,1102.5,108.9734,1092.5,109.1823,1082.5,109.421,1072.5,107.9976,1062.5,109.3973,1052.5,108.4222,1042.5,109.2526,1032.5,108.2237,1022.5,108.7188,1022.4315,108.7188,1023.2416,99.5156,1022.4513,90.3125,1022.6053,81.1094,1022.8386,71.9063,1022.9162,62.7031,1022.5,53.5" style="stroke:#78A8D8;stroke-width:1.5;"/><text fill="#000000" font-family="sans-serif" font-size="16" font-weight="bold" lengthAdjust="spacing" textLength="92" x="1036.5" y="80.1094">eCommerce</text><text fill="#000000" font-family="sans-serif" font-size="12" font-style="italic" lengthAdjust="spacing" textLength="100" x="1032.5" y="96.082">[Magento, Shopify]</text><!--MD5=[6b31b7f24c8339db3ae68e76c8ade109]
entity market_tools--><polygon fill="#85BBF0" points="769.5,46,769.5,46.2102,779.4091,45.5857,789.3182,46.1933,799.2273,46.3997,809.1364,45.2866,819.0455,45.9223,828.9545,45.5735,838.8636,45.6165,848.7727,45.9318,858.6818,45.3086,868.5909,46.5536,878.5,45.3697,888.4091,45.8022,898.3182,46.4319,908.2273,45.9142,918.1364,46.0682,928.0455,45.9681,937.9545,46.1785,947.8636,46.2391,957.7727,46.5857,967.6818,46.6711,977.5909,46.6793,987.5,46,987.7546,46,987.9636,56.0446,988.2022,66.0893,986.7788,76.1339,988.1785,86.1786,987.2035,96.2232,988.0338,106.2679,987.5,116.3125,987.5,115.8175,977.5909,116.244,967.6818,117.0541,957.7727,116.2638,947.8636,116.4178,937.9545,116.6511,928.0455,116.7287,918.1364,116.3086,908.2273,116.5997,898.3182,115.7401,888.4091,116.5969,878.5,116.8607,868.5909,116.757,858.6818,116.9255,848.7727,115.8294,838.8636,115.6603,828.9545,115.6911,819.0455,116.2536,809.1364,116.116,799.2273,116.9939,789.3182,116.1378,779.4091,115.9694,769.5,116.3125,769.7283,116.3125,768.8332,106.2679,768.9809,96.2232,770.149,86.1786,769.9357,76.1339,770.2345,66.0893,769.1782,56.0446,769.5,46" style="stroke:#78A8D8;stroke-width:1.5;"/><text fill="#000000" font-family="sans-serif" font-size="16" font-weight="bold" lengthAdjust="spacing" textLength="183" x="787" y="72.6094">Internal Marketing Tools</text><text fill="#000000" font-family="sans-serif" font-size="12" font-style="italic" lengthAdjust="spacing" textLength="195" x="779.5" y="88.582">[scripts, data curation tools, website,</text><text fill="#000000" font-family="sans-serif" font-size="12" font-style="italic" lengthAdjust="spacing" textLength="22" x="867.5" y="103.6758">etc.]</text><!--MD5=[f88a1ba3c12ca18df0df72a0ada2149d]
entity vendors--><polygon fill="#999999" points="7,61,7,61.2102,16.4444,60.5857,25.8889,61.1933,35.3333,61.3997,44.7778,60.2866,54.2222,60.9223,63.6667,60.5735,73.1111,60.6165,82.5556,60.9318,92,61,91.7695,61,92.1845,69.025,91.7899,77.05,91.9341,85.075,92.144,93.1,92,101.125,92,101.0392,82.5556,101.1932,73.1111,101.0931,63.6667,101.3035,54.2222,101.3641,44.7778,101.7107,35.3333,101.7961,25.8889,101.8043,16.4444,101.3796,7,101.125,7.1545,101.125,7.2341,93.1,6.7596,85.075,7.2262,77.05,6.9012,69.025,7,61" style="stroke:#8A8A8A;stroke-width:1.5;"/><text fill="#FFFFFF" font-family="sans-serif" font-size="16" font-weight="bold" lengthAdjust="spacing" textLength="65" x="17" y="87.6094">Vendors</text><!--MD5=[7ce3a4e336439a2e943227980734751e]
entity raw_db--><path d="M127.5,51.5 L127.5,51.5 L127.5316,51.5879 L130.6565,50.1704 L133.9665,49.2683 L137.2163,48.1984 L140.2678,46.5766 L143.5938,45.7188 L143.5901,45.6844 L146.8727,45.1748 L150.1739,44.8383 L153.4882,44.6222 L156.7577,43.9914 L160.0898,43.9414 L160.1053,44.187 L163.8543,43.4236 L167.6484,43.3771 L171.448,43.4182 L175.2156,42.9502 L179,42.75 L179.0012,42.7803 L182.7815,42.5913 L186.5671,42.5402 L190.3502,42.4226 L194.1381,42.432 L197.9102,42.0273 L197.9169,42.3255 L201.2162,42.2549 L204.5111,41.992 L207.8124,42.0107 L211.1141,42.0425 L214.4063,41.6563 L214.4031,41.3357 L217.6279,41.9265 L220.8425,41.462 L224.0648,41.7997 L227.2791,41.3113 L230.5,41.5 L230.5,41.5 L230.4997,41.4696 L233.7219,41.8608 L236.9373,41.5408 L240.1567,41.6405 L243.3765,41.7755 L246.5938,41.6563 L246.5979,41.8412 L249.8929,41.7287 L253.1951,41.9323 L256.4857,41.6246 L259.7935,42.0795 L263.0898,42.0273 L263.0991,42.2708 L266.8794,42.3693 L270.6643,42.5887 L274.4277,42.2464 L278.2069,42.3158 L282,42.75 L281.9826,42.4744 L285.7804,42.9622 L289.5586,43.1394 L293.3651,43.7671 L297.1232,43.6256 L300.9102,43.9414 L300.8938,43.7898 L304.2202,44.3977 L307.4768,44.3577 L310.7831,44.7784 L314.1379,45.65 L317.4063,45.7188 L317.4717,45.901 L320.7354,47.1822 L323.7954,47.8967 L327.1105,49.321 L330.37,50.5907 L333.5,51.5 L332.2403,51.5 L333.2444,61.3854 L333.836,71.2708 L335.238,81.1563 L333.4888,91.0417 L334.7335,100.9271 L333.5,110.8125 L333.5,110.8125 L333.4168,110.5809 L330.1795,111.6855 L327.1382,113.3356 L323.736,113.9814 L320.7015,115.6504 L317.4063,116.5938 L317.4161,116.6851 L314.0943,116.8308 L310.791,117.1484 L307.5304,117.8629 L304.1951,117.8834 L300.9102,118.3711 L300.9267,118.6336 L297.1127,118.3642 L293.3633,119.1215 L289.5776,119.3008 L285.7889,119.4329 L282,119.5625 L282.0008,119.5835 L278.2303,120.0297 L274.4464,120.1241 L270.6568,120.0713 L266.8764,120.2597 L263.0898,120.2852 L263.0885,120.2273 L259.7978,120.6777 L256.493,120.5024 L253.1939,120.5845 L249.8869,120.3117 L246.5938,120.6563 L246.592,120.4762 L243.3773,120.9234 L240.1581,120.9097 L236.9373,120.7309 L233.7174,120.6381 L230.5,120.8125 L230.5,120.8125 L230.4991,120.7152 L227.2783,120.4763 L224.0643,120.9343 L220.8469,121.0474 L217.6273,120.9214 L214.4063,120.6563 L214.4132,120.965 L211.1057,120.5213 L207.8087,120.5466 L204.5047,120.2614 L201.2122,120.4856 L197.9102,120.2852 L197.9143,120.3947 L194.1375,120.386 L190.3422,119.8941 L186.5618,119.7919 L182.7896,119.904 L179,119.5625 L179.0159,119.8142 L175.2036,119.0969 L171.4305,118.9999 L167.6581,118.9139 L163.8548,118.3384 L160.0898,118.3711 L160.1067,118.5273 L156.8029,118.1296 L153.4866,117.6156 L150.199,117.3675 L146.9277,117.2712 L143.5938,116.5938 L143.5467,116.4629 L140.4223,115.5693 L137.1992,114.4007 L133.9549,113.1734 L130.7399,112.0277 L127.5,110.8125 L127.8026,110.8125 L125.8356,100.9271 L126.4312,91.0417 L126.2692,81.1563 L127.6702,71.2708 L127.735,61.3854 L127.5,51.5 " fill="#85BBF0" style="stroke:#78A8D8;stroke-width:1.5;"/><path d="M127.5,51.5 L127.5,51.5 L127.5316,51.5879 L130.6565,52.4829 L133.9665,53.8933 L137.2163,55.1359 L140.2678,55.8266 L143.5938,57.2813 L143.5901,57.2469 L146.8727,57.4483 L150.1739,57.8227 L153.4882,58.3175 L156.7577,58.3976 L160.0898,59.0586 L160.1053,59.3042 L163.8543,59.0173 L167.6484,59.4474 L171.448,59.965 L175.2156,59.9737 L179,60.25 L179.0012,60.2803 L182.7815,60.3803 L186.5671,60.6183 L190.3502,60.7898 L194.1381,61.0882 L197.9102,60.9727 L197.9169,61.2708 L201.2162,61.3487 L204.5111,61.2342 L207.8124,61.4013 L211.1141,61.5816 L214.4063,61.3438 L214.4031,61.0232 L217.6279,61.6765 L220.8425,61.2745 L224.0648,61.6747 L227.2791,61.2488 L230.5,61.5 L230.5,61.5 L230.4997,61.4696 L233.7219,61.7983 L236.9373,61.4158 L240.1567,61.453 L243.3765,61.5255 L246.5938,61.3438 L246.5979,61.5287 L249.8929,61.2678 L253.1951,61.3229 L256.4857,60.8668 L259.7935,61.1732 L263.0898,60.9727 L263.0991,61.2161 L266.8794,61.0256 L270.6643,60.9559 L274.4277,60.3245 L278.2069,60.1049 L282,60.25 L281.9826,59.9744 L285.7804,59.9856 L289.5586,59.6863 L293.3651,59.8374 L297.1232,59.2194 L300.9102,59.0586 L300.8938,58.907 L304.2202,58.804 L307.4768,58.053 L310.7831,57.7628 L314.1379,57.9235 L317.4063,57.2813 L317.4717,57.4635 L320.7354,56.4322 L323.7954,54.8342 L327.1105,53.946 L330.37,52.9032 L333.5,51.5 " fill="none" style="stroke:#78A8D8;stroke-width:1.5;"/><text fill="#000000" font-family="sans-serif" font-size="16" font-weight="bold" lengthAdjust="spacing" textLength="99" x="181" y="82.1094">Data Storage</text><text fill="#000000" font-family="sans-serif" font-size="12" font-style="italic" lengthAdjust="spacing" textLength="183" x="137.5" y="98.082">[client base, visits, season tickets,</text><text fill="#000000" font-family="sans-serif" font-size="12" font-style="italic" lengthAdjust="spacing" textLength="43" x="209" y="113.1758">DR etc.]</text><polygon fill="#DDDDDD" points="973.5,145,973.5,145.2102,983.75,144.5857,994,145.1933,1004.25,145.3997,1014.5,144.2866,1024.75,144.9223,1035,144.5735,1045.25,144.6165,1055.5,144.9318,1065.75,144.3086,1076,145.5536,1086.25,144.3697,1096.5,144.8022,1106.75,145.4319,1117,144.9142,1127.25,145.0682,1137.5,145,1137.4959,144.9902,1138.2299,145.3479,1138.9447,145.6594,1139.696,146.059,1140.414,146.3782,1141.0355,146.4645,1141.2447,146.5511,1141.4068,147.2041,1141.7641,147.9378,1142.1305,148.6754,1141.985,149.2009,1142.5,150,1143.1785,150,1142.2035,159.9688,1143.0338,169.9375,1142.005,179.9063,1142.4315,189.875,1143.2416,199.8438,1142.4513,209.8125,1142.6053,219.7813,1142.8386,229.75,1142.9162,239.7188,1142.4961,249.6875,1142.5,259.6563,1142.5885,259.6929,1142.0308,260.2903,1142.0018,261.1067,1141.7901,261.8475,1141.4653,262.5414,1141.0355,263.1918,1141.1137,263.3806,1140.2668,263.3359,1139.5381,263.5767,1138.8349,263.8791,1138.1996,264.3452,1137.5,264.6563,1137.5,264.4597,1127.25,265.3377,1117,264.4816,1106.75,264.3132,1096.5,264.8845,1086.25,263.9894,1076,264.1371,1065.75,265.3052,1055.5,265.0919,1045.25,265.3907,1035,264.3345,1024.75,264.9754,1014.5,265.2467,1004.25,264.1838,994,264.5604,983.75,264.7822,973.5,264.6563,973.5831,264.857,972.7924,264.3621,972.1448,264.2129,971.308,263.607,970.5852,263.2761,969.9645,263.1918,970.1196,263.256,969.4508,262.3932,969.5354,261.8425,969.1494,261.0968,968.7104,260.3292,968.5,259.6563,968.1462,259.6563,968.9588,249.6875,968.2007,239.7188,969.0919,229.75,967.9473,219.7813,969.1174,209.8125,968.9843,199.8438,968.745,189.875,968.5472,179.9063,969.2266,169.9375,969.1136,159.9688,968.5,150,968.5521,150.0216,968.8755,149.3271,969.0457,148.5692,969.5993,147.9701,969.7193,147.1913,969.9645,146.4645,969.9865,146.5176,970.594,145.9842,971.327,145.7539,972.1535,145.7492,972.8477,145.4252,973.5,145" style="stroke:#000000;stroke-width:1.0;"/><text fill="#000000" font-family="sans-serif" font-size="14" font-weight="bold" lengthAdjust="spacing" textLength="0" x="1030.5" y="166.5332"/><text fill="#000000" font-family="sans-serif" font-size="14" font-weight="bold" lengthAdjust="spacing" textLength="33" x="1034.5" y="166.5332">Type</text><polygon fill="#08427B" points="974.5,169.6094,974.5,169.8196,983.8333,169.1951,993.1667,169.8027,1002.5,170.0091,1011.8333,168.896,1021.1667,169.5317,1030.5,169.6094,1030.3578,169.6094,1030.3722,173.1313,1030.4773,176.6531,1030.2695,180.175,1030.6845,183.6969,1030.5,187.2188,1030.5,186.5885,1021.1667,187.021,1011.8333,187.6507,1002.5,187.133,993.1667,187.287,983.8333,187.1868,974.5,187.2188,974.5595,187.2188,974.5797,183.6969,974.6952,180.175,974.7237,176.6531,974.7264,173.1313,974.5,169.6094" style="stroke:none;stroke-width:1.0;"/><text fill="#000000" font-family="sans-serif" font-size="14" lengthAdjust="spacing" textLength="0" x="998.5" y="184.1426"/><text fill="#000000" font-family="sans-serif" font-size="14" lengthAdjust="spacing" textLength="44" x="1034.5" y="184.1426">person</text><polygon fill="#686868" points="974.5,187.2188,974.5,187.4289,983.8333,186.8044,993.1667,187.412,1002.5,187.6184,1011.8333,186.5054,1021.1667,187.141,1030.5,187.2188,1030.3578,187.2188,1030.3722,190.7406,1030.4773,194.2625,1030.2695,197.7844,1030.6845,201.3063,1030.5,204.8281,1030.5,204.1978,1021.1667,204.6304,1011.8333,205.2601,1002.5,204.7423,993.1667,204.8964,983.8333,204.7962,974.5,204.8281,974.5595,204.8281,974.5797,201.3063,974.6952,197.7844,974.7237,194.2625,974.7264,190.7406,974.5,187.2188" style="stroke:none;stroke-width:1.0;"/><text fill="#000000" font-family="sans-serif" font-size="14" lengthAdjust="spacing" textLength="0" x="998.5" y="201.752"/><text fill="#000000" font-family="sans-serif" font-size="14" lengthAdjust="spacing" textLength="98" x="1034.5" y="201.752">external person</text><polygon fill="#1168BD" points="974.5,204.8281,974.5,205.0383,983.8333,204.4138,993.1667,205.0214,1002.5,205.2278,1011.8333,204.1147,1021.1667,204.7504,1030.5,204.8281,1030.3578,204.8281,1030.3722,208.35,1030.4773,211.8719,1030.2695,215.3938,1030.6845,218.9156,1030.5,222.4375,1030.5,221.8072,1021.1667,222.2397,1011.8333,222.8694,1002.5,222.3517,993.1667,222.5057,983.8333,222.4056,974.5,222.4375,974.5595,222.4375,974.5797,218.9156,974.6952,215.3938,974.7237,211.8719,974.7264,208.35,974.5,204.8281" style="stroke:none;stroke-width:1.0;"/><text fill="#000000" font-family="sans-serif" font-size="14" lengthAdjust="spacing" textLength="0" x="986.5" y="219.3613"/><text fill="#000000" font-family="sans-serif" font-size="14" lengthAdjust="spacing" textLength="44" x="1034.5" y="219.3613">system</text><polygon fill="#999999" points="974.5,222.4375,974.5,222.6477,983.8333,222.0232,993.1667,222.6308,1002.5,222.8372,1011.8333,221.7241,1021.1667,222.3598,1030.5,222.4375,1030.3578,222.4375,1030.3722,225.9594,1030.4773,229.4813,1030.2695,233.0031,1030.6845,236.525,1030.5,240.0469,1030.5,239.4166,1021.1667,239.8491,1011.8333,240.4788,1002.5,239.9611,993.1667,240.1151,983.8333,240.0149,974.5,240.0469,974.5595,240.0469,974.5797,236.525,974.6952,233.0031,974.7237,229.4813,974.7264,225.9594,974.5,222.4375" style="stroke:none;stroke-width:1.0;"/><text fill="#000000" font-family="sans-serif" font-size="14" lengthAdjust="spacing" textLength="0" x="998.5" y="236.9707"/><text fill="#000000" font-family="sans-serif" font-size="14" lengthAdjust="spacing" textLength="98" x="1034.5" y="236.9707">external system</text><polygon fill="#438DD5" points="974.5,240.0469,974.5,240.2571,983.8333,239.6326,993.1667,240.2402,1002.5,240.4466,1011.8333,239.3335,1021.1667,239.9692,1030.5,240.0469,1030.3578,240.0469,1030.3722,243.5688,1030.4773,247.0906,1030.2695,250.6125,1030.6845,254.1344,1030.5,257.6563,1030.5,257.026,1021.1667,257.4585,1011.8333,258.0882,1002.5,257.5705,993.1667,257.7245,983.8333,257.6243,974.5,257.6563,974.5595,257.6563,974.5797,254.1344,974.6952,250.6125,974.7237,247.0906,974.7264,243.5688,974.5,240.0469" style="stroke:none;stroke-width:1.0;"/><text fill="#000000" font-family="sans-serif" font-size="14" lengthAdjust="spacing" textLength="0" x="986.5" y="254.5801"/><text fill="#000000" font-family="sans-serif" font-size="14" lengthAdjust="spacing" textLength="59" x="1034.5" y="254.5801">container</text><path d="M974.5,152 L974.5,152.2802 L984.625,151.4476 L994.75,152.2577 L1004.875,152.5329 L1015,151.0488 L1025.125,151.8964 L1035.25,151.4313 L1045.375,151.4887 L1055.5,151.9091 L1065.625,151.0782 L1075.75,152.7382 L1085.875,151.1596 L1096,151.7363 L1106.125,152.5759 L1116.25,151.8856 L1126.375,152.091 L1136.5,152 " fill="none" style="stroke:#000000;stroke-width:1.0;"/><path d="M974.5,169.6094 L974.5,169.8896 L984.625,169.0569 L994.75,169.8671 L1004.875,170.1423 L1015,168.6582 L1025.125,169.5058 L1035.25,169.0407 L1045.375,169.098 L1055.5,169.5185 L1065.625,168.6875 L1075.75,170.3476 L1085.875,168.769 L1096,169.3457 L1106.125,170.1853 L1116.25,169.495 L1126.375,169.7004 L1136.5,169.6094 " fill="none" style="stroke:#000000;stroke-width:1.0;"/><path d="M974.5,187.2188 L974.5,187.499 L984.625,186.6663 L994.75,187.4765 L1004.875,187.7517 L1015,186.2676 L1025.125,187.1151 L1035.25,186.6501 L1045.375,186.7074 L1055.5,187.1279 L1065.625,186.2969 L1075.75,187.9569 L1085.875,186.3784 L1096,186.9551 L1106.125,187.7947 L1116.25,187.1044 L1126.375,187.3097 L1136.5,187.2188 " fill="none" style="stroke:#000000;stroke-width:1.0;"/><path d="M974.5,204.8281 L974.5,205.1084 L984.625,204.2757 L994.75,205.0858 L1004.875,205.361 L1015,203.8769 L1025.125,204.7245 L1035.25,204.2595 L1045.375,204.3168 L1055.5,204.7372 L1065.625,203.9063 L1075.75,205.5663 L1085.875,203.9878 L1096,204.5644 L1106.125,205.4041 L1116.25,204.7138 L1126.375,204.9191 L1136.5,204.8281 " fill="none" style="stroke:#000000;stroke-width:1.0;"/><path d="M974.5,222.4375 L974.5,222.7177 L984.625,221.8851 L994.75,222.6952 L1004.875,222.9704 L1015,221.4863 L1025.125,222.3339 L1035.25,221.8688 L1045.375,221.9262 L1055.5,222.3466 L1065.625,221.5157 L1075.75,223.1757 L1085.875,221.5971 L1096,222.1738 L1106.125,223.0134 L1116.25,222.3231 L1126.375,222.5285 L1136.5,222.4375 " fill="none" style="stroke:#000000;stroke-width:1.0;"/><path d="M974.5,240.0469 L974.5,240.3271 L984.625,239.4944 L994.75,240.3046 L1004.875,240.5798 L1015,239.0957 L1025.125,239.9433 L1035.25,239.4782 L1045.375,239.5355 L1055.5,239.956 L1065.625,239.125 L1075.75,240.7851 L1085.875,239.2065 L1096,239.7832 L1106.125,240.6228 L1116.25,239.9325 L1126.375,240.1379 L1136.5,240.0469 " fill="none" style="stroke:#000000;stroke-width:1.0;"/><path d="M974.5,257.6563 L974.5,257.9365 L984.625,257.1038 L994.75,257.914 L1004.875,258.1892 L1015,256.7051 L1025.125,257.5526 L1035.25,257.0876 L1045.375,257.1449 L1055.5,257.5654 L1065.625,256.7344 L1075.75,258.3944 L1085.875,256.8159 L1096,257.3926 L1106.125,258.2322 L1116.25,257.5419 L1126.375,257.7472 L1136.5,257.6563 " fill="none" style="stroke:#000000;stroke-width:1.0;"/><path d="M974.5,152 L974.7802,152 L973.9476,161.6051 L974.7577,171.2102 L975.0329,180.8153 L973.5488,190.4205 L974.3964,200.0256 L973.9313,209.6307 L973.9887,219.2358 L974.4091,228.8409 L973.5782,238.446 L975.2382,248.0511 L974.5,257.6563 " fill="none" style="stroke:#000000;stroke-width:1.0;"/><path d="M1030.5,152 L1030.7802,152 L1029.9476,161.6051 L1030.7577,171.2102 L1031.0329,180.8153 L1029.5488,190.4205 L1030.3964,200.0256 L1029.9313,209.6307 L1029.9887,219.2358 L1030.4091,228.8409 L1029.5782,238.446 L1031.2382,248.0511 L1030.5,257.6563 " fill="none" style="stroke:#000000;stroke-width:1.0;"/><path d="M1136.5,152 L1136.7802,152 L1135.9476,161.6051 L1136.7577,171.2102 L1137.0329,180.8153 L1135.5488,190.4205 L1136.3964,200.0256 L1135.9313,209.6307 L1135.9887,219.2358 L1136.4091,228.8409 L1135.5782,238.446 L1137.2382,248.0511 L1136.5,257.6563 " fill="none" style="stroke:#000000;stroke-width:1.0;"/><!--MD5=[1e628913a32bad1c18c5f4459216b61c]
@startuml components
skinparam handwritten true
!includeurl https://raw.githubusercontent.com/RicardoNiepel/C4-PlantUML/release/1-0/C4.puml
!includeurl https://raw.githubusercontent.com/RicardoNiepel/C4-PlantUML/release/1-0/C4_Component.puml
!includeurl https://raw.githubusercontent.com/RicardoNiepel/C4-PlantUML/release/1-0/C4_Container.puml

LAYOUT_TOP_DOWN
LAYOUT_WITH_LEGEND()

Boundary(proc, "Processing") {
    Component(crm, "CRM", "Salesforce?")
    Component(proc_tools, "Internal Processing Tools", "scripts, data curation tools, website, etc.")
}

Boundary(market, "Marketing") {
    Component(ecomm, "eCommerce", "Magento, Shopify")
    Component(market_tools, "Internal Marketing Tools", "scripts, data curation tools, website, etc.")
}

System_Ext(vendors, "Vendors")
ComponentDb(raw_db, "Data Storage", "client base, visits, season tickets, DR etc.")

@enduml

@startuml components
skinparam handwritten true





skinparam defaultTextAlignment center

skinparam wrapWidth 200
skinparam maxMessageSize 150

skinparam rectangle {
    StereotypeFontSize 12
    shadowing false
}

skinparam database {
    StereotypeFontSize 12
    shadowing false
}

skinparam Arrow {
    Color #666666
    FontColor #666666
    FontSize 12
}

skinparam rectangle<<boundary>> {
    Shadowing false
    StereotypeFontSize 0
    FontColor #444444
    BorderColor #444444
    BorderStyle dashed
}






















skinparam defaultTextAlignment center

skinparam wrapWidth 200
skinparam maxMessageSize 150

skinparam rectangle {
    StereotypeFontSize 12
    shadowing false
}

skinparam database {
    StereotypeFontSize 12
    shadowing false
}

skinparam Arrow {
    Color #666666
    FontColor #666666
    FontSize 12
}

skinparam rectangle<<boundary>> {
    Shadowing false
    StereotypeFontSize 0
    FontColor #444444
    BorderColor #444444
    BorderStyle dashed
}






















skinparam rectangle<<person>> {
    StereotypeFontColor #FFFFFF
    FontColor #FFFFFF
    BackgroundColor #08427B
    BorderColor #073B6F
}

skinparam rectangle<<external_person>> {
    StereotypeFontColor #FFFFFF
    FontColor #FFFFFF
    BackgroundColor #686868
    BorderColor #8A8A8A
}

skinparam rectangle<<system>> {
    StereotypeFontColor #FFFFFF
    FontColor #FFFFFF
    BackgroundColor #1168BD
    BorderColor #3C7FC0
}

skinparam rectangle<<external_system>> {
    StereotypeFontColor #FFFFFF
    FontColor #FFFFFF
    BackgroundColor #999999
    BorderColor #8A8A8A
}

skinparam database<<system>> {
    StereotypeFontColor #FFFFFF
    FontColor #FFFFFF
    BackgroundColor #1168BD
    BorderColor #3C7FC0
}

skinparam database<<external_system>> {
    StereotypeFontColor #FFFFFF
    FontColor #FFFFFF
    BackgroundColor #999999
    BorderColor #8A8A8A
}
















skinparam rectangle<<container>> {
    StereotypeFontColor #FFFFFF
    FontColor #FFFFFF
    BackgroundColor #438DD5
    BorderColor #3C7FC0
}

skinparam database<<container>> {
    StereotypeFontColor #FFFFFF
    FontColor #FFFFFF
    BackgroundColor #438DD5
    BorderColor #3C7FC0
}












skinparam rectangle<<component>> {
    StereotypeFontColor #FFFFFF
    FontColor #000000
    BackgroundColor #85BBF0
    BorderColor #78A8D8
}

skinparam database<<component>> {
    StereotypeFontColor #FFFFFF
    FontColor #000000
    BackgroundColor #85BBF0
    BorderColor #78A8D8
}










skinparam defaultTextAlignment center

skinparam wrapWidth 200
skinparam maxMessageSize 150

skinparam rectangle {
    StereotypeFontSize 12
    shadowing false
}

skinparam database {
    StereotypeFontSize 12
    shadowing false
}

skinparam Arrow {
    Color #666666
    FontColor #666666
    FontSize 12
}

skinparam rectangle<<boundary>> {
    Shadowing false
    StereotypeFontSize 0
    FontColor #444444
    BorderColor #444444
    BorderStyle dashed
}






















skinparam rectangle<<person>> {
    StereotypeFontColor #FFFFFF
    FontColor #FFFFFF
    BackgroundColor #08427B
    BorderColor #073B6F
}

skinparam rectangle<<external_person>> {
    StereotypeFontColor #FFFFFF
    FontColor #FFFFFF
    BackgroundColor #686868
    BorderColor #8A8A8A
}

skinparam rectangle<<system>> {
    StereotypeFontColor #FFFFFF
    FontColor #FFFFFF
    BackgroundColor #1168BD
    BorderColor #3C7FC0
}

skinparam rectangle<<external_system>> {
    StereotypeFontColor #FFFFFF
    FontColor #FFFFFF
    BackgroundColor #999999
    BorderColor #8A8A8A
}

skinparam database<<system>> {
    StereotypeFontColor #FFFFFF
    FontColor #FFFFFF
    BackgroundColor #1168BD
    BorderColor #3C7FC0
}

skinparam database<<external_system>> {
    StereotypeFontColor #FFFFFF
    FontColor #FFFFFF
    BackgroundColor #999999
    BorderColor #8A8A8A
}
















skinparam rectangle<<container>> {
    StereotypeFontColor #FFFFFF
    FontColor #FFFFFF
    BackgroundColor #438DD5
    BorderColor #3C7FC0
}

skinparam database<<container>> {
    StereotypeFontColor #FFFFFF
    FontColor #FFFFFF
    BackgroundColor #438DD5
    BorderColor #3C7FC0
}








top to bottom direction
hide stereotype
legend right
|=              |= Type |
|<#08427B>      | person |
|<#686868>      | external person |
|<#1168BD>   | system |
|<#999999>      | external system |
|<#438DD5>   | container |
endlegend

rectangle "==Processing" <<boundary>> as proc {
    rectangle "==CRM\n//<size:12>[Salesforce?]</size>//" <<component>> as crm
    rectangle "==Internal Processing Tools\n//<size:12>[scripts, data curation tools, website, etc.]</size>//" <<component>> as proc_tools
}

rectangle "==Marketing" <<boundary>> as market {
    rectangle "==eCommerce\n//<size:12>[Magento, Shopify]</size>//" <<component>> as ecomm
    rectangle "==Internal Marketing Tools\n//<size:12>[scripts, data curation tools, website, etc.]</size>//" <<component>> as market_tools
}

rectangle "==Vendors" <<external_system>> as vendors
database "==Data Storage\n//<size:12>[client base, visits, season tickets, DR etc.]</size>//" <<component>> as raw_db

@enduml

PlantUML version 1.2021.00(Sun Jan 10 12:25:05 EET 2021)
(GPL source distribution)
Java Runtime: Java(TM) SE Runtime Environment
JVM: Java HotSpot(TM) Client VM
Default Encoding: Cp1251
Language: en
Country: US
--></g></svg>