<?xml version="1.0" encoding="UTF-8" standalone="no"?><svg xmlns="http://www.w3.org/2000/svg" xmlns:xlink="http://www.w3.org/1999/xlink" contentScriptType="application/ecmascript" contentStyleType="text/css" height="633px" preserveAspectRatio="none" style="width:1252px;height:633px;" version="1.1" viewBox="0 0 1252 633" width="1252px" zoomAndPan="magnify"><defs/><g><!--MD5=[cb4dc8b3adc180b38fcdc52e13a5b56b]
cluster cycle1--><polygon fill="#FFFFFF" points="148.5,125,148.5,125.2102,158.4636,124.5857,168.4273,125.1933,178.3909,125.3997,188.3545,124.2866,198.3182,124.9223,208.2818,124.5735,218.2455,124.6165,228.2091,124.9318,238.1727,124.3086,248.1364,125.5536,258.1,124.3697,268.0636,124.8022,278.0273,125.4319,287.9909,124.9142,297.9545,125.0682,307.9182,124.9681,317.8818,125.1785,327.8455,125.2391,337.8091,125.5857,347.7727,125.6711,357.7364,125.6793,367.7,125.2546,377.6636,125.4636,387.6273,125.7022,397.5909,124.2788,407.5545,125.6785,417.5182,124.7035,427.4818,125.5338,437.4455,124.505,447.4091,124.9315,457.3727,125.7416,467.3364,124.9513,477.3,125.1053,487.2636,125.3386,497.2273,125.4162,507.1909,124.9961,517.1545,125.2872,527.1182,124.4276,537.0818,125.2844,547.0455,125.5482,557.0091,125.4445,566.9727,125.613,576.9364,124.5169,586.9,124.3478,596.8636,124.3786,606.8273,124.9411,616.7909,124.8035,626.7545,125.6814,636.7182,124.8253,646.6818,124.6569,656.6455,125.2283,666.6091,124.3332,676.5727,124.4809,686.5364,125.649,696.5,125,696.9357,125,697.2345,135.1304,696.1782,145.2609,696.8192,155.3913,697.0904,165.5217,696.0276,175.6522,696.4041,185.7826,696.626,195.913,697.1518,206.0435,696.4958,216.1739,696.9626,226.3043,695.9462,236.4348,695.8227,246.5652,697.0036,256.6957,695.7831,266.8261,697.009,276.9565,696.7066,287.087,696.2321,297.2174,696.1462,307.3478,696.9588,317.4783,696.2007,327.6087,697.0919,337.7391,695.9473,347.8696,696.5,358,696.5,358.6174,686.5364,358.4843,676.5727,358.245,666.6091,358.0472,656.6455,358.7266,646.6818,358.6136,636.7182,358.1693,626.7545,358.2682,616.7909,357.8697,606.8273,358.7165,596.8636,358.1549,586.9,358.1726,576.9364,357.3916,566.9727,357.5948,557.0091,358.5307,547.0455,358.4298,537.0818,357.9571,527.1182,357.6778,517.1545,357.7811,507.1909,357.3138,497.2273,358.4147,487.2636,358.7396,477.3,358.5264,467.3364,358.6949,457.3727,357.8633,447.4091,358.0872,437.4455,357.6124,427.4818,358.284,417.5182,358.2468,407.5545,358.5524,397.5909,357.7703,387.6273,357.8656,377.6636,358.4435,367.7,358.5673,357.7364,357.4875,347.7727,357.8061,337.8091,358.1493,327.8455,357.3892,317.8818,358.3534,307.9182,358.258,297.9545,357.8992,287.9909,358.1422,278.0273,358.7287,268.0636,357.6871,258.1,358.315,248.1364,358.2856,238.1727,358.1158,228.2091,358.1409,218.2455,358.1135,208.2818,357.3758,198.3182,357.5992,188.3545,357.5385,178.3909,358.0638,168.4273,358.0881,158.4636,358.1617,148.5,358,148.209,358,148.4325,347.8696,148.3798,337.7391,149.0769,327.6087,148.9266,317.4783,148.0145,307.3478,148.4271,297.2174,147.9228,287.087,148.7884,276.9565,149.1085,266.8261,149.0446,256.6957,148.0644,246.5652,148.964,236.4348,147.7572,226.3043,148.7002,216.1739,148.2007,206.0435,148.5967,195.913,148.7403,185.7826,148.9721,175.6522,147.7801,165.5217,148.9755,155.3913,148.6782,145.2609,148.8553,135.1304,148.5,125" style="stroke:#444444;stroke-width:1.0;stroke-dasharray:7.0,7.0;"/><text fill="#444444" font-family="sans-serif" font-size="16" font-weight="bold" lengthAdjust="spacing" textLength="57" x="394" y="143.6094">Cycle-1</text><!--MD5=[095eed00359ffc2bedbadd577a413569]
cluster proc--><polygon fill="#FFFFFF" points="180.5,180,180.5,180.2102,190.5833,179.5857,200.6667,180.1933,210.75,180.3997,220.8333,179.2866,230.9167,179.9223,241,179.5735,251.0833,179.6165,261.1667,179.9318,271.25,179.3086,281.3333,180.5536,291.4167,179.3697,301.5,179.8022,311.5833,180.4319,321.6667,179.9142,331.75,180.0682,341.8333,179.9681,351.9167,180.1785,362,180.2391,372.0833,180.5857,382.1667,180.6711,392.25,180.6793,402.3333,180.2546,412.4167,180.4636,422.5,180.7022,432.5833,179.2788,442.6667,180.6785,452.75,179.7035,462.8333,180.5338,472.9167,179.505,483,179.9315,493.0833,180.7416,503.1667,179.9513,513.25,180.1053,523.3333,180.3386,533.4167,180.4162,543.5,179.9961,553.5833,180.2872,563.6667,179.4276,573.75,180.2844,583.8333,180.5482,593.9167,180.4445,604,180.613,614.0833,179.5169,624.1667,179.3478,634.25,179.3786,644.3333,179.9411,654.4167,179.8035,664.5,180,665.1814,180,664.3253,189.7333,664.1569,199.4667,664.7283,209.2,663.8332,218.9333,663.9809,228.6667,665.149,238.4,664.9357,248.1333,665.2345,257.8667,664.1782,267.6,664.8192,277.3333,665.0904,287.0667,664.0276,296.8,664.4041,306.5333,664.626,316.2667,664.5,326,664.5,326.6518,654.4167,325.9958,644.3333,326.4626,634.25,325.4462,624.1667,325.3227,614.0833,326.5036,604,325.2831,593.9167,326.509,583.8333,326.2066,573.75,325.7321,563.6667,325.6462,553.5833,326.4588,543.5,325.7007,533.4167,326.5919,523.3333,325.4473,513.25,326.6174,503.1667,326.4843,493.0833,326.245,483,326.0472,472.9167,326.7266,462.8333,326.6136,452.75,326.1693,442.6667,326.2682,432.5833,325.8697,422.5,326.7165,412.4167,326.1549,402.3333,326.1726,392.25,325.3916,382.1667,325.5948,372.0833,326.5307,362,326.4298,351.9167,325.9571,341.8333,325.6778,331.75,325.7811,321.6667,325.3138,311.5833,326.4147,301.5,326.7396,291.4167,326.5264,281.3333,326.6949,271.25,325.8633,261.1667,326.0872,251.0833,325.6124,241,326.284,230.9167,326.2468,220.8333,326.5524,210.75,325.7703,200.6667,325.8656,190.5833,326.4435,180.5,326,181.0673,326,179.9875,316.2667,180.3061,306.5333,180.6493,296.8,179.8892,287.0667,180.8534,277.3333,180.758,267.6,180.3992,257.8667,180.6422,248.1333,181.2287,238.4,180.1871,228.6667,180.815,218.9333,180.7856,209.2,180.6158,199.4667,180.6409,189.7333,180.5,180" style="stroke:#444444;stroke-width:1.0;stroke-dasharray:7.0,7.0;"/><text fill="#444444" font-family="sans-serif" font-size="16" font-weight="bold" lengthAdjust="spacing" textLength="220" x="312.5" y="198.6094">Fitness centers management</text><!--MD5=[d25e15907a8736edcd8d824414ad7e83]
cluster cycle2--><polygon fill="#FFFFFF" points="720.5,127.5,720.5,127.7102,730.4245,127.0857,740.3491,127.6933,750.2736,127.8997,760.1981,126.7866,770.1226,127.4223,780.0472,127.0735,789.9717,127.1165,799.8962,127.4318,809.8208,126.8086,819.7453,128.0536,829.6698,126.8697,839.5943,127.3022,849.5189,127.9319,859.4434,127.4142,869.3679,127.5682,879.2925,127.4681,889.217,127.6785,899.1415,127.7391,909.066,128.0857,918.9906,128.1711,928.9151,128.1793,938.8396,127.7546,948.7642,127.9636,958.6887,128.2022,968.6132,126.7788,978.5377,128.1785,988.4623,127.2035,998.3868,128.0338,1008.3113,127.005,1018.2358,127.4315,1028.1604,128.2416,1038.0849,127.4513,1048.0094,127.6053,1057.934,127.8386,1067.8585,127.9162,1077.783,127.4961,1087.7075,127.7872,1097.6321,126.9276,1107.5566,127.7844,1117.4811,128.0482,1127.4057,127.9445,1137.3302,128.113,1147.2547,127.0169,1157.1792,126.8478,1167.1038,126.8786,1177.0283,127.4411,1186.9528,127.3035,1196.8774,128.1814,1206.8019,127.3253,1216.7264,127.1569,1226.6509,127.7283,1236.5755,126.8332,1246.5,127.5,1245.9809,127.5,1247.149,137.413,1246.9357,147.3261,1247.2345,157.2391,1246.1782,167.1522,1246.8192,177.0652,1247.0904,186.9783,1246.0276,196.8913,1246.4041,206.8043,1246.626,216.7174,1247.1518,226.6304,1246.4958,236.5435,1246.9626,246.4565,1245.9462,256.3696,1245.8227,266.2826,1247.0036,276.1957,1245.7831,286.1087,1247.009,296.0217,1246.7066,305.9348,1246.2321,315.8478,1246.1462,325.7609,1246.9588,335.6739,1246.2007,345.587,1246.5,355.5,1246.5,356.0919,1236.5755,354.9473,1226.6509,356.1174,1216.7264,355.9843,1206.8019,355.745,1196.8774,355.5472,1186.9528,356.2266,1177.0283,356.1136,1167.1038,355.6693,1157.1792,355.7682,1147.2547,355.3697,1137.3302,356.2165,1127.4057,355.6549,1117.4811,355.6726,1107.5566,354.8916,1097.6321,355.0948,1087.7075,356.0307,1077.783,355.9298,1067.8585,355.4571,1057.934,355.1778,1048.0094,355.2811,1038.0849,354.8138,1028.1604,355.9147,1018.2358,356.2396,1008.3113,356.0264,998.3868,356.1949,988.4623,355.3633,978.5377,355.5872,968.6132,355.1124,958.6887,355.784,948.7642,355.7468,938.8396,356.0524,928.9151,355.2703,918.9906,355.3656,909.066,355.9435,899.1415,356.0673,889.217,354.9875,879.2925,355.3061,869.3679,355.6493,859.4434,354.8892,849.5189,355.8534,839.5943,355.758,829.6698,355.3992,819.7453,355.6422,809.8208,356.2287,799.8962,355.1871,789.9717,355.815,780.0472,355.7856,770.1226,355.6158,760.1981,355.6409,750.2736,355.6135,740.3491,354.8758,730.4245,355.0992,720.5,355.5,720.0385,355.5,720.5638,345.587,720.5881,335.6739,720.6617,325.7609,720.209,315.8478,720.4325,305.9348,720.3798,296.0217,721.0769,286.1087,720.9266,276.1957,720.0145,266.2826,720.4271,256.3696,719.9228,246.4565,720.7884,236.5435,721.1085,226.6304,721.0446,216.7174,720.0644,206.8043,720.964,196.8913,719.7572,186.9783,720.7002,177.0652,720.2007,167.1522,720.5967,157.2391,720.7403,147.3261,720.9721,137.413,720.5,127.5" style="stroke:#444444;stroke-width:1.0;stroke-dasharray:7.0,7.0;"/><text fill="#444444" font-family="sans-serif" font-size="16" font-weight="bold" lengthAdjust="spacing" textLength="57" x="955" y="146.1094">Cycle-2</text><!--MD5=[2cb4dc563c9785ed7df45b11e7f7d136]
cluster market--><polygon fill="#FFFFFF" points="752.5,182.5,752.5,182.7102,762.5435,182.0857,772.587,182.6933,782.6304,182.8997,792.6739,181.7866,802.7174,182.4223,812.7609,182.0735,822.8043,182.1165,832.8478,182.4318,842.8913,181.8086,852.9348,183.0536,862.9783,181.8697,873.0217,182.3022,883.0652,182.9319,893.1087,182.4142,903.1522,182.5682,913.1957,182.4681,923.2391,182.6785,933.2826,182.7391,943.3261,183.0857,953.3696,183.1711,963.413,183.1793,973.4565,182.7546,983.5,182.9636,993.5435,183.2022,1003.587,181.7788,1013.6304,183.1785,1023.6739,182.2035,1033.7174,183.0338,1043.7609,182.005,1053.8043,182.4315,1063.8478,183.2416,1073.8913,182.4513,1083.9348,182.6053,1093.9783,182.8386,1104.0217,182.9162,1114.0652,182.4961,1124.1087,182.7872,1134.1522,181.9276,1144.1957,182.7844,1154.2391,183.0482,1164.2826,182.9445,1174.3261,183.113,1184.3696,182.0169,1194.413,181.8478,1204.4565,181.8786,1214.5,182.5,1214.4411,182.5,1214.3035,192.5714,1215.1814,202.6429,1214.3253,212.7143,1214.1569,222.7857,1214.7283,232.8571,1213.8332,242.9286,1213.9809,253,1215.149,263.0714,1214.9357,273.1429,1215.2345,283.2143,1214.1782,293.2857,1214.8192,303.3571,1215.0904,313.4286,1214.5,323.5,1214.5,323.0276,1204.4565,323.4041,1194.413,323.626,1184.3696,324.1518,1174.3261,323.4958,1164.2826,323.9626,1154.2391,322.9462,1144.1957,322.8227,1134.1522,324.0036,1124.1087,322.7831,1114.0652,324.009,1104.0217,323.7066,1093.9783,323.2321,1083.9348,323.1462,1073.8913,323.9588,1063.8478,323.2007,1053.8043,324.0919,1043.7609,322.9473,1033.7174,324.1174,1023.6739,323.9843,1013.6304,323.745,1003.587,323.5472,993.5435,324.2266,983.5,324.1136,973.4565,323.6693,963.413,323.7682,953.3696,323.3697,943.3261,324.2165,933.2826,323.6549,923.2391,323.6726,913.1957,322.8916,903.1522,323.0948,893.1087,324.0307,883.0652,323.9298,873.0217,323.4571,862.9783,323.1778,852.9348,323.2811,842.8913,322.8138,832.8478,323.9147,822.8043,324.2396,812.7609,324.0264,802.7174,324.1949,792.6739,323.3633,782.6304,323.5872,772.587,323.1124,762.5435,323.784,752.5,323.5,752.7468,323.5,753.0524,313.4286,752.2703,303.3571,752.3656,293.2857,752.9435,283.2143,753.0673,273.1429,751.9875,263.0714,752.3061,253,752.6493,242.9286,751.8892,232.8571,752.8534,222.7857,752.758,212.7143,752.3992,202.6429,752.6422,192.5714,752.5,182.5" style="stroke:#444444;stroke-width:1.0;stroke-dasharray:7.0,7.0;"/><text fill="#444444" font-family="sans-serif" font-size="16" font-weight="bold" lengthAdjust="spacing" textLength="142" x="912.5" y="201.1094">Market Intelligence</text><!--MD5=[8fe6f0a876ebf8d8478940deb31a5630]
entity mgmt_sys--><polygon fill="#85BBF0" points="477,227,477,227.2102,487.1875,226.5857,497.375,227.1933,507.5625,227.3997,517.75,226.2866,527.9375,226.9223,538.125,226.5735,548.3125,226.6165,558.5,226.9318,568.6875,226.3086,578.875,227.5536,589.0625,226.3697,599.25,226.8022,609.4375,227.4319,619.625,226.9142,629.8125,227.0682,640,227,639.9681,227,640.1785,236.418,640.2391,245.8359,640.5857,255.2539,640.6711,264.6719,640.6793,274.0898,640.2546,283.5078,640.4636,292.9258,640,302.3438,640,303.046,629.8125,301.6226,619.625,303.0223,609.4375,302.0472,599.25,302.8776,589.0625,301.8487,578.875,302.2753,568.6875,303.0854,558.5,302.295,548.3125,302.4491,538.125,302.6824,527.9375,302.76,517.75,302.3398,507.5625,302.631,497.375,301.7713,487.1875,302.6281,477,302.3438,477.5482,302.3438,477.4445,292.9258,477.613,283.5078,476.5169,274.0898,476.3478,264.6719,476.3786,255.2539,476.9411,245.8359,476.8035,236.418,477,227" style="stroke:#78A8D8;stroke-width:1.5;"/><text fill="#000000" font-family="sans-serif" font-size="16" font-weight="bold" lengthAdjust="spacing" textLength="139" x="487" y="253.6094">Multi-regional web</text><text fill="#000000" font-family="sans-serif" font-size="16" font-weight="bold" lengthAdjust="spacing" textLength="62" x="527.5" y="273.7344">solution</text><text fill="#000000" font-family="sans-serif" font-size="12" font-style="italic" lengthAdjust="spacing" textLength="95" x="511" y="289.707">[AWS hosted site]</text><!--MD5=[cff3e0fa100c0287cbc891a56da0abd3]
entity proc_tools--><polygon fill="#85BBF0" points="223.5,229.5,223.5,229.7102,233.4091,229.0857,243.3182,229.6933,253.2273,229.8997,263.1364,228.7866,273.0455,229.4223,282.9545,229.0735,292.8636,229.1165,302.7727,229.4318,312.6818,228.8086,322.5909,230.0536,332.5,228.8697,342.4091,229.3022,352.3182,229.9319,362.2273,229.4142,372.1364,229.5682,382.0455,229.4681,391.9545,229.6785,401.8636,229.7391,411.7727,230.0857,421.6818,230.1711,431.5909,230.1793,441.5,229.5,441.7546,229.5,441.9636,239.5446,442.2022,249.5893,440.7788,259.6339,442.1785,269.6786,441.2035,279.7232,442.0338,289.7679,441.5,299.8125,441.5,299.3175,431.5909,299.744,421.6818,300.5541,411.7727,299.7638,401.8636,299.9178,391.9545,300.1511,382.0455,300.2287,372.1364,299.8086,362.2273,300.0997,352.3182,299.2401,342.4091,300.0969,332.5,300.3607,322.5909,300.257,312.6818,300.4255,302.7727,299.3294,292.8636,299.1603,282.9545,299.1911,273.0455,299.7536,263.1364,299.616,253.2273,300.4939,243.3182,299.6378,233.4091,299.4694,223.5,299.8125,223.7283,299.8125,222.8332,289.7679,222.9809,279.7232,224.149,269.6786,223.9357,259.6339,224.2345,249.5893,223.1782,239.5446,223.5,229.5" style="stroke:#78A8D8;stroke-width:1.5;"/><text fill="#000000" font-family="sans-serif" font-size="16" font-weight="bold" lengthAdjust="spacing" textLength="195" x="235" y="256.1094">Internal Processing Tools</text><text fill="#000000" font-family="sans-serif" font-size="12" font-style="italic" lengthAdjust="spacing" textLength="195" x="233.5" y="272.082">[scripts, data curation tools, website,</text><text fill="#000000" font-family="sans-serif" font-size="12" font-style="italic" lengthAdjust="spacing" textLength="22" x="321.5" y="287.1758">etc.]</text><!--MD5=[6512644249e464bea9195b7540b25915]
entity crm--><polygon fill="#85BBF0" points="1048.5,237,1048.5,237.2102,1058.6429,236.5857,1068.7857,237.1933,1078.9286,237.3997,1089.0714,236.2866,1099.2143,236.9223,1109.3571,236.5735,1119.5,236.6165,1129.6429,236.9318,1139.7857,236.3086,1149.9286,237.5536,1160.0714,236.3697,1170.2143,236.8022,1180.3571,237.4319,1190.5,237,1190.4142,237,1190.5682,246.2031,1190.4681,255.4063,1190.6785,264.6094,1190.7391,273.8125,1191.0857,283.0156,1190.5,292.2188,1190.5,292.8898,1180.3571,292.898,1170.2143,292.4734,1160.0714,292.6823,1149.9286,292.921,1139.7857,291.4976,1129.6429,292.8973,1119.5,291.9222,1109.3571,292.7526,1099.2143,291.7237,1089.0714,292.1503,1078.9286,292.9604,1068.7857,292.17,1058.6429,292.3241,1048.5,292.2188,1048.8386,292.2188,1048.9162,283.0156,1048.4961,273.8125,1048.7872,264.6094,1047.9276,255.4063,1048.7844,246.2031,1048.5,237" style="stroke:#78A8D8;stroke-width:1.5;"/><text fill="#000000" font-family="sans-serif" font-size="16" font-weight="bold" lengthAdjust="spacing" textLength="37" x="1101" y="263.6094">CRM</text><text fill="#000000" font-family="sans-serif" font-size="12" font-style="italic" lengthAdjust="spacing" textLength="122" x="1058.5" y="279.582">[Salesforce, Pipedrive]</text><!--MD5=[6b31b7f24c8339db3ae68e76c8ade109]
entity market_tools--><polygon fill="#85BBF0" points="795.5,229.5,795.5,229.7102,805.4091,229.0857,815.3182,229.6933,825.2273,229.8997,835.1364,228.7866,845.0455,229.4223,854.9545,229.0735,864.8636,229.1165,874.7727,229.4318,884.6818,228.8086,894.5909,230.0536,904.5,228.8697,914.4091,229.3022,924.3182,229.9319,934.2273,229.4142,944.1364,229.5682,954.0455,229.4681,963.9545,229.6785,973.8636,229.7391,983.7727,230.0857,993.6818,230.1711,1003.5909,230.1793,1013.5,229.5,1013.7546,229.5,1013.9636,239.5446,1014.2022,249.5893,1012.7788,259.6339,1014.1785,269.6786,1013.2035,279.7232,1014.0338,289.7679,1013.5,299.8125,1013.5,299.3175,1003.5909,299.744,993.6818,300.5541,983.7727,299.7638,973.8636,299.9178,963.9545,300.1511,954.0455,300.2287,944.1364,299.8086,934.2273,300.0997,924.3182,299.2401,914.4091,300.0969,904.5,300.3607,894.5909,300.257,884.6818,300.4255,874.7727,299.3294,864.8636,299.1603,854.9545,299.1911,845.0455,299.7536,835.1364,299.616,825.2273,300.4939,815.3182,299.6378,805.4091,299.4694,795.5,299.8125,795.7283,299.8125,794.8332,289.7679,794.9809,279.7232,796.149,269.6786,795.9357,259.6339,796.2345,249.5893,795.1782,239.5446,795.5,229.5" style="stroke:#78A8D8;stroke-width:1.5;"/><text fill="#000000" font-family="sans-serif" font-size="16" font-weight="bold" lengthAdjust="spacing" textLength="183" x="813" y="256.1094">Internal Marketing Tools</text><text fill="#000000" font-family="sans-serif" font-size="12" font-style="italic" lengthAdjust="spacing" textLength="195" x="805.5" y="272.082">[scripts, data curation tools, website,</text><text fill="#000000" font-family="sans-serif" font-size="12" font-style="italic" lengthAdjust="spacing" textLength="22" x="893.5" y="287.1758">etc.]</text><!--MD5=[b7f422c762e89d882fd5b8adba7d9089]
entity ml_admin--><polygon fill="#08427B" points="7,244.5,7,244.7102,16.6154,244.0857,26.2308,244.6933,35.8462,244.8997,45.4615,243.7866,55.0769,244.4223,64.6923,244.0735,74.3077,244.1165,83.9231,244.4318,93.5385,243.8086,103.1538,245.0536,112.7692,243.8697,122.3846,244.3022,132,244.5,132.144,244.5,131.9714,252.525,132.0227,260.55,131.9894,268.575,132.0595,276.6,132,284.625,132,284.8641,122.3846,285.2107,112.7692,285.2961,103.1538,285.3043,93.5385,284.8796,83.9231,285.0886,74.3077,285.3272,64.6923,283.9038,55.0769,285.3035,45.4615,284.3285,35.8462,285.1588,26.2308,284.13,16.6154,284.5565,7,284.625,7.2472,284.625,6.9838,276.6,7.0351,268.575,7.1129,260.55,7.1387,252.525,7,244.5" style="stroke:#073B6F;stroke-width:1.5;"/><text fill="#FFFFFF" font-family="sans-serif" font-size="16" font-weight="bold" lengthAdjust="spacing" textLength="105" x="17" y="271.1094">Data Analysts</text><!--MD5=[0050c6625e3b42e2857ba4d8ed699679]
entity operator--><polygon fill="#08427B" points="515,7,515,7.2102,524.6667,6.5857,534.3333,7.1933,544,7.3997,553.6667,6.2866,563.3333,6.9223,573,6.5735,582.6667,6.6165,592.3333,6.9318,602,7,601.7695,7,602.1845,15.025,601.7899,23.05,601.9341,31.075,602.144,39.1,602,47.125,602,47.0392,592.3333,47.1932,582.6667,47.0931,573,47.3035,563.3333,47.3641,553.6667,47.7107,544,47.7961,534.3333,47.8043,524.6667,47.3796,515,47.125,515.1545,47.125,515.2341,39.1,514.7596,31.075,515.2262,23.05,514.9012,15.025,515,7" style="stroke:#073B6F;stroke-width:1.5;"/><text fill="#FFFFFF" font-family="sans-serif" font-size="16" font-weight="bold" lengthAdjust="spacing" textLength="67" x="525" y="33.6094">Operator</text><!--MD5=[55f2968de154b8cc740615bf6e5af92f]
entity owner--><polygon fill="#08427B" points="710.5,7,710.5,7.2102,720.5,6.5857,730.5,7.1933,740.5,7.3997,750.5,6.2866,760.5,6.9223,770.5,6.5735,780.5,7,780.3722,7,780.4773,15.025,780.2695,23.05,780.6845,31.075,780.2899,39.1,780.5,47.125,780.5,46.9272,770.5,47.5569,760.5,47.0392,750.5,47.1932,740.5,47.0931,730.5,47.3035,720.5,47.3641,710.5,47.125,710.6952,47.125,710.7237,39.1,710.7264,31.075,710.5849,23.05,710.6545,15.025,710.5,7" style="stroke:#073B6F;stroke-width:1.5;"/><text fill="#FFFFFF" font-family="sans-serif" font-size="16" font-weight="bold" lengthAdjust="spacing" textLength="50" x="720.5" y="33.6094">Owner</text><!--MD5=[7ce3a4e336439a2e943227980734751e]
entity raw_db--><path d="M85.5,415 L85.5,415 L85.5316,415.0879 L88.6565,413.6704 L91.9665,412.7683 L95.2163,411.6984 L98.2678,410.0766 L101.5938,409.2188 L101.5901,409.1844 L104.8727,408.6748 L108.1739,408.3383 L111.4882,408.1222 L114.7577,407.4914 L118.0898,407.4414 L118.1053,407.687 L121.8543,406.9236 L125.6484,406.8771 L129.448,406.9182 L133.2156,406.4502 L137,406.25 L137.0012,406.2803 L140.7815,406.0913 L144.5671,406.0402 L148.3502,405.9226 L152.1381,405.932 L155.9102,405.5273 L155.9169,405.8255 L159.2162,405.7549 L162.5111,405.492 L165.8124,405.5107 L169.1141,405.5425 L172.4063,405.1563 L172.4031,404.8357 L175.6279,405.4265 L178.8425,404.962 L182.0648,405.2997 L185.2791,404.8113 L188.5,405 L188.5,405 L188.4997,404.9696 L191.7219,405.3608 L194.9373,405.0408 L198.1567,405.1405 L201.3765,405.2755 L204.5938,405.1563 L204.5979,405.3412 L207.8929,405.2287 L211.1951,405.4323 L214.4857,405.1246 L217.7935,405.5795 L221.0898,405.5273 L221.0991,405.7708 L224.8794,405.8693 L228.6643,406.0887 L232.4277,405.7464 L236.2069,405.8158 L240,406.25 L239.9826,405.9744 L243.7804,406.4622 L247.5586,406.6394 L251.3651,407.2671 L255.1232,407.1256 L258.9102,407.4414 L258.8938,407.2898 L262.2202,407.8977 L265.4768,407.8577 L268.7831,408.2784 L272.1379,409.15 L275.4063,409.2188 L275.4717,409.401 L278.7354,410.6822 L281.7954,411.3967 L285.1105,412.821 L288.37,414.0907 L291.5,415 L290.2403,415 L291.2444,424.8854 L291.836,434.7708 L293.238,444.6563 L291.4888,454.5417 L292.7335,464.4271 L291.5,474.3125 L291.5,474.3125 L291.4168,474.0809 L288.1795,475.1855 L285.1382,476.8356 L281.736,477.4814 L278.7015,479.1504 L275.4063,480.0938 L275.4161,480.1851 L272.0943,480.3308 L268.791,480.6484 L265.5304,481.3629 L262.1951,481.3834 L258.9102,481.8711 L258.9267,482.1336 L255.1127,481.8642 L251.3633,482.6215 L247.5776,482.8008 L243.7889,482.9329 L240,483.0625 L240.0008,483.0835 L236.2303,483.5297 L232.4464,483.6241 L228.6568,483.5713 L224.8764,483.7597 L221.0898,483.7852 L221.0885,483.7273 L217.7978,484.1777 L214.493,484.0024 L211.1939,484.0845 L207.8869,483.8117 L204.5938,484.1563 L204.592,483.9762 L201.3773,484.4234 L198.1581,484.4097 L194.9373,484.2309 L191.7174,484.1381 L188.5,484.3125 L188.5,484.3125 L188.4991,484.2152 L185.2783,483.9763 L182.0643,484.4343 L178.8469,484.5474 L175.6273,484.4214 L172.4063,484.1563 L172.4132,484.465 L169.1057,484.0213 L165.8087,484.0466 L162.5047,483.7614 L159.2122,483.9856 L155.9102,483.7852 L155.9143,483.8947 L152.1375,483.886 L148.3422,483.3941 L144.5618,483.2919 L140.7896,483.404 L137,483.0625 L137.0159,483.3142 L133.2036,482.5969 L129.4305,482.4999 L125.6581,482.4139 L121.8548,481.8384 L118.0898,481.8711 L118.1067,482.0273 L114.8029,481.6296 L111.4866,481.1156 L108.199,480.8675 L104.9277,480.7712 L101.5938,480.0938 L101.5467,479.9629 L98.4223,479.0693 L95.1992,477.9007 L91.9549,476.6734 L88.7399,475.5277 L85.5,474.3125 L85.8026,474.3125 L83.8356,464.4271 L84.4312,454.5417 L84.2692,444.6563 L85.6702,434.7708 L85.735,424.8854 L85.5,415 " fill="#85BBF0" style="stroke:#78A8D8;stroke-width:1.5;"/><path d="M85.5,415 L85.5,415 L85.5316,415.0879 L88.6565,415.9829 L91.9665,417.3933 L95.2163,418.6359 L98.2678,419.3266 L101.5938,420.7813 L101.5901,420.7469 L104.8727,420.9483 L108.1739,421.3227 L111.4882,421.8175 L114.7577,421.8976 L118.0898,422.5586 L118.1053,422.8042 L121.8543,422.5173 L125.6484,422.9474 L129.448,423.465 L133.2156,423.4737 L137,423.75 L137.0012,423.7803 L140.7815,423.8803 L144.5671,424.1183 L148.3502,424.2898 L152.1381,424.5882 L155.9102,424.4727 L155.9169,424.7708 L159.2162,424.8487 L162.5111,424.7342 L165.8124,424.9013 L169.1141,425.0816 L172.4063,424.8438 L172.4031,424.5232 L175.6279,425.1765 L178.8425,424.7745 L182.0648,425.1747 L185.2791,424.7488 L188.5,425 L188.5,425 L188.4997,424.9696 L191.7219,425.2983 L194.9373,424.9158 L198.1567,424.953 L201.3765,425.0255 L204.5938,424.8438 L204.5979,425.0287 L207.8929,424.7678 L211.1951,424.8229 L214.4857,424.3668 L217.7935,424.6732 L221.0898,424.4727 L221.0991,424.7161 L224.8794,424.5256 L228.6643,424.4559 L232.4277,423.8245 L236.2069,423.6049 L240,423.75 L239.9826,423.4744 L243.7804,423.4856 L247.5586,423.1863 L251.3651,423.3374 L255.1232,422.7194 L258.9102,422.5586 L258.8938,422.407 L262.2202,422.304 L265.4768,421.553 L268.7831,421.2628 L272.1379,421.4235 L275.4063,420.7813 L275.4717,420.9635 L278.7354,419.9322 L281.7954,418.3342 L285.1105,417.446 L288.37,416.4032 L291.5,415 " fill="none" style="stroke:#78A8D8;stroke-width:1.5;"/><text fill="#000000" font-family="sans-serif" font-size="16" font-weight="bold" lengthAdjust="spacing" textLength="107" x="135" y="445.6094">Data Lake/WH</text><text fill="#000000" font-family="sans-serif" font-size="12" font-style="italic" lengthAdjust="spacing" textLength="183" x="95.5" y="461.582">[client base, visits, season tickets,</text><text fill="#000000" font-family="sans-serif" font-size="12" font-style="italic" lengthAdjust="spacing" textLength="43" x="167" y="476.6758">DR etc.]</text><!--MD5=[e1214e77639d3fc329fb898d1c52a510]
link proc to raw_db--><path d="M188.5,326.1006 L188.5934,326.1006 L188.3159,326.3636 L188.5859,326.6266 L188.6776,326.8897 L188.1829,327.1527 L188.5,327.4157 L188.4655,327.4157 L188.3104,327.9453 L188.3296,328.4748 L188.4697,329.0043 L188.1927,329.5338 L188.5,330.0633 L188.7461,330.0633 L188.2199,331.1345 L188.4121,332.2057 L188.692,333.2769 L188.4619,334.3481 L188.5,335.4193 L188.5303,335.4193 L188.4858,339.7972 L188.5793,344.1752 L188.6063,348.5531 L188.7603,352.9311 L188.5,357.3091 L188.7982,357.3091 L188.8019,365.7333 L188.6132,374.1574 L188.706,382.5816 L188.8121,391.0058 L188.5,399.43 " fill="none" style="stroke:#666666;stroke-width:1.0;"/><polygon fill="#666666" points="188.5,404.64,188.564,404.6685,189.1738,402.7839,190.1589,401.0662,191.0217,399.2941,191.4827,397.3434,192.5,395.64,192.4817,395.6217,191.5995,396.3395,190.8096,397.1496,190.0839,398.0239,189.137,398.677,188.5,399.64,188.6305,399.7705,187.5514,398.6914,186.8534,397.9934,186.2018,397.3418,185.2798,396.4198,184.5,395.64,184.5208,395.6492,185.2903,397.4357,186.1544,399.2642,186.9728,401.0724,187.8784,402.9193,188.5,404.64" style="stroke:#666666;stroke-width:1.0;"/><polygon fill="#666666" points="188.5,326.1006,188.564,326.129,187.5738,327.8445,186.9589,329.7267,186.2217,331.5547,185.0827,333.204,184.5,335.1006,184.4817,335.0822,185.1995,334.2,186.0096,333.4102,186.8839,332.6845,187.537,331.7376,188.5,331.1006,188.6305,331.2311,189.1514,331.752,190.0534,332.6539,191.0018,333.6024,191.6798,334.2803,192.5,335.1006,192.5208,335.1098,191.6903,333.2962,190.9544,331.5247,190.1728,329.7329,189.4784,327.9799,188.5,326.1006" style="stroke:#666666;stroke-width:1.0;"/><!--MD5=[ce24bfbd61c7a6ab4f9059d5b331f5ba]
link market to raw_db--><path d="M752.3138,277.1562 L752.389,277.2116 L752.1165,277.1136 L752.2851,277.3402 L752.31,277.4611 L751.8626,277.2345 L752.069,277.4889 L752.0412,277.4684 L751.8166,277.5117 L751.7321,277.6584 L751.745,277.877 L751.4222,277.8478 L751.5695,278.1656 L751.7645,278.3157 L749.4032,280.52 L747.6111,283.1626 L745.8885,285.8587 L743.7617,288.2436 L741.8476,290.7922 L741.8708,290.8117 L739.2959,293.8101 L736.8268,296.8973 L734.3067,299.9417 L731.8839,303.0678 L729.1438,305.9275 L729.3648,306.1277 L727.8984,307.752 L726.2895,309.2471 L724.8893,310.9313 L723.4989,312.6243 L721.7985,314.0366 L721.5675,313.8144 L720.4277,315.8971 L718.5272,317.2481 L717.205,319.1554 L715.2872,320.4898 L713.8576,322.2938 L713.8364,322.2719 L712.39,324.1792 L710.4479,325.5764 L708.7982,327.2746 L707.1732,328.998 L705.371,330.5392 L705.4947,330.6767 L703.5733,332.1527 L701.8634,333.8637 L699.8115,335.1943 L698.2696,337.0923 L696.3886,338.6131 L696.5432,338.8014 L694.6283,340.3144 L692.7902,341.9208 L690.5954,343.0929 L688.6621,344.5834 L686.9604,346.3559 L686.7963,346.1337 L684.98,347.7852 L682.9788,349.1864 L681.2457,350.9507 L679.055,352.095 L677.1362,353.6078 L677.0532,353.4799 L675.1574,355.0132 L672.9068,355.9997 L670.9086,357.375 L669.1572,359.1308 L666.9661,360.2091 L667.0599,360.3785 L665.0309,361.6529 L662.7104,362.4003 L660.7551,363.8078 L658.7203,365.0714 L656.5,366 L656.4149,365.8081 L653.9109,367.1021 L651.379,368.3332 L648.9019,369.6878 L646.2118,370.5623 L643.6407,371.705 L643.7102,371.8985 L640.4815,372.5789 L637.3869,373.6328 L634.4885,375.2323 L631.229,375.8273 L628.2608,377.2328 L628.3265,377.4492 L624.7604,378.3897 L621.1722,379.2569 L617.6341,380.2895 L614.2119,381.7041 L610.6257,382.5781 L610.5908,382.4497 L608.7786,383.3525 L606.7291,383.3821 L604.9494,384.4045 L603.0178,384.8679 L601.0453,385.1807 L601.0721,385.2862 L599.0415,385.7121 L597.107,386.5157 L595.0856,386.978 L593.028,387.2977 L591.0005,387.7358 L591.0275,387.8519 L586.7173,388.6724 L582.5326,390.0319 L578.206,390.7817 L573.9378,391.7824 L569.6504,392.7006 L569.5951,392.436 L565.0517,393.4777 L560.5748,394.8383 L556.0037,395.7477 L551.3988,396.4954 L546.8408,397.4675 L546.8141,397.3268 L542.0218,398.2846 L537.1823,398.9933 L532.4728,400.3867 L527.699,401.4413 L522.8368,402.0311 L522.8771,402.2615 L517.9034,403.2064 L512.8531,403.7133 L507.8837,404.6824 L502.8607,405.3455 L497.9038,406.3862 L497.9239,406.5109 L492.8019,407.3228 L487.7042,408.2852 L482.5293,408.7704 L477.4167,409.6405 L472.3068,410.5278 L472.3362,410.7227 L467.1453,411.5617 L461.8746,411.8716 L456.6966,412.7962 L451.5202,413.7315 L446.3112,414.4505 L446.2732,414.1817 L441.1075,415.3457 L435.8757,416.0435 L430.6276,416.6253 L425.4169,417.472 L420.1823,418.1492 L420.2251,418.4702 L414.9645,418.7052 L409.8019,419.6757 L404.6008,420.3567 L399.3914,420.9757 L394.1852,421.6186 L394.193,421.6807 L389.0715,422.3156 L383.9104,422.6374 L378.8028,423.3829 L373.6794,424.0031 L368.5851,424.8536 L368.5885,424.8818 L363.6023,425.4916 L358.6186,426.1231 L353.6071,426.5224 L348.6314,427.2201 L343.6474,427.849 L343.6296,427.6897 L334.3677,429.6635 L324.9798,430.5146 L315.4788,430.3562 L306.1747,431.9532 L296.82,433.1 " fill="none" style="stroke:#666666;stroke-width:1.0;"/><polygon fill="#666666" points="291.59,433.65,291.6115,433.7167,293.4221,434.1238,295.3588,434.9217,297.2544,435.5924,299.0149,435.8445,300.9625,436.676,300.9462,436.6559,299.993,435.8545,299.1219,435.1547,298.3079,434.5256,297.2973,433.653,296.562,433.1214,296.7055,433.2373,297.1095,432.1093,297.9326,431.3198,298.8068,430.5716,299.3835,429.583,300.1167,428.7209,300.128,428.7406,298.406,429.6975,296.7358,430.7441,295.0406,431.7474,293.393,432.8332,291.59,433.65" style="stroke:#666666;stroke-width:1.0;"/><polygon fill="#666666" points="752.3138,277.1562,752.3485,277.2171,750.5348,278.013,748.9246,279.1656,747.2482,280.2021,745.3536,280.8566,743.761,282.0398,743.7571,282.0142,744.8579,281.7284,745.9785,281.5717,747.1127,281.5047,748.1997,281.1284,749.3529,281.1853,749.5354,281.2132,749.3162,282.2719,749.6296,283.4121,750.008,284.5622,750.0083,285.6545,750.2075,286.7772,750.2297,286.7821,750.6184,284.8507,751.1081,282.9416,751.5491,281.0217,752.0832,279.1222,752.3138,277.1562" style="stroke:#666666;stroke-width:1.0;"/><!--MD5=[626bc011e0b256968b123b95577393f8]
reverse link ml_admin to raw_db--><path d="M85.04,288.74 L85.273,288.8957 L90.1307,296.7351 L96.3543,305.4875 L102.133,313.9426 L106.4492,321.4199 L112.7039,330.1931 L117.8672,338.2368 L123.4649,346.5708 L129.3645,355.1066 L134.2236,362.947 L141.1537,372.1717 L145.3914,379.5965 L151.4208,388.2192 L157.6688,396.9879 L162.74,404.97 " fill="none" style="stroke:#666666;stroke-width:1.0;"/><polygon fill="#666666" points="82.24,284.55,82.309,284.562,82.4414,286.467,82.9783,288.4423,83.3835,290.3948,83.3554,292.2719,83.9272,294.2533,83.9017,294.2483,84.0069,293.1158,84.2402,292.0087,84.5626,290.9191,84.578,289.7689,85.0234,288.7037,85.0591,288.8847,86.0926,288.7168,87.2304,289.0775,88.381,289.5026,89.4575,289.5526,90.573,289.7999,90.5851,289.8191,88.9007,288.7409,87.2715,287.7503,85.6157,286.7174,84.0107,285.7652,82.24,284.55" style="stroke:#666666;stroke-width:1.0;"/><!--MD5=[23dd8b284d13e1a3ac9eef25009de229]
link owner to mgmt_sys--><path d="M730.2,47.27 L730.4195,47.4443 L723.4283,54.9097 L717.7236,63.3966 L711.6001,71.5509 L704.0987,78.6112 L698.4234,87.1215 L691.7201,94.8155 L685.4259,102.8343 L679.4161,111.0789 L672.4263,118.5454 L667.3872,127.5609 L659.8119,134.5624 L653.9244,142.9042 L648.2428,151.4095 L641.3632,158.9634 L635.1849,167.0743 L628.7412,174.9744 L622.6219,183.1321 L616.3461,191.1655 L610.3688,199.4361 L604.1189,207.49 L597.7884,215.48 L590.74,222.9 " fill="none" style="stroke:#666666;stroke-width:1.0;"/><polygon fill="#666666" points="587.62,226.83,587.6525,226.8921,589.3006,225.7933,591.1393,225.0583,592.9159,224.2048,594.4883,222.9618,596.3434,222.258,596.3404,222.2323,595.2031,222.2473,594.081,222.392,592.9693,222.6269,591.8215,222.551,590.7242,222.9104,590.9076,222.9316,590.3851,221.7623,590.3978,220.6551,590.4759,219.5555,590.174,218.4118,590.0719,217.2912,590.094,217.2969,589.5712,219.1963,589.1488,221.1216,588.678,223.0343,588.2995,224.9709,587.62,226.83" style="stroke:#666666;stroke-width:1.0;"/><text fill="#666666" font-family="sans-serif" font-size="12" lengthAdjust="spacing" textLength="148" x="705.5" y="90.457">manages, gets operational</text><text fill="#666666" font-family="sans-serif" font-size="12" lengthAdjust="spacing" textLength="41" x="759" y="105.5508">metrics</text><!--MD5=[f5a49411620176b7f4bff4641d9924bf]
link owner to crm--><path d="M780.89,30.92 L780.901,31.0128 L783.1767,31.0111 L785.5168,31.5533 L787.836,31.9184 L790.0861,31.7012 L792.4318,32.29 L792.4272,32.2558 L794.9599,32.4471 L797.516,32.8109 L800.0882,33.2947 L802.6047,33.3652 L805.1993,34.0146 L805.2365,34.2578 L807.9266,34.1612 L810.7253,34.7748 L813.5373,35.475 L816.2722,35.6711 L819.0476,36.1323 L819.0528,36.1622 L822.0021,36.6282 L824.9748,37.2303 L827.9362,37.7667 L830.9193,38.4284 L833.8319,38.6817 L833.8886,38.9745 L837.0044,39.582 L840.0835,40.0007 L843.2162,40.6958 L846.3515,41.4039 L849.4071,41.7015 L849.339,41.3883 L852.7155,42.7019 L855.8677,42.9842 L859.1904,44.0505 L862.3375,44.3095 L865.6285,45.2302 L865.6213,45.2006 L869.0511,46.3656 L872.3124,46.8396 L875.6732,47.7214 L879.0422,48.6374 L882.3511,49.3064 L882.3998,49.4849 L885.7664,50.2372 L889.2163,51.2945 L892.5314,51.8584 L896.0475,53.1582 L899.43,53.9688 L899.5012,54.2017 L902.9458,55.2151 L906.4258,56.3441 L909.7414,56.9357 L913.1775,57.9212 L916.7203,59.2558 L916.6307,58.9946 L920.1832,60.4212 L923.6347,61.5534 L927.2326,63.1126 L930.5806,63.9427 L934.0771,65.2062 L934.0223,65.0639 L937.5692,66.6314 L940.882,67.5906 L944.3613,68.9823 L948.0035,70.7973 L951.3555,71.8586 L951.4325,72.0362 L954.8964,73.6366 L958.1207,74.6845 L961.645,76.4244 L965.104,78.0136 L968.4106,79.2514 L968.3183,79.0628 L971.7293,80.8475 L975.11,82.5705 L978.5502,84.4147 L981.7593,85.7873 L985.0975,87.4234 L985.1974,87.6031 L988.2127,89.0062 L991.4208,90.7562 L994.9105,93.0128 L997.8818,94.3366 L1001.2713,96.4131 L1001.3925,96.6041 L1004.4237,98.4598 L1007.4138,100.2509 L1010.4966,102.1879 L1013.7932,104.462 L1016.7871,106.2591 L1016.7087,106.1516 L1019.8848,108.6197 L1022.5274,110.357 L1025.7766,112.9253 L1028.6843,115.0257 L1031.5,117 L1031.5723,117.0814 L1034.2697,119.4634 L1037.2259,122.1369 L1039.9483,124.547 L1042.5729,126.8471 L1045.2787,129.2385 L1045.3668,129.3188 L1047.7503,131.9601 L1050.543,134.9741 L1052.873,137.5666 L1055.3933,140.3325 L1057.8511,143.0414 L1057.6362,142.8773 L1059.9832,145.911 L1062.5889,149.1423 L1064.8285,152.094 L1066.9367,154.9453 L1069.2271,157.9358 L1069.1074,157.8572 L1071.1836,160.9849 L1073.0478,163.9735 L1075.4946,167.3447 L1077.6531,170.5266 L1079.4162,173.4488 L1079.619,173.5655 L1081.4864,176.7346 L1082.9684,179.6819 L1084.8571,182.8633 L1086.4767,185.8898 L1088.4284,189.1075 L1088.5408,189.165 L1090.095,192.2238 L1091.7849,195.352 L1093.0445,198.26 L1094.6511,201.3457 L1096.2733,204.4392 L1096.4523,204.5216 L1097.8398,207.451 L1098.7413,210.1567 L1100.2074,213.1223 L1101.6834,216.0924 L1102.9606,218.971 L1102.7101,218.8663 L1104.2134,221.6833 L1105.2821,224.3188 L1106.2429,226.9091 L1107.4504,229.6026 L1108.5,232.23 " fill="none" style="stroke:#666666;stroke-width:1.0;"/><polygon fill="#666666" points="1110.37,237,1110.44,237.0033,1110.3241,235.0259,1110.6184,233.0678,1110.7792,231.1034,1110.5006,229.1184,1110.8302,227.1619,1110.8065,227.1515,1110.245,228.1406,1109.8031,229.1821,1109.4443,230.2603,1108.799,231.2125,1108.555,232.3411,1108.6292,232.51,1107.4347,231.6937,1106.4568,231.3706,1105.5054,231.1078,1104.4002,230.4947,1103.3759,230.0659,1103.3919,230.082,1104.7672,231.4451,1106.2154,232.8818,1107.6285,234.283,1109.1086,235.7518,1110.37,237" style="stroke:#666666;stroke-width:1.0;"/><text fill="#666666" font-family="sans-serif" font-size="12" lengthAdjust="spacing" textLength="141" x="1019.5" y="90.457">manages, gets marketing</text><text fill="#666666" font-family="sans-serif" font-size="12" lengthAdjust="spacing" textLength="41" x="1071" y="105.5508">metrics</text><!--MD5=[d774afe5bbe5864e287be372f0deacae]
link operator to mgmt_sys--><path d="M558.5,47.27 L558.7802,47.27 L557.9476,57.5282 L558.7577,67.7865 L559.0329,78.0447 L557.5488,88.3029 L558.3964,98.5612 L557.9313,108.8194 L557.9887,119.0776 L558.4091,129.3359 L557.5782,139.5941 L559.2382,149.8524 L557.6596,160.1106 L558.2363,170.3688 L559.0759,180.6271 L558.3856,190.8853 L558.591,201.1435 L558.4574,211.4018 L558.5,221.66 " fill="none" style="stroke:#666666;stroke-width:1.0;"/><polygon fill="#666666" points="558.5,226.83,558.564,226.8585,559.1738,224.9739,560.1589,223.2562,561.0217,221.4841,561.4827,219.5334,562.5,217.83,562.4817,217.8117,561.5995,218.5295,560.8096,219.3396,560.0839,220.2139,559.137,220.867,558.5,221.83,558.6305,221.9605,557.5514,220.8814,556.8534,220.1834,556.2018,219.5318,555.2798,218.6098,554.5,217.83,554.5208,217.8392,555.2903,219.6257,556.1544,221.4542,556.9728,223.2624,557.8784,225.1093,558.5,226.83" style="stroke:#666666;stroke-width:1.0;"/><text fill="#666666" font-family="sans-serif" font-size="12" lengthAdjust="spacing" textLength="28" x="559.5" y="97.957">uses</text><polygon fill="#DDDDDD" points="1061.5,498.3125,1061.5,498.5227,1071.75,497.8982,1082,498.5058,1092.25,498.7122,1102.5,497.5991,1112.75,498.2348,1123,497.886,1133.25,497.929,1143.5,498.2443,1153.75,497.6211,1164,498.8661,1174.25,497.6822,1184.5,498.1147,1194.75,498.7444,1205,498.2267,1215.25,498.3807,1225.5,498.3125,1225.4959,498.3027,1226.2299,498.6604,1226.9447,498.9719,1227.696,499.3715,1228.414,499.6907,1229.0355,499.777,1229.2447,499.8636,1229.4068,500.5166,1229.7641,501.2503,1230.1305,501.9879,1229.985,502.5134,1230.5,503.3125,1231.1785,503.3125,1230.2035,513.2813,1231.0338,523.25,1230.005,533.2188,1230.4315,543.1875,1231.2416,553.1563,1230.4513,563.125,1230.6053,573.0938,1230.8386,583.0625,1230.9162,593.0313,1230.4961,603,1230.5,612.9688,1230.5885,613.0054,1230.0308,613.6028,1230.0018,614.4192,1229.7901,615.16,1229.4653,615.8539,1229.0355,616.5043,1229.1137,616.6931,1228.2668,616.6484,1227.5381,616.8892,1226.8349,617.1916,1226.1996,617.6577,1225.5,617.9688,1225.5,617.7722,1215.25,618.6502,1205,617.7941,1194.75,617.6257,1184.5,618.197,1174.25,617.3019,1164,617.4496,1153.75,618.6177,1143.5,618.4044,1133.25,618.7032,1123,617.647,1112.75,618.2879,1102.5,618.5592,1092.25,617.4963,1082,617.8729,1071.75,618.0947,1061.5,617.9688,1061.5831,618.1695,1060.7924,617.6746,1060.1448,617.5254,1059.308,616.9195,1058.5852,616.5886,1057.9645,616.5043,1058.1196,616.5685,1057.4508,615.7057,1057.5354,615.155,1057.1494,614.4093,1056.7104,613.6417,1056.5,612.9688,1056.1462,612.9688,1056.9588,603,1056.2007,593.0313,1057.0919,583.0625,1055.9473,573.0938,1057.1174,563.125,1056.9843,553.1563,1056.745,543.1875,1056.5472,533.2188,1057.2266,523.25,1057.1136,513.2813,1056.5,503.3125,1056.5521,503.3341,1056.8755,502.6396,1057.0457,501.8817,1057.5993,501.2826,1057.7193,500.5038,1057.9645,499.777,1057.9865,499.8301,1058.594,499.2967,1059.327,499.0664,1060.1535,499.0617,1060.8477,498.7377,1061.5,498.3125" style="stroke:#000000;stroke-width:1.0;"/><text fill="#000000" font-family="sans-serif" font-size="14" font-weight="bold" lengthAdjust="spacing" textLength="0" x="1118.5" y="519.8457"/><text fill="#000000" font-family="sans-serif" font-size="14" font-weight="bold" lengthAdjust="spacing" textLength="33" x="1122.5" y="519.8457">Type</text><polygon fill="#08427B" points="1062.5,522.9219,1062.5,523.1321,1071.8333,522.5076,1081.1667,523.1152,1090.5,523.3216,1099.8333,522.2085,1109.1667,522.8442,1118.5,522.9219,1118.3578,522.9219,1118.3722,526.4438,1118.4773,529.9656,1118.2695,533.4875,1118.6845,537.0094,1118.5,540.5313,1118.5,539.901,1109.1667,540.3335,1099.8333,540.9632,1090.5,540.4455,1081.1667,540.5995,1071.8333,540.4993,1062.5,540.5313,1062.5595,540.5313,1062.5797,537.0094,1062.6952,533.4875,1062.7237,529.9656,1062.7264,526.4438,1062.5,522.9219" style="stroke:none;stroke-width:1.0;"/><text fill="#000000" font-family="sans-serif" font-size="14" lengthAdjust="spacing" textLength="0" x="1086.5" y="537.4551"/><text fill="#000000" font-family="sans-serif" font-size="14" lengthAdjust="spacing" textLength="44" x="1122.5" y="537.4551">person</text><polygon fill="#686868" points="1062.5,540.5313,1062.5,540.7414,1071.8333,540.1169,1081.1667,540.7245,1090.5,540.9309,1099.8333,539.8179,1109.1667,540.4535,1118.5,540.5313,1118.3578,540.5313,1118.3722,544.0531,1118.4773,547.575,1118.2695,551.0969,1118.6845,554.6188,1118.5,558.1406,1118.5,557.5103,1109.1667,557.9429,1099.8333,558.5726,1090.5,558.0548,1081.1667,558.2089,1071.8333,558.1087,1062.5,558.1406,1062.5595,558.1406,1062.5797,554.6188,1062.6952,551.0969,1062.7237,547.575,1062.7264,544.0531,1062.5,540.5313" style="stroke:none;stroke-width:1.0;"/><text fill="#000000" font-family="sans-serif" font-size="14" lengthAdjust="spacing" textLength="0" x="1086.5" y="555.0645"/><text fill="#000000" font-family="sans-serif" font-size="14" lengthAdjust="spacing" textLength="98" x="1122.5" y="555.0645">external person</text><polygon fill="#1168BD" points="1062.5,558.1406,1062.5,558.3508,1071.8333,557.7263,1081.1667,558.3339,1090.5,558.5403,1099.8333,557.4272,1109.1667,558.0629,1118.5,558.1406,1118.3578,558.1406,1118.3722,561.6625,1118.4773,565.1844,1118.2695,568.7063,1118.6845,572.2281,1118.5,575.75,1118.5,575.1197,1109.1667,575.5522,1099.8333,576.1819,1090.5,575.6642,1081.1667,575.8182,1071.8333,575.7181,1062.5,575.75,1062.5595,575.75,1062.5797,572.2281,1062.6952,568.7063,1062.7237,565.1844,1062.7264,561.6625,1062.5,558.1406" style="stroke:none;stroke-width:1.0;"/><text fill="#000000" font-family="sans-serif" font-size="14" lengthAdjust="spacing" textLength="0" x="1074.5" y="572.6738"/><text fill="#000000" font-family="sans-serif" font-size="14" lengthAdjust="spacing" textLength="44" x="1122.5" y="572.6738">system</text><polygon fill="#999999" points="1062.5,575.75,1062.5,575.9602,1071.8333,575.3357,1081.1667,575.9433,1090.5,576.1497,1099.8333,575.0366,1109.1667,575.6723,1118.5,575.75,1118.3578,575.75,1118.3722,579.2719,1118.4773,582.7938,1118.2695,586.3156,1118.6845,589.8375,1118.5,593.3594,1118.5,592.7291,1109.1667,593.1616,1099.8333,593.7913,1090.5,593.2736,1081.1667,593.4276,1071.8333,593.3274,1062.5,593.3594,1062.5595,593.3594,1062.5797,589.8375,1062.6952,586.3156,1062.7237,582.7938,1062.7264,579.2719,1062.5,575.75" style="stroke:none;stroke-width:1.0;"/><text fill="#000000" font-family="sans-serif" font-size="14" lengthAdjust="spacing" textLength="0" x="1086.5" y="590.2832"/><text fill="#000000" font-family="sans-serif" font-size="14" lengthAdjust="spacing" textLength="98" x="1122.5" y="590.2832">external system</text><polygon fill="#438DD5" points="1062.5,593.3594,1062.5,593.5696,1071.8333,592.9451,1081.1667,593.5527,1090.5,593.7591,1099.8333,592.646,1109.1667,593.2817,1118.5,593.3594,1118.3578,593.3594,1118.3722,596.8813,1118.4773,600.4031,1118.2695,603.925,1118.6845,607.4469,1118.5,610.9688,1118.5,610.3385,1109.1667,610.771,1099.8333,611.4007,1090.5,610.883,1081.1667,611.037,1071.8333,610.9368,1062.5,610.9688,1062.5595,610.9688,1062.5797,607.4469,1062.6952,603.925,1062.7237,600.4031,1062.7264,596.8813,1062.5,593.3594" style="stroke:none;stroke-width:1.0;"/><text fill="#000000" font-family="sans-serif" font-size="14" lengthAdjust="spacing" textLength="0" x="1074.5" y="607.8926"/><text fill="#000000" font-family="sans-serif" font-size="14" lengthAdjust="spacing" textLength="59" x="1122.5" y="607.8926">container</text><path d="M1062.5,505.3125 L1062.5,505.5927 L1072.625,504.7601 L1082.75,505.5702 L1092.875,505.8454 L1103,504.3613 L1113.125,505.2089 L1123.25,504.7438 L1133.375,504.8012 L1143.5,505.2216 L1153.625,504.3907 L1163.75,506.0507 L1173.875,504.4721 L1184,505.0488 L1194.125,505.8884 L1204.25,505.1981 L1214.375,505.4035 L1224.5,505.3125 " fill="none" style="stroke:#000000;stroke-width:1.0;"/><path d="M1062.5,522.9219 L1062.5,523.2021 L1072.625,522.3694 L1082.75,523.1796 L1092.875,523.4548 L1103,521.9707 L1113.125,522.8183 L1123.25,522.3532 L1133.375,522.4105 L1143.5,522.831 L1153.625,522 L1163.75,523.6601 L1173.875,522.0815 L1184,522.6582 L1194.125,523.4978 L1204.25,522.8075 L1214.375,523.0129 L1224.5,522.9219 " fill="none" style="stroke:#000000;stroke-width:1.0;"/><path d="M1062.5,540.5313 L1062.5,540.8115 L1072.625,539.9788 L1082.75,540.789 L1092.875,541.0642 L1103,539.5801 L1113.125,540.4276 L1123.25,539.9626 L1133.375,540.0199 L1143.5,540.4404 L1153.625,539.6094 L1163.75,541.2694 L1173.875,539.6909 L1184,540.2676 L1194.125,541.1072 L1204.25,540.4169 L1214.375,540.6222 L1224.5,540.5313 " fill="none" style="stroke:#000000;stroke-width:1.0;"/><path d="M1062.5,558.1406 L1062.5,558.4209 L1072.625,557.5882 L1082.75,558.3983 L1092.875,558.6735 L1103,557.1894 L1113.125,558.037 L1123.25,557.572 L1133.375,557.6293 L1143.5,558.0497 L1153.625,557.2188 L1163.75,558.8788 L1173.875,557.3003 L1184,557.8769 L1194.125,558.7166 L1204.25,558.0263 L1214.375,558.2316 L1224.5,558.1406 " fill="none" style="stroke:#000000;stroke-width:1.0;"/><path d="M1062.5,575.75 L1062.5,576.0302 L1072.625,575.1976 L1082.75,576.0077 L1092.875,576.2829 L1103,574.7988 L1113.125,575.6464 L1123.25,575.1813 L1133.375,575.2387 L1143.5,575.6591 L1153.625,574.8282 L1163.75,576.4882 L1173.875,574.9096 L1184,575.4863 L1194.125,576.3259 L1204.25,575.6356 L1214.375,575.841 L1224.5,575.75 " fill="none" style="stroke:#000000;stroke-width:1.0;"/><path d="M1062.5,593.3594 L1062.5,593.6396 L1072.625,592.8069 L1082.75,593.6171 L1092.875,593.8923 L1103,592.4082 L1113.125,593.2558 L1123.25,592.7907 L1133.375,592.848 L1143.5,593.2685 L1153.625,592.4375 L1163.75,594.0976 L1173.875,592.519 L1184,593.0957 L1194.125,593.9353 L1204.25,593.245 L1214.375,593.4504 L1224.5,593.3594 " fill="none" style="stroke:#000000;stroke-width:1.0;"/><path d="M1062.5,610.9688 L1062.5,611.249 L1072.625,610.4163 L1082.75,611.2265 L1092.875,611.5017 L1103,610.0176 L1113.125,610.8651 L1123.25,610.4001 L1133.375,610.4574 L1143.5,610.8779 L1153.625,610.0469 L1163.75,611.7069 L1173.875,610.1284 L1184,610.7051 L1194.125,611.5447 L1204.25,610.8544 L1214.375,611.0597 L1224.5,610.9688 " fill="none" style="stroke:#000000;stroke-width:1.0;"/><path d="M1062.5,505.3125 L1062.7802,505.3125 L1061.9476,514.9176 L1062.7577,524.5227 L1063.0329,534.1278 L1061.5488,543.733 L1062.3964,553.3381 L1061.9313,562.9432 L1061.9887,572.5483 L1062.4091,582.1534 L1061.5782,591.7585 L1063.2382,601.3636 L1062.5,610.9688 " fill="none" style="stroke:#000000;stroke-width:1.0;"/><path d="M1118.5,505.3125 L1118.7802,505.3125 L1117.9476,514.9176 L1118.7577,524.5227 L1119.0329,534.1278 L1117.5488,543.733 L1118.3964,553.3381 L1117.9313,562.9432 L1117.9887,572.5483 L1118.4091,582.1534 L1117.5782,591.7585 L1119.2382,601.3636 L1118.5,610.9688 " fill="none" style="stroke:#000000;stroke-width:1.0;"/><path d="M1224.5,505.3125 L1224.7802,505.3125 L1223.9476,514.9176 L1224.7577,524.5227 L1225.0329,534.1278 L1223.5488,543.733 L1224.3964,553.3381 L1223.9313,562.9432 L1223.9887,572.5483 L1224.4091,582.1534 L1223.5782,591.7585 L1225.2382,601.3636 L1224.5,610.9688 " fill="none" style="stroke:#000000;stroke-width:1.0;"/><!--MD5=[f01dde6acfbfc817950b2ff0854cdfc3]
@startuml components
skinparam handwritten true
!includeurl https://raw.githubusercontent.com/RicardoNiepel/C4-PlantUML/release/1-0/C4.puml
!includeurl https://raw.githubusercontent.com/RicardoNiepel/C4-PlantUML/release/1-0/C4_Component.puml
!includeurl https://raw.githubusercontent.com/RicardoNiepel/C4-PlantUML/release/1-0/C4_Container.puml

LAYOUT_TOP_DOWN
LAYOUT_WITH_LEGEND()

Person(ml_admin, "Data Analysts")
Person(operator, "Operator")
Person(owner, "Owner")

Boundary(cycle1, "Cycle-1") {
    Boundary(proc, "Fitness centers management") {
        Component(mgmt_sys, "Multi-regional web solution", "AWS hosted site")  
        Component(proc_tools, "Internal Processing Tools", "scripts, data curation tools, website, etc.")
    }
}

Boundary(cycle2, "Cycle-2") {
    Boundary(market, "Market Intelligence") {
        Component(crm, "CRM", "Salesforce, Pipedrive")
        Component(market_tools, "Internal Marketing Tools", "scripts, data curation tools, website, etc.")
    }
}

ComponentDb(raw_db, "Data Lake/WH", "client base, visits, season tickets, DR etc.")

proc <- -> raw_db
market <- -> raw_db
ml_admin <- - raw_db
owner - -> mgmt_sys: manages, gets operational metrics
owner - -> crm: manages, gets marketing metrics
operator - -> mgmt_sys: uses

@enduml

@startuml components
skinparam handwritten true





skinparam defaultTextAlignment center

skinparam wrapWidth 200
skinparam maxMessageSize 150

skinparam rectangle {
    StereotypeFontSize 12
    shadowing false
}

skinparam database {
    StereotypeFontSize 12
    shadowing false
}

skinparam Arrow {
    Color #666666
    FontColor #666666
    FontSize 12
}

skinparam rectangle<<boundary>> {
    Shadowing false
    StereotypeFontSize 0
    FontColor #444444
    BorderColor #444444
    BorderStyle dashed
}






















skinparam defaultTextAlignment center

skinparam wrapWidth 200
skinparam maxMessageSize 150

skinparam rectangle {
    StereotypeFontSize 12
    shadowing false
}

skinparam database {
    StereotypeFontSize 12
    shadowing false
}

skinparam Arrow {
    Color #666666
    FontColor #666666
    FontSize 12
}

skinparam rectangle<<boundary>> {
    Shadowing false
    StereotypeFontSize 0
    FontColor #444444
    BorderColor #444444
    BorderStyle dashed
}






















skinparam rectangle<<person>> {
    StereotypeFontColor #FFFFFF
    FontColor #FFFFFF
    BackgroundColor #08427B
    BorderColor #073B6F
}

skinparam rectangle<<external_person>> {
    StereotypeFontColor #FFFFFF
    FontColor #FFFFFF
    BackgroundColor #686868
    BorderColor #8A8A8A
}

skinparam rectangle<<system>> {
    StereotypeFontColor #FFFFFF
    FontColor #FFFFFF
    BackgroundColor #1168BD
    BorderColor #3C7FC0
}

skinparam rectangle<<external_system>> {
    StereotypeFontColor #FFFFFF
    FontColor #FFFFFF
    BackgroundColor #999999
    BorderColor #8A8A8A
}

skinparam database<<system>> {
    StereotypeFontColor #FFFFFF
    FontColor #FFFFFF
    BackgroundColor #1168BD
    BorderColor #3C7FC0
}

skinparam database<<external_system>> {
    StereotypeFontColor #FFFFFF
    FontColor #FFFFFF
    BackgroundColor #999999
    BorderColor #8A8A8A
}
















skinparam rectangle<<container>> {
    StereotypeFontColor #FFFFFF
    FontColor #FFFFFF
    BackgroundColor #438DD5
    BorderColor #3C7FC0
}

skinparam database<<container>> {
    StereotypeFontColor #FFFFFF
    FontColor #FFFFFF
    BackgroundColor #438DD5
    BorderColor #3C7FC0
}












skinparam rectangle<<component>> {
    StereotypeFontColor #FFFFFF
    FontColor #000000
    BackgroundColor #85BBF0
    BorderColor #78A8D8
}

skinparam database<<component>> {
    StereotypeFontColor #FFFFFF
    FontColor #000000
    BackgroundColor #85BBF0
    BorderColor #78A8D8
}










skinparam defaultTextAlignment center

skinparam wrapWidth 200
skinparam maxMessageSize 150

skinparam rectangle {
    StereotypeFontSize 12
    shadowing false
}

skinparam database {
    StereotypeFontSize 12
    shadowing false
}

skinparam Arrow {
    Color #666666
    FontColor #666666
    FontSize 12
}

skinparam rectangle<<boundary>> {
    Shadowing false
    StereotypeFontSize 0
    FontColor #444444
    BorderColor #444444
    BorderStyle dashed
}






















skinparam rectangle<<person>> {
    StereotypeFontColor #FFFFFF
    FontColor #FFFFFF
    BackgroundColor #08427B
    BorderColor #073B6F
}

skinparam rectangle<<external_person>> {
    StereotypeFontColor #FFFFFF
    FontColor #FFFFFF
    BackgroundColor #686868
    BorderColor #8A8A8A
}

skinparam rectangle<<system>> {
    StereotypeFontColor #FFFFFF
    FontColor #FFFFFF
    BackgroundColor #1168BD
    BorderColor #3C7FC0
}

skinparam rectangle<<external_system>> {
    StereotypeFontColor #FFFFFF
    FontColor #FFFFFF
    BackgroundColor #999999
    BorderColor #8A8A8A
}

skinparam database<<system>> {
    StereotypeFontColor #FFFFFF
    FontColor #FFFFFF
    BackgroundColor #1168BD
    BorderColor #3C7FC0
}

skinparam database<<external_system>> {
    StereotypeFontColor #FFFFFF
    FontColor #FFFFFF
    BackgroundColor #999999
    BorderColor #8A8A8A
}
















skinparam rectangle<<container>> {
    StereotypeFontColor #FFFFFF
    FontColor #FFFFFF
    BackgroundColor #438DD5
    BorderColor #3C7FC0
}

skinparam database<<container>> {
    StereotypeFontColor #FFFFFF
    FontColor #FFFFFF
    BackgroundColor #438DD5
    BorderColor #3C7FC0
}








top to bottom direction
hide stereotype
legend right
|=              |= Type |
|<#08427B>      | person |
|<#686868>      | external person |
|<#1168BD>   | system |
|<#999999>      | external system |
|<#438DD5>   | container |
endlegend

rectangle "==Data Analysts" <<person>> as ml_admin
rectangle "==Operator" <<person>> as operator
rectangle "==Owner" <<person>> as owner

rectangle "==Cycle-1" <<boundary>> as cycle1 {
    rectangle "==Fitness centers management" <<boundary>> as proc {
        rectangle "==Multi-regional web solution\n//<size:12>[AWS hosted site]</size>//" <<component>> as mgmt_sys  
        rectangle "==Internal Processing Tools\n//<size:12>[scripts, data curation tools, website, etc.]</size>//" <<component>> as proc_tools
    }
}

rectangle "==Cycle-2" <<boundary>> as cycle2 {
    rectangle "==Market Intelligence" <<boundary>> as market {
        rectangle "==CRM\n//<size:12>[Salesforce, Pipedrive]</size>//" <<component>> as crm
        rectangle "==Internal Marketing Tools\n//<size:12>[scripts, data curation tools, website, etc.]</size>//" <<component>> as market_tools
    }
}

database "==Data Lake/WH\n//<size:12>[client base, visits, season tickets, DR etc.]</size>//" <<component>> as raw_db

proc <- -> raw_db
market <- -> raw_db
ml_admin <- - raw_db
owner - -> mgmt_sys: manages, gets operational metrics
owner - -> crm: manages, gets marketing metrics
operator - -> mgmt_sys: uses

@enduml

PlantUML version 1.2021.00(Sun Jan 10 12:25:05 EET 2021)
(GPL source distribution)
Java Runtime: Java(TM) SE Runtime Environment
JVM: Java HotSpot(TM) Client VM
Default Encoding: Cp1251
Language: en
Country: US
--></g></svg>