<?xml version="1.0" encoding="UTF-8" standalone="no"?><svg xmlns="http://www.w3.org/2000/svg" xmlns:xlink="http://www.w3.org/1999/xlink" contentScriptType="application/ecmascript" contentStyleType="text/css" height="562px" preserveAspectRatio="none" style="width:1151px;height:562px;" version="1.1" viewBox="0 0 1151 562" width="1151px" zoomAndPan="magnify"><defs/><g><!--MD5=[095eed00359ffc2bedbadd577a413569]
cluster proc--><polygon fill="#FFFFFF" points="159.5,133,159.5,133.2102,169.5833,132.5857,179.6667,133.1933,189.75,133.3997,199.8333,132.2866,209.9167,132.9223,220,132.5735,230.0833,132.6165,240.1667,132.9318,250.25,132.3086,260.3333,133.5536,270.4167,132.3697,280.5,132.8022,290.5833,133.4319,300.6667,132.9142,310.75,133.0682,320.8333,132.9681,330.9167,133.1785,341,133.2391,351.0833,133.5857,361.1667,133.6711,371.25,133.6793,381.3333,133.2546,391.4167,133.4636,401.5,133.7022,411.5833,132.2788,421.6667,133.6785,431.75,132.7035,441.8333,133.5338,451.9167,132.505,462,132.9315,472.0833,133.7416,482.1667,132.9513,492.25,133.1053,502.3333,133.3386,512.4167,133.4162,522.5,132.9961,532.5833,133.2872,542.6667,132.4276,552.75,133.2844,562.8333,133.5482,572.9167,133.4445,583,133.613,593.0833,132.5169,603.1667,132.3478,613.25,132.3786,623.3333,132.9411,633.4167,132.8035,643.5,133,644.1814,133,643.3253,142.7333,643.1569,152.4667,643.7283,162.2,642.8332,171.9333,642.9809,181.6667,644.149,191.4,643.9357,201.1333,644.2345,210.8667,643.1782,220.6,643.8192,230.3333,644.0904,240.0667,643.0276,249.8,643.4041,259.5333,643.626,269.2667,643.5,279,643.5,279.6518,633.4167,278.9958,623.3333,279.4626,613.25,278.4462,603.1667,278.3227,593.0833,279.5036,583,278.2831,572.9167,279.509,562.8333,279.2066,552.75,278.7321,542.6667,278.6462,532.5833,279.4588,522.5,278.7007,512.4167,279.5919,502.3333,278.4473,492.25,279.6174,482.1667,279.4843,472.0833,279.245,462,279.0472,451.9167,279.7266,441.8333,279.6136,431.75,279.1693,421.6667,279.2682,411.5833,278.8697,401.5,279.7165,391.4167,279.1549,381.3333,279.1726,371.25,278.3916,361.1667,278.5948,351.0833,279.5307,341,279.4298,330.9167,278.9571,320.8333,278.6778,310.75,278.7811,300.6667,278.3138,290.5833,279.4147,280.5,279.7396,270.4167,279.5264,260.3333,279.6949,250.25,278.8633,240.1667,279.0872,230.0833,278.6124,220,279.284,209.9167,279.2468,199.8333,279.5524,189.75,278.7703,179.6667,278.8656,169.5833,279.4435,159.5,279,160.0673,279,158.9875,269.2667,159.3061,259.5333,159.6493,249.8,158.8892,240.0667,159.8534,230.3333,159.758,220.6,159.3992,210.8667,159.6422,201.1333,160.2287,191.4,159.1871,181.6667,159.815,171.9333,159.7856,162.2,159.6158,152.4667,159.6409,142.7333,159.5,133" style="stroke:#444444;stroke-width:1.0;stroke-dasharray:7.0,7.0;"/><text fill="#444444" font-family="sans-serif" font-size="16" font-weight="bold" lengthAdjust="spacing" textLength="220" x="291.5" y="151.6094">Fitness centers management</text><!--MD5=[2cb4dc563c9785ed7df45b11e7f7d136]
cluster market--><polygon fill="#FFFFFF" points="683.5,135.5,683.5,135.7102,693.5435,135.0857,703.587,135.6933,713.6304,135.8997,723.6739,134.7866,733.7174,135.4223,743.7609,135.0735,753.8043,135.1165,763.8478,135.4318,773.8913,134.8086,783.9348,136.0536,793.9783,134.8697,804.0217,135.3022,814.0652,135.9319,824.1087,135.4142,834.1522,135.5682,844.1957,135.4681,854.2391,135.6785,864.2826,135.7391,874.3261,136.0857,884.3696,136.1711,894.413,136.1793,904.4565,135.7546,914.5,135.9636,924.5435,136.2022,934.587,134.7788,944.6304,136.1785,954.6739,135.2035,964.7174,136.0338,974.7609,135.005,984.8043,135.4315,994.8478,136.2416,1004.8913,135.4513,1014.9348,135.6053,1024.9783,135.8386,1035.0217,135.9162,1045.0652,135.4961,1055.1087,135.7872,1065.1522,134.9276,1075.1957,135.7844,1085.2391,136.0482,1095.2826,135.9445,1105.3261,136.113,1115.3696,135.0169,1125.413,134.8478,1135.4565,134.8786,1145.5,135.5,1145.4411,135.5,1145.3035,145.5714,1146.1814,155.6429,1145.3253,165.7143,1145.1569,175.7857,1145.7283,185.8571,1144.8332,195.9286,1144.9809,206,1146.149,216.0714,1145.9357,226.1429,1146.2345,236.2143,1145.1782,246.2857,1145.8192,256.3571,1146.0904,266.4286,1145.5,276.5,1145.5,276.0276,1135.4565,276.4041,1125.413,276.626,1115.3696,277.1518,1105.3261,276.4958,1095.2826,276.9626,1085.2391,275.9462,1075.1957,275.8227,1065.1522,277.0036,1055.1087,275.7831,1045.0652,277.009,1035.0217,276.7066,1024.9783,276.2321,1014.9348,276.1462,1004.8913,276.9588,994.8478,276.2007,984.8043,277.0919,974.7609,275.9473,964.7174,277.1174,954.6739,276.9843,944.6304,276.745,934.587,276.5472,924.5435,277.2266,914.5,277.1136,904.4565,276.6693,894.413,276.7682,884.3696,276.3697,874.3261,277.2165,864.2826,276.6549,854.2391,276.6726,844.1957,275.8916,834.1522,276.0948,824.1087,277.0307,814.0652,276.9298,804.0217,276.4571,793.9783,276.1778,783.9348,276.2811,773.8913,275.8138,763.8478,276.9147,753.8043,277.2396,743.7609,277.0264,733.7174,277.1949,723.6739,276.3633,713.6304,276.5872,703.587,276.1124,693.5435,276.784,683.5,276.5,683.7468,276.5,684.0524,266.4286,683.2703,256.3571,683.3656,246.2857,683.9435,236.2143,684.0673,226.1429,682.9875,216.0714,683.3061,206,683.6493,195.9286,682.8892,185.8571,683.8534,175.7857,683.758,165.7143,683.3992,155.6429,683.6422,145.5714,683.5,135.5" style="stroke:#444444;stroke-width:1.0;stroke-dasharray:7.0,7.0;"/><text fill="#444444" font-family="sans-serif" font-size="16" font-weight="bold" lengthAdjust="spacing" textLength="142" x="843.5" y="154.1094">Market Intelligence</text><!--MD5=[8fe6f0a876ebf8d8478940deb31a5630]
entity mgmt_sys--><polygon fill="#85BBF0" points="456,180,456,180.2102,466.1875,179.5857,476.375,180.1933,486.5625,180.3997,496.75,179.2866,506.9375,179.9223,517.125,179.5735,527.3125,179.6165,537.5,179.9318,547.6875,179.3086,557.875,180.5536,568.0625,179.3697,578.25,179.8022,588.4375,180.4319,598.625,179.9142,608.8125,180.0682,619,180,618.9681,180,619.1785,189.418,619.2391,198.8359,619.5857,208.2539,619.6711,217.6719,619.6793,227.0898,619.2546,236.5078,619.4636,245.9258,619,255.3438,619,256.046,608.8125,254.6226,598.625,256.0223,588.4375,255.0472,578.25,255.8776,568.0625,254.8487,557.875,255.2753,547.6875,256.0854,537.5,255.295,527.3125,255.4491,517.125,255.6824,506.9375,255.76,496.75,255.3398,486.5625,255.631,476.375,254.7713,466.1875,255.6281,456,255.3438,456.5482,255.3438,456.4445,245.9258,456.613,236.5078,455.5169,227.0898,455.3478,217.6719,455.3786,208.2539,455.9411,198.8359,455.8035,189.418,456,180" style="stroke:#78A8D8;stroke-width:1.5;"/><text fill="#000000" font-family="sans-serif" font-size="16" font-weight="bold" lengthAdjust="spacing" textLength="139" x="466" y="206.6094">Multi-regional web</text><text fill="#000000" font-family="sans-serif" font-size="16" font-weight="bold" lengthAdjust="spacing" textLength="62" x="506.5" y="226.7344">solution</text><text fill="#000000" font-family="sans-serif" font-size="12" font-style="italic" lengthAdjust="spacing" textLength="95" x="490" y="242.707">[AWS hosted site]</text><!--MD5=[cff3e0fa100c0287cbc891a56da0abd3]
entity proc_tools--><polygon fill="#85BBF0" points="202.5,182.5,202.5,182.7102,212.4091,182.0857,222.3182,182.6933,232.2273,182.8997,242.1364,181.7866,252.0455,182.4223,261.9545,182.0735,271.8636,182.1165,281.7727,182.4318,291.6818,181.8086,301.5909,183.0536,311.5,181.8697,321.4091,182.3022,331.3182,182.9319,341.2273,182.4142,351.1364,182.5682,361.0455,182.4681,370.9545,182.6785,380.8636,182.7391,390.7727,183.0857,400.6818,183.1711,410.5909,183.1793,420.5,182.5,420.7546,182.5,420.9636,192.5446,421.2022,202.5893,419.7788,212.6339,421.1785,222.6786,420.2035,232.7232,421.0338,242.7679,420.5,252.8125,420.5,252.3175,410.5909,252.744,400.6818,253.5541,390.7727,252.7638,380.8636,252.9178,370.9545,253.1511,361.0455,253.2287,351.1364,252.8086,341.2273,253.0997,331.3182,252.2401,321.4091,253.0969,311.5,253.3607,301.5909,253.257,291.6818,253.4255,281.7727,252.3294,271.8636,252.1603,261.9545,252.1911,252.0455,252.7536,242.1364,252.616,232.2273,253.4939,222.3182,252.6378,212.4091,252.4694,202.5,252.8125,202.7283,252.8125,201.8332,242.7679,201.9809,232.7232,203.149,222.6786,202.9357,212.6339,203.2345,202.5893,202.1782,192.5446,202.5,182.5" style="stroke:#78A8D8;stroke-width:1.5;"/><text fill="#000000" font-family="sans-serif" font-size="16" font-weight="bold" lengthAdjust="spacing" textLength="195" x="214" y="209.1094">Internal Processing Tools</text><text fill="#000000" font-family="sans-serif" font-size="12" font-style="italic" lengthAdjust="spacing" textLength="195" x="212.5" y="225.082">[scripts, data curation tools, website,</text><text fill="#000000" font-family="sans-serif" font-size="12" font-style="italic" lengthAdjust="spacing" textLength="22" x="300.5" y="240.1758">etc.]</text><!--MD5=[6512644249e464bea9195b7540b25915]
entity crm--><polygon fill="#85BBF0" points="979.5,190,979.5,190.2102,989.6429,189.5857,999.7857,190.1933,1009.9286,190.3997,1020.0714,189.2866,1030.2143,189.9223,1040.3571,189.5735,1050.5,189.6165,1060.6429,189.9318,1070.7857,189.3086,1080.9286,190.5536,1091.0714,189.3697,1101.2143,189.8022,1111.3571,190.4319,1121.5,190,1121.4142,190,1121.5682,199.2031,1121.4681,208.4063,1121.6785,217.6094,1121.7391,226.8125,1122.0857,236.0156,1121.5,245.2188,1121.5,245.8898,1111.3571,245.898,1101.2143,245.4734,1091.0714,245.6823,1080.9286,245.921,1070.7857,244.4976,1060.6429,245.8973,1050.5,244.9222,1040.3571,245.7526,1030.2143,244.7237,1020.0714,245.1503,1009.9286,245.9604,999.7857,245.17,989.6429,245.3241,979.5,245.2188,979.8386,245.2188,979.9162,236.0156,979.4961,226.8125,979.7872,217.6094,978.9276,208.4063,979.7844,199.2031,979.5,190" style="stroke:#78A8D8;stroke-width:1.5;"/><text fill="#000000" font-family="sans-serif" font-size="16" font-weight="bold" lengthAdjust="spacing" textLength="37" x="1032" y="216.6094">CRM</text><text fill="#000000" font-family="sans-serif" font-size="12" font-style="italic" lengthAdjust="spacing" textLength="122" x="989.5" y="232.582">[Salesforce, Pipedrive]</text><!--MD5=[6b31b7f24c8339db3ae68e76c8ade109]
entity market_tools--><polygon fill="#85BBF0" points="726.5,182.5,726.5,182.7102,736.4091,182.0857,746.3182,182.6933,756.2273,182.8997,766.1364,181.7866,776.0455,182.4223,785.9545,182.0735,795.8636,182.1165,805.7727,182.4318,815.6818,181.8086,825.5909,183.0536,835.5,181.8697,845.4091,182.3022,855.3182,182.9319,865.2273,182.4142,875.1364,182.5682,885.0455,182.4681,894.9545,182.6785,904.8636,182.7391,914.7727,183.0857,924.6818,183.1711,934.5909,183.1793,944.5,182.5,944.7546,182.5,944.9636,192.5446,945.2022,202.5893,943.7788,212.6339,945.1785,222.6786,944.2035,232.7232,945.0338,242.7679,944.5,252.8125,944.5,252.3175,934.5909,252.744,924.6818,253.5541,914.7727,252.7638,904.8636,252.9178,894.9545,253.1511,885.0455,253.2287,875.1364,252.8086,865.2273,253.0997,855.3182,252.2401,845.4091,253.0969,835.5,253.3607,825.5909,253.257,815.6818,253.4255,805.7727,252.3294,795.8636,252.1603,785.9545,252.1911,776.0455,252.7536,766.1364,252.616,756.2273,253.4939,746.3182,252.6378,736.4091,252.4694,726.5,252.8125,726.7283,252.8125,725.8332,242.7679,725.9809,232.7232,727.149,222.6786,726.9357,212.6339,727.2345,202.5893,726.1782,192.5446,726.5,182.5" style="stroke:#78A8D8;stroke-width:1.5;"/><text fill="#000000" font-family="sans-serif" font-size="16" font-weight="bold" lengthAdjust="spacing" textLength="183" x="744" y="209.1094">Internal Marketing Tools</text><text fill="#000000" font-family="sans-serif" font-size="12" font-style="italic" lengthAdjust="spacing" textLength="195" x="736.5" y="225.082">[scripts, data curation tools, website,</text><text fill="#000000" font-family="sans-serif" font-size="12" font-style="italic" lengthAdjust="spacing" textLength="22" x="824.5" y="240.1758">etc.]</text><!--MD5=[b7f422c762e89d882fd5b8adba7d9089]
entity ml_admin--><polygon fill="#08427B" points="7,197.5,7,197.7102,16.6154,197.0857,26.2308,197.6933,35.8462,197.8997,45.4615,196.7866,55.0769,197.4223,64.6923,197.0735,74.3077,197.1165,83.9231,197.4318,93.5385,196.8086,103.1538,198.0536,112.7692,196.8697,122.3846,197.3022,132,197.5,132.144,197.5,131.9714,205.525,132.0227,213.55,131.9894,221.575,132.0595,229.6,132,237.625,132,237.8641,122.3846,238.2107,112.7692,238.2961,103.1538,238.3043,93.5385,237.8796,83.9231,238.0886,74.3077,238.3272,64.6923,236.9038,55.0769,238.3035,45.4615,237.3285,35.8462,238.1588,26.2308,237.13,16.6154,237.5565,7,237.625,7.2472,237.625,6.9838,229.6,7.0351,221.575,7.1129,213.55,7.1387,205.525,7,197.5" style="stroke:#073B6F;stroke-width:1.5;"/><text fill="#FFFFFF" font-family="sans-serif" font-size="16" font-weight="bold" lengthAdjust="spacing" textLength="105" x="17" y="224.1094">Data Analysts</text><!--MD5=[0050c6625e3b42e2857ba4d8ed699679]
entity operator--><polygon fill="#08427B" points="494,7,494,7.2102,503.6667,6.5857,513.3333,7.1933,523,7.3997,532.6667,6.2866,542.3333,6.9223,552,6.5735,561.6667,6.6165,571.3333,6.9318,581,7,580.7695,7,581.1845,15.025,580.7899,23.05,580.9341,31.075,581.144,39.1,581,47.125,581,47.0392,571.3333,47.1932,561.6667,47.0931,552,47.3035,542.3333,47.3641,532.6667,47.7107,523,47.7961,513.3333,47.8043,503.6667,47.3796,494,47.125,494.1545,47.125,494.2341,39.1,493.7596,31.075,494.2262,23.05,493.9012,15.025,494,7" style="stroke:#073B6F;stroke-width:1.5;"/><text fill="#FFFFFF" font-family="sans-serif" font-size="16" font-weight="bold" lengthAdjust="spacing" textLength="67" x="504" y="33.6094">Operator</text><!--MD5=[55f2968de154b8cc740615bf6e5af92f]
entity owner--><polygon fill="#08427B" points="689.5,7,689.5,7.2102,699.5,6.5857,709.5,7.1933,719.5,7.3997,729.5,6.2866,739.5,6.9223,749.5,6.5735,759.5,7,759.3722,7,759.4773,15.025,759.2695,23.05,759.6845,31.075,759.2899,39.1,759.5,47.125,759.5,46.9272,749.5,47.5569,739.5,47.0392,729.5,47.1932,719.5,47.0931,709.5,47.3035,699.5,47.3641,689.5,47.125,689.6952,47.125,689.7237,39.1,689.7264,31.075,689.5849,23.05,689.6545,15.025,689.5,7" style="stroke:#073B6F;stroke-width:1.5;"/><text fill="#FFFFFF" font-family="sans-serif" font-size="16" font-weight="bold" lengthAdjust="spacing" textLength="50" x="699.5" y="33.6094">Owner</text><!--MD5=[7ce3a4e336439a2e943227980734751e]
entity raw_db--><path d="M64.5,344 L64.5,344 L64.5316,344.0879 L67.6565,342.6704 L70.9665,341.7683 L74.2163,340.6984 L77.2678,339.0766 L80.5938,338.2188 L80.5901,338.1844 L83.8727,337.6748 L87.1739,337.3383 L90.4882,337.1222 L93.7577,336.4914 L97.0898,336.4414 L97.1053,336.687 L100.8543,335.9236 L104.6484,335.8771 L108.448,335.9182 L112.2156,335.4502 L116,335.25 L116.0012,335.2803 L119.7815,335.0913 L123.5671,335.0402 L127.3502,334.9226 L131.1381,334.932 L134.9102,334.5273 L134.9169,334.8255 L138.2162,334.7549 L141.5111,334.492 L144.8124,334.5107 L148.1141,334.5425 L151.4063,334.1563 L151.4031,333.8357 L154.6279,334.4265 L157.8425,333.962 L161.0648,334.2997 L164.2791,333.8113 L167.5,334 L167.5,334 L167.4997,333.9696 L170.7219,334.3608 L173.9373,334.0408 L177.1567,334.1405 L180.3765,334.2755 L183.5938,334.1563 L183.5979,334.3412 L186.8929,334.2287 L190.1951,334.4323 L193.4857,334.1246 L196.7935,334.5795 L200.0898,334.5273 L200.0991,334.7708 L203.8794,334.8693 L207.6643,335.0887 L211.4277,334.7464 L215.2069,334.8158 L219,335.25 L218.9826,334.9744 L222.7804,335.4622 L226.5586,335.6394 L230.3651,336.2671 L234.1232,336.1256 L237.9102,336.4414 L237.8938,336.2898 L241.2202,336.8977 L244.4768,336.8577 L247.7831,337.2784 L251.1379,338.15 L254.4063,338.2188 L254.4717,338.401 L257.7354,339.6822 L260.7954,340.3967 L264.1105,341.821 L267.37,343.0907 L270.5,344 L269.2403,344 L270.2444,353.8854 L270.836,363.7708 L272.238,373.6563 L270.4888,383.5417 L271.7335,393.4271 L270.5,403.3125 L270.5,403.3125 L270.4168,403.0809 L267.1795,404.1855 L264.1382,405.8356 L260.736,406.4814 L257.7015,408.1504 L254.4063,409.0938 L254.4161,409.1851 L251.0943,409.3308 L247.791,409.6484 L244.5304,410.3629 L241.1951,410.3834 L237.9102,410.8711 L237.9267,411.1336 L234.1127,410.8642 L230.3633,411.6215 L226.5776,411.8008 L222.7889,411.9329 L219,412.0625 L219.0008,412.0835 L215.2303,412.5297 L211.4464,412.6241 L207.6568,412.5713 L203.8764,412.7597 L200.0898,412.7852 L200.0885,412.7273 L196.7978,413.1777 L193.493,413.0024 L190.1939,413.0845 L186.8869,412.8117 L183.5938,413.1563 L183.592,412.9762 L180.3773,413.4234 L177.1581,413.4097 L173.9373,413.2309 L170.7174,413.1381 L167.5,413.3125 L167.5,413.3125 L167.4991,413.2152 L164.2783,412.9763 L161.0643,413.4343 L157.8469,413.5474 L154.6273,413.4214 L151.4063,413.1563 L151.4132,413.465 L148.1057,413.0213 L144.8087,413.0466 L141.5047,412.7614 L138.2122,412.9856 L134.9102,412.7852 L134.9143,412.8947 L131.1375,412.886 L127.3422,412.3941 L123.5618,412.2919 L119.7896,412.404 L116,412.0625 L116.0159,412.3142 L112.2036,411.5969 L108.4305,411.4999 L104.6581,411.4139 L100.8548,410.8384 L97.0898,410.8711 L97.1067,411.0273 L93.8029,410.6296 L90.4866,410.1156 L87.199,409.8675 L83.9277,409.7712 L80.5938,409.0938 L80.5467,408.9629 L77.4223,408.0693 L74.1992,406.9007 L70.9549,405.6734 L67.7399,404.5277 L64.5,403.3125 L64.8026,403.3125 L62.8356,393.4271 L63.4312,383.5417 L63.2692,373.6563 L64.6702,363.7708 L64.735,353.8854 L64.5,344 " fill="#85BBF0" style="stroke:#78A8D8;stroke-width:1.5;"/><path d="M64.5,344 L64.5,344 L64.5316,344.0879 L67.6565,344.9829 L70.9665,346.3933 L74.2163,347.6359 L77.2678,348.3266 L80.5938,349.7813 L80.5901,349.7469 L83.8727,349.9483 L87.1739,350.3227 L90.4882,350.8175 L93.7577,350.8976 L97.0898,351.5586 L97.1053,351.8042 L100.8543,351.5173 L104.6484,351.9474 L108.448,352.465 L112.2156,352.4737 L116,352.75 L116.0012,352.7803 L119.7815,352.8803 L123.5671,353.1183 L127.3502,353.2898 L131.1381,353.5882 L134.9102,353.4727 L134.9169,353.7708 L138.2162,353.8487 L141.5111,353.7342 L144.8124,353.9013 L148.1141,354.0816 L151.4063,353.8438 L151.4031,353.5232 L154.6279,354.1765 L157.8425,353.7745 L161.0648,354.1747 L164.2791,353.7488 L167.5,354 L167.5,354 L167.4997,353.9696 L170.7219,354.2983 L173.9373,353.9158 L177.1567,353.953 L180.3765,354.0255 L183.5938,353.8438 L183.5979,354.0287 L186.8929,353.7678 L190.1951,353.8229 L193.4857,353.3668 L196.7935,353.6732 L200.0898,353.4727 L200.0991,353.7161 L203.8794,353.5256 L207.6643,353.4559 L211.4277,352.8245 L215.2069,352.6049 L219,352.75 L218.9826,352.4744 L222.7804,352.4856 L226.5586,352.1863 L230.3651,352.3374 L234.1232,351.7194 L237.9102,351.5586 L237.8938,351.407 L241.2202,351.304 L244.4768,350.553 L247.7831,350.2628 L251.1379,350.4235 L254.4063,349.7813 L254.4717,349.9635 L257.7354,348.9322 L260.7954,347.3342 L264.1105,346.446 L267.37,345.4032 L270.5,344 " fill="none" style="stroke:#78A8D8;stroke-width:1.5;"/><text fill="#000000" font-family="sans-serif" font-size="16" font-weight="bold" lengthAdjust="spacing" textLength="107" x="114" y="374.6094">Data Lake/WH</text><text fill="#000000" font-family="sans-serif" font-size="12" font-style="italic" lengthAdjust="spacing" textLength="183" x="74.5" y="390.582">[client base, visits, season tickets,</text><text fill="#000000" font-family="sans-serif" font-size="12" font-style="italic" lengthAdjust="spacing" textLength="43" x="146" y="405.6758">DR etc.]</text><!--MD5=[e1214e77639d3fc329fb898d1c52a510]
link proc to raw_db--><path d="M167.5,279.1275 L167.5934,279.1275 L167.3159,279.2395 L167.5859,279.3515 L167.6776,279.4635 L167.1829,279.5755 L167.5,279.6875 L167.4655,279.6875 L167.3104,280.5888 L167.3296,281.4901 L167.4697,282.3913 L167.1927,283.2926 L167.5,284.1938 L167.7461,284.1938 L167.2199,286.0148 L167.4121,287.8358 L167.692,289.6568 L167.4619,291.4778 L167.5,293.2988 L167.5303,293.2988 L167.4858,300.409 L167.5793,307.5193 L167.6063,314.6295 L167.7603,321.7398 L167.5,328.85 " fill="none" style="stroke:#666666;stroke-width:1.0;"/><polygon fill="#666666" points="167.5,333.9,167.564,333.9285,168.1738,332.0439,169.1589,330.3262,170.0217,328.5541,170.4827,326.6034,171.5,324.9,171.4817,324.8817,170.5995,325.5995,169.8096,326.4096,169.0839,327.2839,168.137,327.937,167.5,328.9,167.6305,329.0305,166.5514,327.9514,165.8534,327.2534,165.2018,326.6018,164.2798,325.6798,163.5,324.9,163.5208,324.9092,164.2903,326.6957,165.1544,328.5242,165.9728,330.3324,166.8784,332.1793,167.5,333.9" style="stroke:#666666;stroke-width:1.0;"/><polygon fill="#666666" points="167.5,279.1275,167.564,279.1559,166.5738,280.8714,165.9589,282.7536,165.2217,284.5816,164.0827,286.2309,163.5,288.1275,163.4817,288.1092,164.1995,287.2269,165.0096,286.4371,165.8839,285.7114,166.537,284.7645,167.5,284.1275,167.6305,284.258,168.1514,284.7789,169.0534,285.6809,170.0018,286.6293,170.6798,287.3073,171.5,288.1275,171.5208,288.1367,170.6903,286.3231,169.9544,284.5516,169.1728,282.7598,168.4784,281.0068,167.5,279.1275" style="stroke:#666666;stroke-width:1.0;"/><!--MD5=[ce24bfbd61c7a6ab4f9059d5b331f5ba]
link market to raw_db--><path d="M683.3827,236.6124 L683.4661,236.6546 L683.1526,236.6593 L683.3277,236.9113 L683.3438,237.0828 L682.8366,236.9895 L683.0536,237.2627 L683.0229,237.247 L682.7495,237.4408 L682.631,237.714 L682.6203,238.0424 L682.2383,238.1806 L682.3764,238.5852 L682.5917,238.7043 L680.867,240.735 L679.7709,243.1135 L678.7515,245.5345 L677.2859,247.7086 L676.055,250.0125 L676.0805,250.0289 L674.4642,252.4607 L672.9639,254.9672 L671.4077,257.4377 L669.9584,259.9769 L668.1605,262.292 L668.3966,262.4743 L666.5152,264.918 L664.4815,267.2441 L662.6707,269.7423 L660.8704,272.2486 L658.7391,274.4994 L658.5093,274.2759 L656.7748,276.9518 L654.2837,278.8918 L652.3678,281.3912 L649.8596,283.3146 L647.8368,285.7102 L647.8185,285.6858 L645.5677,287.8314 L642.8891,289.4088 L640.4629,291.3214 L638.0579,293.2623 L635.5,295 L635.587,295.1633 L633.0177,296.3201 L630.597,297.7559 L627.9359,298.7402 L625.6334,300.398 L623.0924,301.608 L623.1864,301.8328 L620.1638,303.0467 L617.1878,304.3721 L613.9949,305.1791 L610.9611,306.3661 L608.068,307.8899 L607.9783,307.6287 L604.5858,309.0572 L601.0923,310.1914 L597.7452,311.7525 L594.1481,312.5846 L590.6996,313.8501 L590.6555,313.7041 L588.8333,314.5194 L586.8228,314.7107 L584.9462,315.3457 L583.2006,316.4149 L581.2217,316.7109 L581.2738,316.8974 L579.3172,317.5817 L577.1986,317.686 L575.2829,318.5168 L573.323,319.1893 L571.2602,319.493 L571.2074,319.2898 L569.1672,319.9925 L567.1098,320.6287 L565.0863,321.3956 L562.9309,321.6542 L560.8491,322.1968 L560.8976,322.3966 L558.6258,322.4828 L556.4476,322.9547 L554.406,323.99 L552.1128,323.988 L550.0227,324.8229 L550.0728,325.0435 L547.8015,325.4222 L545.5132,325.7264 L543.2632,326.199 L541.1017,327.0609 L538.8149,327.3719 L538.7871,327.2418 L536.559,328.1236 L534.1416,328.1206 L531.9394,329.1236 L529.6161,329.5602 L527.2601,329.8442 L527.281,329.9511 L522.4611,330.8083 L517.7164,332.048 L512.9037,332.9421 L508.0627,333.6918 L503.2453,334.5614 L503.266,334.6788 L498.2364,335.3879 L493.3031,336.6419 L488.2608,337.2796 L483.2634,338.1708 L478.2512,338.9788 L478.2084,338.7118 L473.0827,339.6253 L468.0085,340.8604 L462.8613,341.6405 L457.688,342.2574 L452.5509,343.1007 L452.5302,342.959 L447.3101,343.7706 L442.0532,344.3313 L436.8975,345.5816 L431.6917,346.4906 L426.4173,346.9315 L426.4485,347.1634 L421.1997,347.9465 L415.8915,348.289 L410.646,349.0965 L405.359,349.5962 L400.1232,350.4757 L400.1388,350.601 L394.9005,351.237 L389.681,352.0241 L384.4017,352.3316 L379.1706,353.026 L373.9417,353.7377 L373.9644,353.9334 L368.8115,354.5849 L363.5971,354.705 L358.4542,355.4425 L353.3125,356.1908 L348.1457,356.7217 L348.1166,356.4517 L343.135,357.4199 L338.103,357.9198 L333.0583,358.3034 L328.0424,358.9529 L323.0081,359.4321 L323.0406,359.7544 L318.1529,359.782 L313.3397,360.5479 L308.4971,361.0232 L303.6483,361.4364 L298.8019,361.8734 L298.8078,361.9358 L294.2063,362.359 L289.575,362.4679 L284.984,363.002 L280.3811,363.4105 L275.8,364.05 " fill="none" style="stroke:#666666;stroke-width:1.0;"/><polygon fill="#666666" points="270.54,364.53,270.5625,364.5964,272.3614,365.031,274.2921,365.8547,276.1798,366.5516,277.9265,366.832,279.8685,367.6891,279.8519,367.6692,278.9077,366.8564,278.0469,366.144,277.2443,365.5015,276.2415,364.6184,275.519,364.0722,275.6609,364.1902,276.0808,363.0679,276.9151,362.2902,277.7999,361.5545,278.3905,360.5743,279.1359,359.7227,279.147,359.7425,277.4115,360.6749,275.7266,361.6976,274.0173,362.6766,272.3545,363.7389,270.54,364.53" style="stroke:#666666;stroke-width:1.0;"/><polygon fill="#666666" points="683.3827,236.6124,683.4271,236.6667,681.7706,237.7527,680.3742,239.1566,678.893,240.457,677.1334,241.4169,675.7593,242.8481,675.7512,242.8235,676.7893,242.3589,677.8683,242.0183,678.9757,241.7639,679.9852,241.2124,681.1318,241.0771,681.3071,241.1349,681.2865,242.0858,681.7776,243.2055,682.3311,244.3457,682.5214,245.3661,682.9028,246.4496,682.9255,246.4507,682.9881,244.4816,683.1542,242.5176,683.2704,240.5512,683.4818,238.5894,683.3827,236.6124" style="stroke:#666666;stroke-width:1.0;"/><!--MD5=[626bc011e0b256968b123b95577393f8]
reverse link ml_admin to raw_db--><path d="M84.5,242.08 L84.7364,242.2305 L89.3412,250.1234 L95.332,258.8984 L100.8714,267.3861 L104.9266,274.9293 L110.9489,283.7244 L115.8639,291.8147 L121.2195,300.1855 L126.8815,308.7512 L131.4877,316.6451 L138.1955,325.8763 L142.88,333.82 " fill="none" style="stroke:#666666;stroke-width:1.0;"/><polygon fill="#666666" points="81.71,237.69,81.7793,237.7004,81.8662,239.6174,82.3592,241.5954,82.7199,243.5535,82.6458,245.4463,83.1736,247.4295,83.1483,247.4239,83.2795,246.2942,83.5382,245.1927,83.8856,244.1108,83.9274,242.9613,84.3972,241.9065,84.4371,242.0867,85.4563,241.9461,86.5921,242.3316,87.7421,242.7812,88.8093,242.8574,89.9201,243.1301,89.9327,243.149,88.2722,242.0332,86.6689,241.0036,85.0381,239.9325,83.4599,238.9408,81.71,237.69" style="stroke:#666666;stroke-width:1.0;"/><!--MD5=[23dd8b284d13e1a3ac9eef25009de229]
link owner to mgmt_sys--><path d="M705.54,47.11 L705.739,47.3074 L698.0361,53.8898 L691.4996,61.6293 L684.5833,68.992 L676.418,75.1157 L669.9081,82.8815 L662.4663,89.7228 L655.3953,96.9321 L648.5822,104.3971 L640.8806,110.9808 L634.9474,119.3188 L626.7151,125.3759 L620.0128,132.951 L613.4972,140.7112 L605.8955,147.3939 L598.9296,154.7074 L591.7231,161.7822 L584.8107,169.1488 L577.53,176.15 " fill="none" style="stroke:#666666;stroke-width:1.0;"/><polygon fill="#666666" points="573.77,179.94,573.7954,180.0053,575.5555,179.0968,577.4646,178.571,579.3252,177.9206,581.0262,176.8603,582.9481,176.3674,582.948,176.3415,581.8161,176.2298,580.6848,176.2487,579.5539,176.3584,578.4217,176.1552,577.2912,176.3902,577.4758,176.391,577.0766,175.258,577.2162,174.1272,577.4215,172.9967,577.2444,171.8647,577.2684,170.7334,577.2897,170.7415,576.5588,172.571,575.9247,174.4372,575.2439,176.2857,574.6522,178.168,573.77,179.94" style="stroke:#666666;stroke-width:1.0;"/><text fill="#666666" font-family="sans-serif" font-size="12" lengthAdjust="spacing" textLength="148" x="674.5" y="90.457">manages, gets operational</text><text fill="#666666" font-family="sans-serif" font-size="12" lengthAdjust="spacing" textLength="41" x="728" y="105.5508">metrics</text><!--MD5=[f5a49411620176b7f4bff4641d9924bf]
link owner to crm--><path d="M759.71,35.46 L759.7326,35.5506 L763.6811,36.2814 L767.7619,37.5435 L771.7996,38.6326 L775.6956,39.1526 L779.7878,40.4603 L779.7789,40.427 L781.9844,40.8797 L784.2349,41.5006 L786.5169,42.2384 L788.6908,42.5733 L791.016,43.4725 L791.083,43.7093 L793.3184,43.8755 L795.7493,44.733 L798.204,45.6748 L800.52,46.1259 L802.9089,46.8352 L802.9176,46.8642 L805.3972,47.5655 L807.9162,48.3991 L810.4162,49.1689 L812.9526,50.0605 L815.3705,50.555 L815.4603,50.8394 L818.0482,51.6597 L820.5782,52.2965 L823.193,53.2019 L825.8117,54.1198 L828.3046,54.639 L828.2029,54.335 L831.0624,55.8159 L833.587,56.2959 L836.3663,57.5368 L838.8833,57.9942 L841.6152,59.0938 L841.605,59.0651 L844.4438,60.3708 L847.0444,61.0064 L849.7855,62.0374 L852.5385,63.1016 L855.2063,63.9262 L855.2718,64.0993 L857.9607,64.968 L860.7616,66.1324 L863.3814,66.8185 L866.2713,68.218 L868.9816,69.1432 L869.073,69.3691 L871.8284,70.448 L874.6292,71.6391 L877.2193,72.3092 L879.9638,73.3611 L882.8453,74.7515 L882.7354,74.4981 L885.606,75.9288 L888.3528,77.0739 L891.2792,78.6332 L893.899,79.4854 L896.7011,80.7579 L896.6366,80.6197 L899.4943,82.1321 L902.0766,83.0538 L904.8547,84.3956 L907.8245,86.1484 L910.453,87.1692 L910.54,87.3422 L913.3102,88.8254 L915.8094,89.7707 L918.6479,91.3898 L921.4125,92.862 L924.0049,93.9923 L923.9042,93.808 L926.6356,95.4032 L929.3341,96.9381 L932.0973,98.5915 L934.6087,99.7839 L937.2608,101.2339 L937.366,101.4105 L939.7075,102.5559 L942.2521,104.0421 L945.0936,106.0263 L947.3886,107.0938 L950.1245,108.9009 L950.2484,109.0901 L952.6499,110.5975 L955.0095,112.0409 L957.4637,113.6288 L960.1366,115.5508 L962.5,117 L962.4208,116.8931 L964.6455,118.6851 L966.3315,119.7502 L968.63,121.6418 L970.5837,123.0681 L972.4444,124.3689 L972.5146,124.4522 L974.3817,126.0068 L976.5,127.8594 L978.3913,129.4428 L980.1877,130.9136 L982.063,132.4778 L982.1445,132.5648 L983.87,134.1662 L985.9739,136.1714 L987.6498,137.7199 L989.5018,139.4562 L991.296,141.1309 L991.1025,140.942 L992.9246,142.8054 L994.9799,144.8963 L996.7053,146.6653 L998.3125,148.3189 L1000.0838,150.1325 L999.9776,150.0364 L1001.6682,151.8981 L1003.1708,153.5897 L1005.1902,155.7488 L1006.9538,157.6766 L1008.3667,159.2869 L1008.5452,159.4381 L1010.1461,161.3089 L1011.4077,162.8922 L1013.0274,164.7789 L1014.41,166.4648 L1016.0852,168.3984 L1016.1838,168.4773 L1017.5897,170.2415 L1019.1146,172.1009 L1020.262,173.6585 L1021.714,175.4595 L1023.1795,177.2714 L1023.3364,177.3906 L1024.6624,179.1116 L1025.5623,180.509 L1026.9572,182.2824 L1028.3607,184.0624 L1029.59,185.71 " fill="none" style="stroke:#666666;stroke-width:1.0;"/><polygon fill="#666666" points="1032.71,189.97,1032.7784,189.9849,1032.1549,188.0161,1031.9325,186.1349,1031.5795,184.2251,1030.7968,182.2216,1030.6089,180.3479,1030.5833,180.3439,1030.2969,181.4446,1030.1395,182.5651,1030.0719,183.6993,1029.695,184.7861,1029.7513,185.9393,1029.7793,186.1218,1028.6012,185.5602,1027.5047,185.5311,1026.4183,185.5671,1025.2738,185.225,1024.1599,185.0818,1024.1711,185.1015,1025.8646,186.0502,1027.6094,187.0887,1029.3295,188.0839,1031.0969,189.1618,1032.71,189.97" style="stroke:#666666;stroke-width:1.0;"/><text fill="#666666" font-family="sans-serif" font-size="12" lengthAdjust="spacing" textLength="141" x="945.5" y="90.457">manages, gets marketing</text><text fill="#666666" font-family="sans-serif" font-size="12" lengthAdjust="spacing" textLength="41" x="997" y="105.5508">metrics</text><!--MD5=[d774afe5bbe5864e287be372f0deacae]
link operator to mgmt_sys--><path d="M537.5,47.11 L537.7802,47.11 L536.9476,56.9238 L537.7577,66.7377 L538.0329,76.5515 L536.5488,86.3654 L537.3964,96.1792 L536.9313,105.9931 L536.9887,115.8069 L537.4091,125.6208 L536.5782,135.4346 L538.2382,145.2485 L536.6596,155.0623 L537.2363,164.8762 L537.5,174.69 " fill="none" style="stroke:#666666;stroke-width:1.0;"/><polygon fill="#666666" points="537.5,179.94,537.564,179.9685,538.1738,178.0839,539.1589,176.3662,540.0217,174.5941,540.4827,172.6434,541.5,170.94,541.4817,170.9217,540.5995,171.6395,539.8096,172.4496,539.0839,173.3239,538.137,173.977,537.5,174.94,537.6305,175.0705,536.5514,173.9914,535.8534,173.2934,535.2018,172.6418,534.2798,171.7198,533.5,170.94,533.5208,170.9492,534.2903,172.7357,535.1544,174.5642,535.9728,176.3724,536.8784,178.2193,537.5,179.94" style="stroke:#666666;stroke-width:1.0;"/><text fill="#666666" font-family="sans-serif" font-size="12" lengthAdjust="spacing" textLength="28" x="538.5" y="97.957">uses</text><polygon fill="#DDDDDD" points="960.5,427.3125,960.5,427.5227,970.75,426.8982,981,427.5058,991.25,427.7122,1001.5,426.5991,1011.75,427.2348,1022,426.886,1032.25,426.929,1042.5,427.2443,1052.75,426.6211,1063,427.8661,1073.25,426.6822,1083.5,427.1147,1093.75,427.7444,1104,427.2267,1114.25,427.3807,1124.5,427.3125,1124.4959,427.3027,1125.2299,427.6604,1125.9447,427.9719,1126.696,428.3715,1127.414,428.6907,1128.0355,428.777,1128.2447,428.8636,1128.4068,429.5166,1128.7641,430.2503,1129.1305,430.9879,1128.985,431.5134,1129.5,432.3125,1130.1785,432.3125,1129.2035,442.2813,1130.0338,452.25,1129.005,462.2188,1129.4315,472.1875,1130.2416,482.1563,1129.4513,492.125,1129.6053,502.0938,1129.8386,512.0625,1129.9162,522.0313,1129.4961,532,1129.5,541.9688,1129.5885,542.0054,1129.0308,542.6028,1129.0018,543.4192,1128.7901,544.16,1128.4653,544.8539,1128.0355,545.5043,1128.1137,545.6931,1127.2668,545.6484,1126.5381,545.8892,1125.8349,546.1916,1125.1996,546.6577,1124.5,546.9688,1124.5,546.7722,1114.25,547.6502,1104,546.7941,1093.75,546.6257,1083.5,547.197,1073.25,546.3019,1063,546.4496,1052.75,547.6177,1042.5,547.4044,1032.25,547.7032,1022,546.647,1011.75,547.2879,1001.5,547.5592,991.25,546.4963,981,546.8729,970.75,547.0947,960.5,546.9688,960.5831,547.1695,959.7924,546.6746,959.1448,546.5254,958.308,545.9195,957.5852,545.5886,956.9645,545.5043,957.1196,545.5685,956.4508,544.7057,956.5354,544.155,956.1494,543.4093,955.7104,542.6417,955.5,541.9688,955.1462,541.9688,955.9588,532,955.2007,522.0313,956.0919,512.0625,954.9473,502.0938,956.1174,492.125,955.9843,482.1563,955.745,472.1875,955.5472,462.2188,956.2266,452.25,956.1136,442.2813,955.5,432.3125,955.5521,432.3341,955.8755,431.6396,956.0457,430.8817,956.5993,430.2826,956.7193,429.5038,956.9645,428.777,956.9865,428.8301,957.594,428.2967,958.327,428.0664,959.1535,428.0617,959.8477,427.7377,960.5,427.3125" style="stroke:#000000;stroke-width:1.0;"/><text fill="#000000" font-family="sans-serif" font-size="14" font-weight="bold" lengthAdjust="spacing" textLength="0" x="1017.5" y="448.8457"/><text fill="#000000" font-family="sans-serif" font-size="14" font-weight="bold" lengthAdjust="spacing" textLength="33" x="1021.5" y="448.8457">Type</text><polygon fill="#08427B" points="961.5,451.9219,961.5,452.1321,970.8333,451.5076,980.1667,452.1152,989.5,452.3216,998.8333,451.2085,1008.1667,451.8442,1017.5,451.9219,1017.3578,451.9219,1017.3722,455.4438,1017.4773,458.9656,1017.2695,462.4875,1017.6845,466.0094,1017.5,469.5313,1017.5,468.901,1008.1667,469.3335,998.8333,469.9632,989.5,469.4455,980.1667,469.5995,970.8333,469.4993,961.5,469.5313,961.5595,469.5313,961.5797,466.0094,961.6952,462.4875,961.7237,458.9656,961.7264,455.4438,961.5,451.9219" style="stroke:none;stroke-width:1.0;"/><text fill="#000000" font-family="sans-serif" font-size="14" lengthAdjust="spacing" textLength="0" x="985.5" y="466.4551"/><text fill="#000000" font-family="sans-serif" font-size="14" lengthAdjust="spacing" textLength="44" x="1021.5" y="466.4551">person</text><polygon fill="#686868" points="961.5,469.5313,961.5,469.7414,970.8333,469.1169,980.1667,469.7245,989.5,469.9309,998.8333,468.8179,1008.1667,469.4535,1017.5,469.5313,1017.3578,469.5313,1017.3722,473.0531,1017.4773,476.575,1017.2695,480.0969,1017.6845,483.6188,1017.5,487.1406,1017.5,486.5103,1008.1667,486.9429,998.8333,487.5726,989.5,487.0548,980.1667,487.2089,970.8333,487.1087,961.5,487.1406,961.5595,487.1406,961.5797,483.6188,961.6952,480.0969,961.7237,476.575,961.7264,473.0531,961.5,469.5313" style="stroke:none;stroke-width:1.0;"/><text fill="#000000" font-family="sans-serif" font-size="14" lengthAdjust="spacing" textLength="0" x="985.5" y="484.0645"/><text fill="#000000" font-family="sans-serif" font-size="14" lengthAdjust="spacing" textLength="98" x="1021.5" y="484.0645">external person</text><polygon fill="#1168BD" points="961.5,487.1406,961.5,487.3508,970.8333,486.7263,980.1667,487.3339,989.5,487.5403,998.8333,486.4272,1008.1667,487.0629,1017.5,487.1406,1017.3578,487.1406,1017.3722,490.6625,1017.4773,494.1844,1017.2695,497.7063,1017.6845,501.2281,1017.5,504.75,1017.5,504.1197,1008.1667,504.5522,998.8333,505.1819,989.5,504.6642,980.1667,504.8182,970.8333,504.7181,961.5,504.75,961.5595,504.75,961.5797,501.2281,961.6952,497.7063,961.7237,494.1844,961.7264,490.6625,961.5,487.1406" style="stroke:none;stroke-width:1.0;"/><text fill="#000000" font-family="sans-serif" font-size="14" lengthAdjust="spacing" textLength="0" x="973.5" y="501.6738"/><text fill="#000000" font-family="sans-serif" font-size="14" lengthAdjust="spacing" textLength="44" x="1021.5" y="501.6738">system</text><polygon fill="#999999" points="961.5,504.75,961.5,504.9602,970.8333,504.3357,980.1667,504.9433,989.5,505.1497,998.8333,504.0366,1008.1667,504.6723,1017.5,504.75,1017.3578,504.75,1017.3722,508.2719,1017.4773,511.7938,1017.2695,515.3156,1017.6845,518.8375,1017.5,522.3594,1017.5,521.7291,1008.1667,522.1616,998.8333,522.7913,989.5,522.2736,980.1667,522.4276,970.8333,522.3274,961.5,522.3594,961.5595,522.3594,961.5797,518.8375,961.6952,515.3156,961.7237,511.7938,961.7264,508.2719,961.5,504.75" style="stroke:none;stroke-width:1.0;"/><text fill="#000000" font-family="sans-serif" font-size="14" lengthAdjust="spacing" textLength="0" x="985.5" y="519.2832"/><text fill="#000000" font-family="sans-serif" font-size="14" lengthAdjust="spacing" textLength="98" x="1021.5" y="519.2832">external system</text><polygon fill="#438DD5" points="961.5,522.3594,961.5,522.5696,970.8333,521.9451,980.1667,522.5527,989.5,522.7591,998.8333,521.646,1008.1667,522.2817,1017.5,522.3594,1017.3578,522.3594,1017.3722,525.8813,1017.4773,529.4031,1017.2695,532.925,1017.6845,536.4469,1017.5,539.9688,1017.5,539.3385,1008.1667,539.771,998.8333,540.4007,989.5,539.883,980.1667,540.037,970.8333,539.9368,961.5,539.9688,961.5595,539.9688,961.5797,536.4469,961.6952,532.925,961.7237,529.4031,961.7264,525.8813,961.5,522.3594" style="stroke:none;stroke-width:1.0;"/><text fill="#000000" font-family="sans-serif" font-size="14" lengthAdjust="spacing" textLength="0" x="973.5" y="536.8926"/><text fill="#000000" font-family="sans-serif" font-size="14" lengthAdjust="spacing" textLength="59" x="1021.5" y="536.8926">container</text><path d="M961.5,434.3125 L961.5,434.5927 L971.625,433.7601 L981.75,434.5702 L991.875,434.8454 L1002,433.3613 L1012.125,434.2089 L1022.25,433.7438 L1032.375,433.8012 L1042.5,434.2216 L1052.625,433.3907 L1062.75,435.0507 L1072.875,433.4721 L1083,434.0488 L1093.125,434.8884 L1103.25,434.1981 L1113.375,434.4035 L1123.5,434.3125 " fill="none" style="stroke:#000000;stroke-width:1.0;"/><path d="M961.5,451.9219 L961.5,452.2021 L971.625,451.3694 L981.75,452.1796 L991.875,452.4548 L1002,450.9707 L1012.125,451.8183 L1022.25,451.3532 L1032.375,451.4105 L1042.5,451.831 L1052.625,451 L1062.75,452.6601 L1072.875,451.0815 L1083,451.6582 L1093.125,452.4978 L1103.25,451.8075 L1113.375,452.0129 L1123.5,451.9219 " fill="none" style="stroke:#000000;stroke-width:1.0;"/><path d="M961.5,469.5313 L961.5,469.8115 L971.625,468.9788 L981.75,469.789 L991.875,470.0642 L1002,468.5801 L1012.125,469.4276 L1022.25,468.9626 L1032.375,469.0199 L1042.5,469.4404 L1052.625,468.6094 L1062.75,470.2694 L1072.875,468.6909 L1083,469.2676 L1093.125,470.1072 L1103.25,469.4169 L1113.375,469.6222 L1123.5,469.5313 " fill="none" style="stroke:#000000;stroke-width:1.0;"/><path d="M961.5,487.1406 L961.5,487.4209 L971.625,486.5882 L981.75,487.3983 L991.875,487.6735 L1002,486.1894 L1012.125,487.037 L1022.25,486.572 L1032.375,486.6293 L1042.5,487.0497 L1052.625,486.2188 L1062.75,487.8788 L1072.875,486.3003 L1083,486.8769 L1093.125,487.7166 L1103.25,487.0263 L1113.375,487.2316 L1123.5,487.1406 " fill="none" style="stroke:#000000;stroke-width:1.0;"/><path d="M961.5,504.75 L961.5,505.0302 L971.625,504.1976 L981.75,505.0077 L991.875,505.2829 L1002,503.7988 L1012.125,504.6464 L1022.25,504.1813 L1032.375,504.2387 L1042.5,504.6591 L1052.625,503.8282 L1062.75,505.4882 L1072.875,503.9096 L1083,504.4863 L1093.125,505.3259 L1103.25,504.6356 L1113.375,504.841 L1123.5,504.75 " fill="none" style="stroke:#000000;stroke-width:1.0;"/><path d="M961.5,522.3594 L961.5,522.6396 L971.625,521.8069 L981.75,522.6171 L991.875,522.8923 L1002,521.4082 L1012.125,522.2558 L1022.25,521.7907 L1032.375,521.848 L1042.5,522.2685 L1052.625,521.4375 L1062.75,523.0976 L1072.875,521.519 L1083,522.0957 L1093.125,522.9353 L1103.25,522.245 L1113.375,522.4504 L1123.5,522.3594 " fill="none" style="stroke:#000000;stroke-width:1.0;"/><path d="M961.5,539.9688 L961.5,540.249 L971.625,539.4163 L981.75,540.2265 L991.875,540.5017 L1002,539.0176 L1012.125,539.8651 L1022.25,539.4001 L1032.375,539.4574 L1042.5,539.8779 L1052.625,539.0469 L1062.75,540.7069 L1072.875,539.1284 L1083,539.7051 L1093.125,540.5447 L1103.25,539.8544 L1113.375,540.0597 L1123.5,539.9688 " fill="none" style="stroke:#000000;stroke-width:1.0;"/><path d="M961.5,434.3125 L961.7802,434.3125 L960.9476,443.9176 L961.7577,453.5227 L962.0329,463.1278 L960.5488,472.733 L961.3964,482.3381 L960.9313,491.9432 L960.9887,501.5483 L961.4091,511.1534 L960.5782,520.7585 L962.2382,530.3636 L961.5,539.9688 " fill="none" style="stroke:#000000;stroke-width:1.0;"/><path d="M1017.5,434.3125 L1017.7802,434.3125 L1016.9476,443.9176 L1017.7577,453.5227 L1018.0329,463.1278 L1016.5488,472.733 L1017.3964,482.3381 L1016.9313,491.9432 L1016.9887,501.5483 L1017.4091,511.1534 L1016.5782,520.7585 L1018.2382,530.3636 L1017.5,539.9688 " fill="none" style="stroke:#000000;stroke-width:1.0;"/><path d="M1123.5,434.3125 L1123.7802,434.3125 L1122.9476,443.9176 L1123.7577,453.5227 L1124.0329,463.1278 L1122.5488,472.733 L1123.3964,482.3381 L1122.9313,491.9432 L1122.9887,501.5483 L1123.4091,511.1534 L1122.5782,520.7585 L1124.2382,530.3636 L1123.5,539.9688 " fill="none" style="stroke:#000000;stroke-width:1.0;"/><!--MD5=[39dda85b0d261b0a308cbca7c6fb68ef]
@startuml components
skinparam handwritten true
!includeurl https://raw.githubusercontent.com/RicardoNiepel/C4-PlantUML/release/1-0/C4.puml
!includeurl https://raw.githubusercontent.com/RicardoNiepel/C4-PlantUML/release/1-0/C4_Component.puml
!includeurl https://raw.githubusercontent.com/RicardoNiepel/C4-PlantUML/release/1-0/C4_Container.puml

LAYOUT_TOP_DOWN
LAYOUT_WITH_LEGEND()

Person(ml_admin, "Data Analysts")
Person(operator, "Operator")
Person(owner, "Owner")

Boundary(proc, "Fitness centers management") {
    Component(mgmt_sys, "Multi-regional web solution", "AWS hosted site")  
    Component(proc_tools, "Internal Processing Tools", "scripts, data curation tools, website, etc.")
}

Boundary(market, "Market Intelligence") {
    Component(crm, "CRM", "Salesforce, Pipedrive")
    Component(market_tools, "Internal Marketing Tools", "scripts, data curation tools, website, etc.")
}

ComponentDb(raw_db, "Data Lake/WH", "client base, visits, season tickets, DR etc.")

proc <- -> raw_db
market <- -> raw_db
ml_admin <- - raw_db
owner - -> mgmt_sys: manages, gets operational metrics
owner - -> crm: manages, gets marketing metrics
operator - -> mgmt_sys: uses

@enduml

@startuml components
skinparam handwritten true





skinparam defaultTextAlignment center

skinparam wrapWidth 200
skinparam maxMessageSize 150

skinparam rectangle {
    StereotypeFontSize 12
    shadowing false
}

skinparam database {
    StereotypeFontSize 12
    shadowing false
}

skinparam Arrow {
    Color #666666
    FontColor #666666
    FontSize 12
}

skinparam rectangle<<boundary>> {
    Shadowing false
    StereotypeFontSize 0
    FontColor #444444
    BorderColor #444444
    BorderStyle dashed
}






















skinparam defaultTextAlignment center

skinparam wrapWidth 200
skinparam maxMessageSize 150

skinparam rectangle {
    StereotypeFontSize 12
    shadowing false
}

skinparam database {
    StereotypeFontSize 12
    shadowing false
}

skinparam Arrow {
    Color #666666
    FontColor #666666
    FontSize 12
}

skinparam rectangle<<boundary>> {
    Shadowing false
    StereotypeFontSize 0
    FontColor #444444
    BorderColor #444444
    BorderStyle dashed
}






















skinparam rectangle<<person>> {
    StereotypeFontColor #FFFFFF
    FontColor #FFFFFF
    BackgroundColor #08427B
    BorderColor #073B6F
}

skinparam rectangle<<external_person>> {
    StereotypeFontColor #FFFFFF
    FontColor #FFFFFF
    BackgroundColor #686868
    BorderColor #8A8A8A
}

skinparam rectangle<<system>> {
    StereotypeFontColor #FFFFFF
    FontColor #FFFFFF
    BackgroundColor #1168BD
    BorderColor #3C7FC0
}

skinparam rectangle<<external_system>> {
    StereotypeFontColor #FFFFFF
    FontColor #FFFFFF
    BackgroundColor #999999
    BorderColor #8A8A8A
}

skinparam database<<system>> {
    StereotypeFontColor #FFFFFF
    FontColor #FFFFFF
    BackgroundColor #1168BD
    BorderColor #3C7FC0
}

skinparam database<<external_system>> {
    StereotypeFontColor #FFFFFF
    FontColor #FFFFFF
    BackgroundColor #999999
    BorderColor #8A8A8A
}
















skinparam rectangle<<container>> {
    StereotypeFontColor #FFFFFF
    FontColor #FFFFFF
    BackgroundColor #438DD5
    BorderColor #3C7FC0
}

skinparam database<<container>> {
    StereotypeFontColor #FFFFFF
    FontColor #FFFFFF
    BackgroundColor #438DD5
    BorderColor #3C7FC0
}












skinparam rectangle<<component>> {
    StereotypeFontColor #FFFFFF
    FontColor #000000
    BackgroundColor #85BBF0
    BorderColor #78A8D8
}

skinparam database<<component>> {
    StereotypeFontColor #FFFFFF
    FontColor #000000
    BackgroundColor #85BBF0
    BorderColor #78A8D8
}










skinparam defaultTextAlignment center

skinparam wrapWidth 200
skinparam maxMessageSize 150

skinparam rectangle {
    StereotypeFontSize 12
    shadowing false
}

skinparam database {
    StereotypeFontSize 12
    shadowing false
}

skinparam Arrow {
    Color #666666
    FontColor #666666
    FontSize 12
}

skinparam rectangle<<boundary>> {
    Shadowing false
    StereotypeFontSize 0
    FontColor #444444
    BorderColor #444444
    BorderStyle dashed
}






















skinparam rectangle<<person>> {
    StereotypeFontColor #FFFFFF
    FontColor #FFFFFF
    BackgroundColor #08427B
    BorderColor #073B6F
}

skinparam rectangle<<external_person>> {
    StereotypeFontColor #FFFFFF
    FontColor #FFFFFF
    BackgroundColor #686868
    BorderColor #8A8A8A
}

skinparam rectangle<<system>> {
    StereotypeFontColor #FFFFFF
    FontColor #FFFFFF
    BackgroundColor #1168BD
    BorderColor #3C7FC0
}

skinparam rectangle<<external_system>> {
    StereotypeFontColor #FFFFFF
    FontColor #FFFFFF
    BackgroundColor #999999
    BorderColor #8A8A8A
}

skinparam database<<system>> {
    StereotypeFontColor #FFFFFF
    FontColor #FFFFFF
    BackgroundColor #1168BD
    BorderColor #3C7FC0
}

skinparam database<<external_system>> {
    StereotypeFontColor #FFFFFF
    FontColor #FFFFFF
    BackgroundColor #999999
    BorderColor #8A8A8A
}
















skinparam rectangle<<container>> {
    StereotypeFontColor #FFFFFF
    FontColor #FFFFFF
    BackgroundColor #438DD5
    BorderColor #3C7FC0
}

skinparam database<<container>> {
    StereotypeFontColor #FFFFFF
    FontColor #FFFFFF
    BackgroundColor #438DD5
    BorderColor #3C7FC0
}








top to bottom direction
hide stereotype
legend right
|=              |= Type |
|<#08427B>      | person |
|<#686868>      | external person |
|<#1168BD>   | system |
|<#999999>      | external system |
|<#438DD5>   | container |
endlegend

rectangle "==Data Analysts" <<person>> as ml_admin
rectangle "==Operator" <<person>> as operator
rectangle "==Owner" <<person>> as owner

rectangle "==Fitness centers management" <<boundary>> as proc {
    rectangle "==Multi-regional web solution\n//<size:12>[AWS hosted site]</size>//" <<component>> as mgmt_sys  
    rectangle "==Internal Processing Tools\n//<size:12>[scripts, data curation tools, website, etc.]</size>//" <<component>> as proc_tools
}

rectangle "==Market Intelligence" <<boundary>> as market {
    rectangle "==CRM\n//<size:12>[Salesforce, Pipedrive]</size>//" <<component>> as crm
    rectangle "==Internal Marketing Tools\n//<size:12>[scripts, data curation tools, website, etc.]</size>//" <<component>> as market_tools
}

database "==Data Lake/WH\n//<size:12>[client base, visits, season tickets, DR etc.]</size>//" <<component>> as raw_db

proc <- -> raw_db
market <- -> raw_db
ml_admin <- - raw_db
owner - -> mgmt_sys: manages, gets operational metrics
owner - -> crm: manages, gets marketing metrics
operator - -> mgmt_sys: uses

@enduml

PlantUML version 1.2021.00(Sun Jan 10 12:25:05 EET 2021)
(GPL source distribution)
Java Runtime: Java(TM) SE Runtime Environment
JVM: Java HotSpot(TM) Client VM
Default Encoding: Cp1251
Language: en
Country: US
--></g></svg>