<?xml version="1.0" encoding="UTF-8" standalone="no"?><svg xmlns="http://www.w3.org/2000/svg" xmlns:xlink="http://www.w3.org/1999/xlink" contentScriptType="application/ecmascript" contentStyleType="text/css" height="794px" preserveAspectRatio="none" style="width:857px;height:794px;" version="1.1" viewBox="0 0 857 794" width="857px" zoomAndPan="magnify"><defs/><g><!--MD5=[0050c6625e3b42e2857ba4d8ed699679]
entity operator--><polygon fill="#08427B" points="16.5,241,16.5,241.2102,26.1667,240.5857,35.8333,241.1933,45.5,241.3997,55.1667,240.2866,64.8333,240.9223,74.5,240.5735,84.1667,240.6165,93.8333,240.9318,103.5,241,103.2695,241,103.6845,249.025,103.2899,257.05,103.4341,265.075,103.644,273.1,103.5,281.125,103.5,281.0392,93.8333,281.1932,84.1667,281.0931,74.5,281.3035,64.8333,281.3641,55.1667,281.7107,45.5,281.7961,35.8333,281.8043,26.1667,281.3796,16.5,281.125,16.6545,281.125,16.7341,273.1,16.2596,265.075,16.7262,257.05,16.4012,249.025,16.5,241" style="stroke:#073B6F;stroke-width:1.5;"/><text fill="#FFFFFF" font-family="sans-serif" font-size="16" font-weight="bold" lengthAdjust="spacing" textLength="67" x="26.5" y="267.6094">Operator</text><!--MD5=[79a439086b036a57b90a01d7b2f8bbd1]
entity admin--><polygon fill="#08427B" points="7,606,7,606.2102,17,605.5857,27,606.1933,37,606.3997,47,605.2866,57,605.9223,67,605.5735,77,605.6165,87,605.9318,97,605.3086,107,606,107.1845,606,106.7899,614.025,106.9341,622.05,107.144,630.075,106.9714,638.1,107,646.125,107,646.1932,97,646.0931,87,646.3035,77,646.3641,67,646.7107,57,646.7961,47,646.8043,37,646.3796,27,646.5886,17,646.8272,7,646.125,6.7596,646.125,7.2262,638.1,6.9012,630.075,7.1779,622.05,6.835,614.025,7,606" style="stroke:#073B6F;stroke-width:1.5;"/><text fill="#FFFFFF" font-family="sans-serif" font-size="16" font-weight="bold" lengthAdjust="spacing" textLength="80" x="17" y="632.6094">IT Support</text><!--MD5=[3375834085b82f1b76f095371f5f25ba]
entity marketing_manager--><polygon fill="#08427B" points="544.5,606,544.5,606.2102,554.2059,605.5857,563.9118,606.1933,573.6176,606.3997,583.3235,605.2866,593.0294,605.9223,602.7353,605.5735,612.4412,605.6165,622.1471,605.9318,631.8529,605.3086,641.5588,606.5536,651.2647,605.3697,660.9706,605.8022,670.6765,606.4319,680.3824,605.9142,690.0882,606.0682,699.7941,605.9681,709.5,606,709.5595,606,709.5797,614.025,709.6952,622.05,709.7237,630.075,709.7264,638.1,709.5,646.125,709.5,646.3796,699.7941,646.5886,690.0882,646.8272,680.3824,645.4038,670.6765,646.8035,660.9706,645.8285,651.2647,646.6588,641.5588,645.63,631.8529,646.0565,622.1471,646.8666,612.4412,646.0763,602.7353,646.2303,593.0294,646.4636,583.3235,646.5412,573.6176,646.1211,563.9118,646.4122,554.2059,645.5526,544.5,646.125,544.5948,646.125,544.6827,638.1,544.6482,630.075,544.7043,622.05,544.339,614.025,544.5,606" style="stroke:#073B6F;stroke-width:1.5;"/><text fill="#FFFFFF" font-family="sans-serif" font-size="16" font-weight="bold" lengthAdjust="spacing" textLength="145" x="554.5" y="632.6094">Marketing Manager</text><!--MD5=[55f2968de154b8cc740615bf6e5af92f]
entity owner--><polygon fill="#08427B" points="387,606,387,606.2102,397,605.5857,407,606.1933,417,606.3997,427,605.2866,437,605.9223,447,605.5735,457,606,456.8722,606,456.9773,614.025,456.7695,622.05,457.1845,630.075,456.7899,638.1,457,646.125,457,645.9272,447,646.5569,437,646.0392,427,646.1932,417,646.0931,407,646.3035,397,646.3641,387,646.125,387.1952,646.125,387.2237,638.1,387.2264,630.075,387.0849,622.05,387.1545,614.025,387,606" style="stroke:#073B6F;stroke-width:1.5;"/><text fill="#FFFFFF" font-family="sans-serif" font-size="16" font-weight="bold" lengthAdjust="spacing" textLength="50" x="397" y="632.6094">Owner</text><!--MD5=[4a65e84059005d12693a083370a06717]
entity client--><polygon fill="#686868" points="174,7,174,7.2102,184.6667,6.5857,195.3333,7.1933,206,7.3997,216.6667,6.2866,227.3333,6.9223,238,7,237.8578,7,237.8722,15.025,237.9773,23.05,237.7695,31.075,238.1845,39.1,238,47.125,238,46.4947,227.3333,46.9272,216.6667,47.5569,206,47.0392,195.3333,47.1932,184.6667,47.0931,174,47.125,174.0595,47.125,174.0797,39.1,174.1952,31.075,174.2237,23.05,174.2264,15.025,174,7" style="stroke:#8A8A8A;stroke-width:1.5;"/><text fill="#FFFFFF" font-family="sans-serif" font-size="16" font-weight="bold" lengthAdjust="spacing" textLength="44" x="184" y="33.6094">Client</text><!--MD5=[4f98fc9e80a4599113be4b51a237f38a]
entity voip--><polygon fill="#999999" points="149,124,149,124.2102,159.3636,123.5857,169.7273,124.1933,180.0909,124.3997,190.4545,123.2866,200.8182,123.9223,211.1818,123.5735,221.5455,123.6165,231.9091,123.9318,242.2727,123.3086,252.6364,124.5536,263,124,262.7899,124,262.9341,132.025,263.144,140.05,262.9714,148.075,263.0227,156.1,263,164.125,263,164.0931,252.6364,164.3035,242.2727,164.3641,231.9091,164.7107,221.5455,164.7961,211.1818,164.8043,200.8182,164.3796,190.4545,164.5886,180.0909,164.8272,169.7273,163.4038,159.3636,164.8035,149,164.125,148.9012,164.125,149.1779,156.1,148.835,148.075,148.9772,140.05,149.2472,132.025,149,124" style="stroke:#8A8A8A;stroke-width:1.5;"/><text fill="#FFFFFF" font-family="sans-serif" font-size="16" font-weight="bold" lengthAdjust="spacing" textLength="94" x="159" y="150.6094">VoIP vendor</text><!--MD5=[bc72bf43f342d32997f7d9245e3deeb2]
entity target_proc_syst--><polygon fill="#1168BD" points="116,373,116,373.2102,125.9091,372.5857,135.8182,373.1933,145.7273,373.3997,155.6364,372.2866,165.5455,372.9223,175.4545,372.5735,185.3636,372.6165,195.2727,372.9318,205.1818,372.3086,215.0909,373.5536,225,372.3697,234.9091,372.8022,244.8182,373.4319,254.7273,372.9142,264.6364,373.0682,274.5455,372.9681,284.4545,373.1785,294.3636,373.2391,304.2727,373.5857,314.1818,373.6711,324.0909,373.6793,334,373,334.0849,373,334.1545,381.025,334.2341,389.05,333.7596,397.075,334.2262,405.1,334,413.125,334,412.8285,324.0909,413.6588,314.1818,412.63,304.2727,413.0565,294.3636,413.8666,284.4545,413.0763,274.5455,413.2303,264.6364,413.4636,254.7273,413.5412,244.8182,413.1211,234.9091,413.4122,225,412.5526,215.0909,413.4094,205.1818,413.6732,195.2727,413.5695,185.3636,413.738,175.4545,412.6419,165.5455,412.4728,155.6364,412.5036,145.7273,413.0661,135.8182,412.9285,125.9091,413.8064,116,413.125,115.9418,413.125,115.8856,405.1,116.0761,397.075,115.7777,389.05,115.827,381.025,116,373" style="stroke:#3C7FC0;stroke-width:1.5;"/><text fill="#FFFFFF" font-family="sans-serif" font-size="16" font-weight="bold" lengthAdjust="spacing" textLength="198" x="126" y="399.6094">Target processing system</text><!--MD5=[97da05a0bb8361e5aa34e2fc3482e3b9]
entity target_marketing_syst--><polygon fill="#1168BD" points="487,474,487,474.2102,496.9048,473.5857,506.8095,474.1933,516.7143,474.3997,526.619,473.2866,536.5238,473.9223,546.4286,473.5735,556.3333,473.6165,566.2381,473.9318,576.1429,473.3086,586.0476,474.5536,595.9524,473.3697,605.8571,473.8022,615.7619,474.4319,625.6667,473.9142,635.5714,474.0682,645.4762,473.9681,655.381,474.1785,665.2857,474.2391,675.1905,474.5857,685.0952,474.6711,695,474,695.2264,474,695.0849,482.025,695.1545,490.05,695.2341,498.075,694.7596,506.1,695,514.125,695,514.8035,685.0952,513.8285,675.1905,514.6588,665.2857,513.63,655.381,514.0565,645.4762,514.8666,635.5714,514.0763,625.6667,514.2303,615.7619,514.4636,605.8571,514.5412,595.9524,514.1211,586.0476,514.4122,576.1429,513.5526,566.2381,514.4094,556.3333,514.6732,546.4286,514.5695,536.5238,514.738,526.619,513.6419,516.7143,513.4728,506.8095,513.5036,496.9048,514.0661,487,514.125,486.9345,514.125,487.2271,506.1,486.9418,498.075,486.8856,490.05,487.0761,482.025,487,474" style="stroke:#3C7FC0;stroke-width:1.5;"/><text fill="#FFFFFF" font-family="sans-serif" font-size="16" font-weight="bold" lengthAdjust="spacing" textLength="188" x="497" y="500.6094">Target marketing system</text><!--MD5=[8f625b3050d4a9ffed8058b944f8faa1]
entity target_vendors--><polygon fill="#999999" points="191,606,191,606.2102,200.7143,605.5857,210.4286,606.1933,220.1429,606.3997,229.8571,605.2866,239.5714,605.9223,249.2857,605.5735,259,605.6165,268.7143,605.9318,278.4286,605.3086,288.1429,606.5536,297.8571,605.3697,307.5714,605.8022,317.2857,606.4319,327,606,326.9714,606,327.0227,614.025,326.9894,622.05,327.0595,630.075,327.0797,638.1,327,646.125,327,646.7107,317.2857,646.7961,307.5714,646.8043,297.8571,646.3796,288.1429,646.5886,278.4286,646.8272,268.7143,645.4038,259,646.8035,249.2857,645.8285,239.5714,646.6588,229.8571,645.63,220.1429,646.0565,210.4286,646.8666,200.7143,646.0763,191,646.125,191.0351,646.125,191.1129,638.1,191.1387,630.075,190.9987,622.05,191.0957,614.025,191,606" style="stroke:#8A8A8A;stroke-width:1.5;"/><text fill="#FFFFFF" font-family="sans-serif" font-size="16" font-weight="bold" lengthAdjust="spacing" textLength="116" x="201" y="632.6094">Target vendors</text><!--MD5=[d775e9e69c0aec49f10a9883b4c314c5]
entity buyer--><polygon fill="#686868" points="662.5,373,662.5,373.2102,672.4474,372.5857,682.3947,373.1933,692.3421,373.3997,702.2895,372.2866,712.2368,372.9223,722.1842,372.5735,732.1316,372.6165,742.0789,372.9318,752.0263,372.3086,761.9737,373.5536,771.9211,372.3697,781.8684,372.8022,791.8158,373.4319,801.7632,372.9142,811.7105,373.0682,821.6579,372.9681,831.6053,373.1785,841.5526,373.2391,851.5,373,851.6952,373,851.7237,381.025,851.7264,389.05,851.5849,397.075,851.6545,405.1,851.5,413.125,851.5,413.8272,841.5526,412.4038,831.6053,413.8035,821.6579,412.8285,811.7105,413.6588,801.7632,412.63,791.8158,413.0565,781.8684,413.8666,771.9211,413.0763,761.9737,413.2303,752.0263,413.4636,742.0789,413.5412,732.1316,413.1211,722.1842,413.4122,712.2368,412.5526,702.2895,413.4094,692.3421,413.6732,682.3947,413.5695,672.4474,413.738,662.5,413.125,662.339,413.125,662.2826,405.1,662.2929,397.075,662.4804,389.05,662.4345,381.025,662.5,373" style="stroke:#8A8A8A;stroke-width:1.5;"/><text fill="#FFFFFF" font-family="sans-serif" font-size="16" font-weight="bold" lengthAdjust="spacing" textLength="169" x="672.5" y="399.6094">Ancillary goods Buyer</text><!--MD5=[d78b2c0edfd962821edc1b63ac81f5e9]
entity seller--><polygon fill="#686868" points="441,373,441,373.2102,450.7895,372.5857,460.5789,373.1933,470.3684,373.3997,480.1579,372.2866,489.9474,372.9223,499.7368,372.5735,509.5263,372.6165,519.3158,372.9318,529.1053,372.3086,538.8947,373.5536,548.6842,372.3697,558.4737,372.8022,568.2632,373.4319,578.0526,372.9142,587.8421,373.0682,597.6316,372.9681,607.4211,373.1785,617.2105,373.2391,627,373,627.1952,373,627.2237,381.025,627.2264,389.05,627.0849,397.075,627.1545,405.1,627,413.125,627,413.8272,617.2105,412.4038,607.4211,413.8035,597.6316,412.8285,587.8421,413.6588,578.0526,412.63,568.2632,413.0565,558.4737,413.8666,548.6842,413.0763,538.8947,413.2303,529.1053,413.4636,519.3158,413.5412,509.5263,413.1211,499.7368,413.4122,489.9474,412.5526,480.1579,413.4094,470.3684,413.6732,460.5789,413.5695,450.7895,413.738,441,413.125,440.839,413.125,440.7826,405.1,440.7929,397.075,440.9804,389.05,440.9345,381.025,441,373" style="stroke:#8A8A8A;stroke-width:1.5;"/><text fill="#FFFFFF" font-family="sans-serif" font-size="16" font-weight="bold" lengthAdjust="spacing" textLength="166" x="451" y="399.6094">Ancillary goods Seller</text><!--MD5=[93b8e507ffd96e15076c37ab7d5585c6]
link client to voip--><path d="M206,47.25 L206.2802,47.25 L205.4476,57.4271 L206.2577,67.6043 L206.5329,77.7814 L205.0488,87.9586 L205.8964,98.1357 L205.4313,108.3129 L206,118.49 " fill="none" style="stroke:#666666;stroke-width:1.0;"/><polygon fill="#666666" points="206,123.69,206.064,123.7185,206.6738,121.8339,207.6589,120.1162,208.5217,118.3441,208.9827,116.3934,210,114.69,209.9817,114.6717,209.0995,115.3895,208.3096,116.1996,207.5839,117.0739,206.637,117.727,206,118.69,206.1305,118.8205,205.0514,117.7414,204.3534,117.0434,203.7018,116.3918,202.7798,115.4698,202,114.69,202.0208,114.6992,202.7903,116.4857,203.6544,118.3142,204.4728,120.1224,205.3784,121.9693,206,123.69" style="stroke:#666666;stroke-width:1.0;"/><text fill="#666666" font-family="sans-serif" font-size="12" lengthAdjust="spacing" textLength="57" x="207" y="90.457">phone call</text><!--MD5=[ea91bafe0c4722dc0107ef2a90378272]
link voip to operator--><path d="M181.56,164.25 L181.7334,164.4701 L173.484,169.9085 L166.2511,176.6374 L158.6873,182.9461 L150.0347,187.8728 L142.825,194.6311 L134.8031,200.3583 L127.1044,206.4958 L119.6304,212.9186 L111.3821,218.3584 L104.6751,225.7549 L95.9641,230.6073 L88.75,237.36 " fill="none" style="stroke:#666666;stroke-width:1.0;stroke-dasharray:7.0,7.0;"/><polygon fill="#666666" points="84.52,240.69,84.5373,240.7579,86.3945,240.0692,88.3532,239.7784,90.2788,239.3581,92.0957,238.5116,94.0631,238.255,94.0601,238.2293,92.9229,237.9813,91.8009,237.8631,90.6897,237.8351,89.5418,237.4963,88.4451,237.5927,88.6284,237.6143,88.369,236.4445,88.6446,235.3378,88.9855,234.2388,88.9466,233.095,89.1074,231.9748,89.1276,231.9853,88.1805,233.7128,87.3251,235.4886,86.4255,237.241,85.6102,239.0379,84.52,240.69" style="stroke:#666666;stroke-width:1.0;"/><!--MD5=[e45c2a2784d366d45211861b37fbdda9]
link client to operator--><path d="M173.85,38.08 L173.884,38.167 L170.9013,39.0339 L168.1179,40.4108 L165.2695,41.6217 L162.2079,42.2863 L159.4415,43.707 L159.4275,43.6754 L156.2182,44.9296 L153.0795,46.343 L149.9899,47.867 L146.7311,49.0098 L143.7092,50.6866 L143.821,50.9058 L140.2939,52.1143 L137.0931,53.9628 L133.9322,55.8893 L130.5396,57.3616 L127.2688,59.0729 L127.2844,59.0989 L123.9551,61.0301 L120.6964,63.0799 L117.4037,65.0725 L114.176,67.1742 L110.7363,68.92 L110.9089,69.1632 L107.7092,71.4386 L104.3981,73.5571 L101.2501,75.9053 L98.1097,78.2642 L94.7272,80.2821 L94.5169,80.0403 L91.9512,83.096 L88.6929,85.3552 L85.9612,88.2199 L82.6872,90.4612 L79.8577,93.2134 L79.835,93.1931 L77.4796,96.345 L74.5958,99.0208 L72.0238,101.9775 L69.478,104.9578 L66.7433,107.768 L66.8976,107.8701 L64.5932,111.0134 L62.5524,114.3313 L60.0852,117.3668 L58.2541,120.8234 L56,124 L56.2233,124.0975 L54.9893,126.8069 L53.8662,129.5648 L52.228,132.0976 L50.9674,134.7953 L50.0413,137.6392 L49.7739,137.5698 L49.2648,140.5279 L48.4545,143.4078 L48.081,146.401 L46.9616,149.2007 L46.2856,152.1155 L46.1343,152.0965 L46.0122,155.1153 L45.2434,158.0532 L44.9345,161.0486 L45.0756,164.1004 L44.4153,167.0518 L44.6089,167.0557 L44.6811,170.0623 L44.1512,173.0567 L44.3755,176.0663 L44.4354,179.0727 L44.1125,182.0713 L43.903,182.0578 L44.2594,185.0136 L44.5471,187.9651 L44.9697,190.9252 L44.8681,193.8516 L45.0594,196.7968 L45.2631,196.824 L45.1912,199.5751 L45.5125,202.3787 L46.4085,205.2592 L46.2465,207.9983 L46.9381,210.8514 L47.1603,210.894 L47.5269,213.47 L47.8183,216.0317 L48.2794,218.6259 L49.1326,221.2952 L49.4309,223.8581 L49.3016,223.827 L50.2445,226.2361 L50.3077,228.4334 L51.3712,230.8715 L51.8715,233.174 L52.22,235.44 " fill="none" style="stroke:#666666;stroke-width:1.0;"/><polygon fill="#666666" points="53.62,240.56,53.6893,240.5705,53.7773,238.5917,54.2713,236.6741,54.6332,234.7367,54.5601,232.7336,55.0891,230.8213,55.0666,230.8085,54.4064,231.7346,53.8597,232.7253,53.392,233.7608,52.6523,234.6417,52.2936,235.7392,52.3848,235.8996,51.2062,234.9974,50.2938,234.5636,49.414,234.187,48.3452,233.4779,47.3757,232.9436,47.3933,232.9581,48.6163,234.4602,49.9195,236.0279,51.1839,237.564,52.5221,239.1605,53.62,240.56" style="stroke:#666666;stroke-width:1.0;"/><text fill="#666666" font-family="sans-serif" font-size="12" lengthAdjust="spacing" textLength="73" x="57" y="148.957">personal visit</text><!--MD5=[f343fbcd8dbbe42759cd385de8bb92f3]
link voip to target_proc_syst--><path d="M207.49,164.38 L207.7694,164.4015 L207.7207,174.4981 L209.31,184.7208 L210.3658,194.9024 L209.6676,204.9491 L211.2942,215.1746 L211.612,225.2994 L212.4507,235.4643 L213.6514,245.657 L213.6044,255.7538 L216.041,266.0416 L215.2486,276.0811 L216.6051,286.2858 L218.2237,296.5107 L218.317,306.6182 L219.3032,316.7945 L219.9515,326.9447 L221.0128,337.1268 L221.8749,347.2935 L223.1171,357.4894 L223.12,367.59 " fill="none" style="stroke:#666666;stroke-width:1.0;stroke-dasharray:7.0,7.0;"/><polygon fill="#666666" points="223.52,372.71,223.586,372.7334,224.0486,370.8075,224.8983,369.0189,225.6219,367.1855,225.931,365.2051,226.8139,363.4283,226.7942,363.4114,225.97,364.1951,225.245,365.0638,224.5889,365.9915,223.6952,366.7157,223.1343,367.7249,223.2544,367.8651,222.1384,366.8294,221.3728,366.203,220.65,365.6265,219.6784,364.7595,218.8377,364.0453,218.8577,364.0562,219.7648,365.7732,220.763,367.5395,221.7172,369.282,222.7553,371.0699,223.52,372.71" style="stroke:#666666;stroke-width:1.0;"/><!--MD5=[6fb7b87f8f04c9f2a8da478b068aa2be]
link client to target_proc_syst--><path d="M238.17,44.18 L238.2226,44.2572 L240.0071,45.3519 L242.1002,46.899 L244.0928,48.2988 L245.7549,49.2142 L247.8745,50.8002 L247.8527,50.7734 L249.6411,52.192 L251.5395,53.7455 L253.5144,55.3928 L255.2257,56.7169 L257.3063,58.4937 L257.4819,58.666 L258.8204,60.046 L260.6719,61.9289 L262.586,63.8732 L264.1359,65.4604 L265.8773,67.2355 L265.9018,67.2533 L267.2904,69.18 L268.7905,71.188 L270.2368,73.1568 L271.7858,75.2005 L273,77 L273.2713,77.1238 L274.3709,79.5273 L275.2955,81.8509 L276.4762,84.2914 L277.6689,86.7373 L278.4813,89.0097 L278.1641,88.963 L279.0853,91.1282 L278.9624,93.1396 L279.6332,95.268 L279.4866,97.2759 L280.01,99.3825 L279.9796,99.3819 L280.2943,101.5756 L279.8978,103.7547 L279.921,105.9424 L279.9795,108.1309 L279.7838,110.3141 L279.9687,110.317 L279.8253,113.0512 L279.9979,115.7905 L279.6591,118.5216 L280.0831,121.2648 L280,124 L280.2431,124.0159 L280.427,127.5335 L280.7316,131.0591 L280.4753,134.548 L280.6302,138.0638 L281.1492,141.6034 L280.8733,141.591 L281.2674,144.8292 L281.3506,148.0535 L281.8846,151.298 L281.6488,154.5081 L281.8707,157.7386 L281.7182,157.7356 L282.0308,160.7145 L281.6918,163.6806 L281.8161,166.6559 L282.3938,169.6401 L282.1642,172.6084 L282.3578,172.6103 L282.4637,175.373 L281.9674,178.1298 L282.2253,180.894 L282.319,183.6566 L282.0297,186.4155 L281.8199,186.4064 L281.8746,189.003 L281.8606,191.5967 L281.9815,194.1963 L281.5778,196.7731 L281.4671,199.3626 L281.672,199.3791 L281.0236,201.8008 L280.7708,204.2543 L281.0958,206.7545 L280.3569,209.1689 L280.4764,211.6524 L280.701,211.6794 L280.2837,214.0304 L279.7905,216.3724 L279.4688,218.7349 L279.5436,221.145 L279.0574,223.4878 L278.926,223.4668 L278.9477,225.8459 L278.0758,228.0825 L278.2199,230.4811 L277.792,232.7885 L277.21,235.0713 L277.3168,235.0923 L276.7754,237.3822 L276.6165,239.7475 L276.1121,242.0447 L275.4632,244.3133 L274.9342,246.6056 L275.0503,246.6325 L274.3369,248.9302 L274.1627,251.3526 L273.3787,253.634 L272.8455,255.9733 L272.2299,258.2937 L271.9682,258.2256 L271.429,260.6572 L271.205,263.1708 L270.535,265.5683 L269.7051,267.9243 L269.0969,270.338 L268.9592,270.2991 L268.291,272.8322 L267.3788,275.2964 L267.1373,277.9502 L266.5639,280.5101 L265.5353,282.9414 L265.7592,283.0094 L264.1489,288.5701 L262.1133,294.0017 L260.5266,299.5696 L258.6427,305.0472 L257.1256,310.6363 L257.2461,310.674 L255.2051,317.1418 L253.3097,323.6551 L250.9528,330.024 L248.9681,336.5094 L247,343 L247.1855,343.0666 L246.3208,345.6384 L244.9526,348.0295 L244.1694,350.6306 L243.3964,353.2354 L242.4175,355.7663 L242.1681,355.6589 L241.4983,358.2991 L240.3958,360.7531 L239.1859,363.1608 L238.2216,365.6742 L237.1,368.12 " fill="none" style="stroke:#666666;stroke-width:1.0;"/><polygon fill="#666666" points="234.88,372.86,234.9258,372.913,236.2793,371.4668,237.9016,370.3313,239.4363,369.0946,240.6832,367.5253,242.3285,366.4164,242.3197,366.3921,241.216,366.6664,240.1565,367.0636,239.1279,367.5462,237.9931,367.7344,237.0069,368.3349,237.1805,368.3975,236.4256,367.1994,236.1775,366.1839,235.9913,365.1908,235.4452,364.068,235.0884,363.0133,235.1112,363.0138,235.0361,364.9825,235.0645,366.9533,235.0431,368.923,235.1169,370.8948,234.88,372.86" style="stroke:#666666;stroke-width:1.0;"/><text fill="#666666" font-family="sans-serif" font-size="12" lengthAdjust="spacing" textLength="112" x="283" y="207.457">web-site/mobile app</text><!--MD5=[b60212a03d35a2efcffa223a57fe82df]
link operator to target_proc_syst--><path d="M53.05,281.04 L53.141,281.0612 L52.1849,283.9411 L51.7622,286.9452 L51.1658,289.9088 L49.9983,292.7394 L49.6214,295.7542 L49.587,295.751 L49.1311,299.0012 L48.8486,302.2674 L48.6866,305.5447 L48.1093,308.7836 L48.1138,312.0763 L48.3581,312.1055 L48.2252,315.3018 L48.8057,318.5834 L49.4732,321.8754 L49.6343,325.1068 L50.0617,328.3702 L50.0891,328.3832 L51.4365,331.29 L52.9087,334.2561 L54.3207,337.1936 L55.8475,340.1856 L57,343 L57.1979,343.2231 L59.0474,344.8646 L60.7693,346.3622 L62.678,348.0704 L64.5955,349.7885 L66.2355,351.1938 L66.0848,350.9109 L69.1969,352.9621 L71.8128,354.0819 L74.806,355.9099 L77.4106,357.0086 L80.3338,358.705 L80.3228,358.6766 L84.0001,360.374 L87.4226,361.4073 L90.9954,362.8324 L94.5808,364.2905 L98.0752,365.5113 L98.1312,365.6876 L100.0458,366.1359 L102.0561,366.8856 L103.9115,367.1478 L105.998,368.1371 L107.9309,368.643 L107.9978,368.8772 L110.047,369.4223 L112.1294,370.0837 L114.0573,370.2048 L116.0985,370.7219 L118.24,371.59 " fill="none" style="stroke:#666666;stroke-width:1.0;"/><polygon fill="#666666" points="123.12,372.89,123.1639,372.9446,121.4989,371.5473,120.0915,370.47,118.6002,369.2885,116.8331,367.7644,115.4477,366.7145,115.4253,366.7015,115.8927,367.6217,116.473,368.6074,117.1319,369.6386,117.5202,370.5128,118.2874,371.607,118.38,371.7666,117.2035,371.9932,116.2973,372.6859,115.4242,373.4353,114.3591,373.854,113.3949,374.4467,113.3985,374.4692,115.3383,374.1248,117.2944,373.8828,119.2426,373.5914,121.2058,373.3941,123.12,372.89" style="stroke:#666666;stroke-width:1.0;"/><text fill="#666666" font-family="sans-serif" font-size="12" lengthAdjust="spacing" textLength="137" x="58" y="324.457">better entry UX and/or old</text><text fill="#666666" font-family="sans-serif" font-size="12" lengthAdjust="spacing" textLength="84" x="86" y="339.5508">Excel approach</text><!--MD5=[ca8ffed3091559c68fa4c6e2a2d9dca6]
link target_proc_syst to target_vendors--><path d="M216.16,418.29 L216.2495,418.3169 L215.0849,421.2232 L214.4447,424.2873 L213.6338,427.3 L212.2613,430.1437 L211.6662,433.2213 L211.6327,433.2128 L210.5938,436.663 L209.7236,440.1562 L208.9707,443.6793 L207.8136,447.0994 L207.2227,450.6637 L207.4639,450.7121 L206.1707,454.4849 L205.5819,458.3989 L205.079,462.3302 L204.0761,466.1612 L203.3362,470.0449 L203.3662,470.0495 L203.007,472.0905 L202.7843,474.1525 L202.4957,476.2043 L202.3328,478.2755 L201.7603,480.2837 L202.0565,480.3188 L201.8108,482.421 L201.3741,484.5005 L201.217,486.6132 L201.073,488.7275 L200.5138,490.7925 L200.1942,490.767 L200.6436,492.9579 L200.0408,495.065 L200.2379,497.2358 L199.6113,499.3409 L199.6599,501.4998 L199.6295,501.4987 L199.9097,503.6788 L199.4791,505.8328 L199.468,508.0021 L199.492,510.1728 L199.2621,512.3341 L199.447,512.3362 L199.2846,514.5121 L199.4383,516.6915 L199.0806,518.8651 L199.4857,521.0473 L199.3836,523.2239 L199.6268,523.2396 L199.7217,525.4114 L199.9373,527.5909 L199.592,529.7342 L199.6578,531.904 L200.088,534.0975 L199.8139,534.0632 L200.3321,536.2514 L200.5415,538.401 L201.1987,540.6067 L201.0913,542.7166 L201.4384,544.8835 L201.2887,544.8545 L201.95,547.0281 L201.9714,549.0778 L202.4479,551.2156 L203.3695,553.4398 L203.4983,555.5102 L203.6852,555.5611 L204.3798,557.6753 L204.4934,559.631 L205.3349,561.7851 L206.0177,563.896 L206.3311,565.9063 L206.1338,565.8345 L207.0248,567.9105 L207.8513,569.9629 L208.8047,572.0615 L209.2645,573.9806 L210,576 L210.1779,576.103 L211.4195,578.6982 L213.0045,581.4923 L215.0912,584.5766 L216.2542,587.1264 L218.1625,590.1075 L218.3321,590.2571 L220.3949,592.6208 L222.4002,594.9337 L224.5351,597.361 L226.9694,600.0524 L228.98,602.37 " fill="none" style="stroke:#666666;stroke-width:1.0;"/><polygon fill="#666666" points="232.75,605.92,232.8145,605.9473,231.8565,604.0517,231.2769,602.3158,230.574,600.528,229.4659,598.569,228.9187,596.8469,228.8929,596.846,228.8133,597.9731,228.8642,599.1043,229.0059,600.2385,228.8349,601.3625,229.1019,602.5008,229.1078,602.6852,227.9643,602.3274,226.8382,602.5081,225.7142,602.7546,224.5778,602.6187,223.448,602.6839,223.4555,602.7054,225.3049,603.3211,227.1883,604.0345,229.0554,604.7008,230.9537,605.4572,232.75,605.92" style="stroke:#666666;stroke-width:1.0;"/><polygon fill="#666666" points="217.84,413.23,217.892,413.277,216.416,414.598,215.2447,416.1945,213.9741,417.7013,212.3774,418.913,211.2322,420.5332,211.2205,420.5101,212.1777,419.8958,213.1938,419.3981,214.2508,418.9813,215.1667,418.2854,216.2803,417.9805,216.445,418.0638,216.6034,418.8953,217.2426,419.97,217.9404,421.0744,218.297,422.0061,218.833,423.0287,218.8557,423.031,218.6238,421.0679,218.495,419.1152,218.3165,417.1575,218.2328,415.2094,217.84,413.23" style="stroke:#666666;stroke-width:1.0;"/><!--MD5=[c0c7acc93d1cef8dddb84d76aa526444]
link target_proc_syst to target_marketing_syst--><path d="M300.56,414.44 L300.6332,414.7105 L310.1989,416.5531 L320.1937,419.9815 L330.0487,422.8935 L339.4444,424.1073 L349.4489,427.5718 L359.1106,429.7693 L368.9088,432.471 L378.8017,435.5232 L388.3679,437.3674 L398.5846,441.6162 L407.9556,442.7388 L417.8893,445.9418 L427.8917,449.3987 L437.4947,451.3787 L447.3315,454.2233 L457.0798,456.7407 L466.9362,459.658 L476.7405,462.3823 L486.6444,465.4747 L496.4573,468.231 L506.2433,470.8879 L515.79,472.66 " fill="none" style="stroke:#666666;stroke-width:1.0;"/><polygon fill="#666666" points="520.65,473.97,520.6943,474.0243,519.0369,472.6172,517.6392,471.5283,516.157,470.3358,514.3965,468.8026,513.0212,467.741,512.9987,467.7281,513.4588,468.6529,514.0323,469.6425,514.6846,470.677,515.0653,471.5565,515.8265,472.6532,515.918,472.8135,514.7399,473.0318,513.8289,473.7181,512.9506,474.4614,511.8825,474.8727,510.9143,475.4586,510.9177,475.481,512.8598,475.1503,514.8176,474.922,516.7678,474.6442,518.7324,474.4607,520.65,473.97" style="stroke:#666666;stroke-width:1.0;"/><polygon fill="#666666" points="295.57,413.09,295.6141,413.1444,297.0132,414.2232,298.6708,415.6209,300.2443,416.9148,301.5408,417.8671,303.2206,419.2922,303.1982,419.2793,302.5329,418.2408,301.9808,417.2675,301.5074,416.3395,300.7629,415.2553,300.3981,414.3899,300.4902,414.5498,301.2737,413.6433,302.3261,413.2037,303.4113,412.8211,304.3057,412.107,305.3004,411.5673,305.304,411.5898,303.3527,411.8613,301.4175,412.2352,299.4745,412.5597,297.5463,412.9783,295.57,413.09" style="stroke:#666666;stroke-width:1.0;"/><!--MD5=[30e63c58437685b8db3a7487cb25588a]
link target_marketing_syst to target_vendors--><path d="M523.77,515.55 L523.799,515.6388 L519.726,516.6766 L515.8229,518.235 L511.8645,519.6238 L507.7241,520.4552 L503.8356,522.0583 L503.8246,522.0256 L499.6342,523.2803 L495.4997,524.7 L491.404,526.2344 L487.1746,527.3736 L483.1325,529.0663 L483.2145,529.2982 L478.8738,530.2746 L474.7725,531.9283 L470.7004,533.6647 L466.4583,534.9202 L462.3056,536.4286 L462.3162,536.457 L458.2395,537.9296 L454.2111,539.5315 L450.1594,541.071 L446.1521,542.7296 L442,544 L442.1091,544.2776 L438.47,545.7126 L434.7604,546.9686 L431.1539,548.4867 L427.5522,550.017 L423.7975,551.1582 L423.6762,550.8615 L420.2177,552.9464 L416.36,554.0542 L412.8058,555.9048 L408.939,556.9905 L405.3284,558.7031 L405.3166,558.6751 L401.7621,560.5633 L397.9315,561.796 L394.2638,563.4155 L390.6098,565.0675 L386.8571,566.4852 L386.9305,566.655 L383.2145,568.0576 L379.6239,569.7503 L375.8304,570.9736 L372.3396,572.8971 L368.6475,574.355 L368.7466,574.5776 L361.8125,577.6163 L354.9275,580.7656 L347.8138,583.4015 L340.8678,586.4137 L334.0703,589.7594 L333.9549,589.5085 L327.9873,592.5277 L321.8897,595.2643 L315.9806,598.4109 L309.7496,600.8573 L303.71,603.72 " fill="none" style="stroke:#666666;stroke-width:1.0;"/><polygon fill="#666666" points="298.86,605.99,298.8612,606.0601,300.8271,605.8177,302.8001,605.986,304.7707,606.0206,306.7338,605.6154,308.7074,605.8189,308.6985,605.7946,307.5958,605.2976,306.5379,604.9234,305.511,604.6344,304.377,604.0515,303.3931,603.8803,303.5665,603.9435,303.5835,602.7454,304.1066,601.732,304.6916,600.741,304.9172,599.619,305.3318,598.566,305.3489,598.5809,304.0294,600.0438,302.7879,601.5747,301.5088,603.0728,300.3015,604.6335,298.86,605.99" style="stroke:#666666;stroke-width:1.0;"/><polygon fill="#666666" points="528.53,514.02,528.5376,514.0897,526.5568,513.67,524.6205,513.6586,522.6696,513.5143,520.6713,512.9328,518.7387,512.9565,518.7269,512.9334,519.6796,513.3479,520.6921,513.8784,521.7461,514.4896,522.657,514.8227,523.7684,515.5454,523.9325,515.6299,523.0638,516.4552,522.6742,517.5271,522.343,518.6291,521.6718,519.5561,521.1794,520.5751,521.1946,520.5921,522.6424,519.2561,524.1593,517.9975,525.6428,516.7015,527.1898,515.4767,528.53,514.02" style="stroke:#666666;stroke-width:1.0;"/><!--MD5=[3b0c28eb0e5c2610bcd8a70d47328016]
reverse link target_proc_syst to admin--><path d="M166.61,415.29 L166.6512,415.3738 L164.4374,416.1531 L162.4652,417.4237 L160.4143,418.5343 L158.1047,419.1187 L156.1532,420.4315 L156.1368,420.4012 L153.9436,421.4136 L151.8334,422.579 L149.7808,423.8509 L147.5295,424.756 L145.5566,426.1748 L145.6835,426.3856 L143.3003,427.2065 L141.2877,428.6428 L139.3204,430.1541 L137.0899,431.2286 L134.9979,432.5329 L135.0148,432.558 L132.9213,433.9183 L130.9051,435.393 L128.8516,436.8125 L126.8693,438.3373 L124.655,439.5187 L124.8364,439.7555 L122.8488,441.2837 L120.7442,442.6592 L118.8109,444.2582 L116.8856,445.8677 L114.7059,447.1454 L114.4937,446.9051 L113.03,449.0275 L110.8677,450.3588 L109.2365,452.2915 L107.0583,453.6048 L105.3284,455.4258 L105.3065,455.4046 L103.8401,457.444 L101.8617,458.9896 L100.1854,460.8266 L98.5344,462.688 L96.7005,464.373 L96.845,464.4885 L95.1591,466.2973 L93.72,468.3035 L91.8815,469.9903 L90.6388,472.1535 L89,474 L89.2081,474.1268 L87.2241,477.2943 L85.3435,480.5248 L82.9829,483.4628 L80.9741,486.6152 L79.277,489.9575 L79.0243,489.8463 L77.7302,493.4074 L76.1513,496.8432 L74.9855,500.4608 L73.1143,503.768 L71.6625,507.2597 L71.5172,507.2134 L70.6083,510.9005 L69.0783,514.3896 L67.99,518.0195 L67.3337,521.7871 L65.908,525.3095 L66.0968,525.3525 L65.3977,529.022 L64.1113,532.558 L63.5605,536.2613 L62.8495,539.9281 L61.765,543.51 L61.5576,543.4775 L61.1669,547.0543 L60.7084,550.6204 L60.3833,554.2074 L59.5393,557.7131 L58.9852,561.2643 L59.1897,561.2846 L58.4072,564.5821 L58.0196,567.9188 L58.2088,571.3131 L57.336,574.6015 L57.32,577.9753 L57.5459,577.9873 L57.2519,580.9944 L56.8815,583.9974 L56.6836,587.0095 L56.8845,590.0428 L56.5211,593.0462 L56.3881,593.0443 L56.7479,595.6167 L56.203,598.1763 L56.6868,600.7504 L56.5914,603.3163 L56.34,605.88 " fill="none" style="stroke:#666666;stroke-width:1.0;"/><polygon fill="#666666" points="171.35,413.11,171.3509,413.1801,169.3787,412.9959,167.4115,413.2224,165.4427,413.3152,163.4686,412.9682,161.5019,413.23,161.4929,413.2057,162.5133,413.49,163.5791,413.8966,164.6765,414.3884,165.6651,414.5869,166.806,415.1962,166.9791,415.2604,166.2158,416.184,165.9577,417.295,165.7613,418.4288,165.2063,419.4296,164.8398,420.5004,164.8569,420.5154,166.1339,419.0153,167.4886,417.5836,168.8057,416.1188,170.1945,414.7171,171.35,413.11" style="stroke:#666666;stroke-width:1.0;"/><text fill="#666666" font-family="sans-serif" font-size="12" lengthAdjust="spacing" textLength="101" x="90" y="498.957">data management</text><!--MD5=[382269322d6c5eafef83e79dd44da74c]
link target_proc_syst to owner--><path d="M241.46,413.3 L241.6732,413.4818 L247.4749,420.4875 L254.5265,428.5592 L261.1711,436.2838 L266.477,442.8668 L273.5572,450.9628 L279.6385,458.207 L286.1173,465.7902 L292.8725,473.609 L298.6754,480.6158 L306.3737,489.239 L311.6078,495.7607 L318.4818,503.6809 L325.5558,511.7717 L331.4658,518.8698 L338.0572,526.549 L344.3908,534.0084 L351.0395,541.7365 L357.5362,549.3349 L364.323,557.1807 L370.8448,564.8006 L377.2883,572.3537 L383.2927,579.5323 L389.9399,587.2591 L396.6172,595.0116 L402.34,601.95 " fill="none" style="stroke:#666666;stroke-width:1.0;"/><polygon fill="#666666" points="405.73,605.92,405.7972,605.9398,405.0411,603.9914,404.679,602.1591,404.1885,600.289,403.2762,598.2946,402.9479,596.4723,402.9221,596.4702,402.7149,597.5885,402.6379,598.7173,402.6513,599.8535,402.3529,600.9644,402.4913,602.1107,402.5062,602.2946,401.3467,601.8099,400.2307,601.8623,399.1199,601.9802,397.9783,601.7169,396.8529,601.6541,396.8628,601.6746,398.6237,602.4977,400.4295,603.4141,402.2137,604.2855,404.0391,605.2428,405.73,605.92" style="stroke:#666666;stroke-width:1.0;"/><text fill="#666666" font-family="sans-serif" font-size="12" lengthAdjust="spacing" textLength="114" x="327" y="498.957">analytics, accounting</text><!--MD5=[76fe5fb7c4fb0f293e574906a81a11ba]
reverse link target_marketing_syst to admin--><path d="M481.74,510.85 L481.7804,511.1273 L471.7587,511.7446 L461.9736,513.9876 L452.1115,515.7013 L441.996,515.6739 L432.2164,517.954 L422.2477,518.9351 L412.3542,520.4331 L402.513,522.2905 L392.4916,522.9095 L382.8289,525.9935 L372.6998,525.8727 L362.8811,527.8847 L353.1003,530.1569 L343.0992,530.9151 L333.227,532.5596 L323.306,533.8687 L313.4447,535.5877 L303.5546,537.109 L293.7194,539.0076 L283.8341,540.5615 L273.9339,542.0136 L263.9506,542.8947 L254,544 L254.0565,544.1982 L251.9337,544.9133 L249.6085,544.918 L247.6271,546.1294 L245.3565,546.3257 L243.2408,547.0656 L243.3102,547.2925 L241.0069,547.5189 L238.8928,548.3639 L236.8285,549.3719 L234.5562,549.6997 L232.393,550.3841 L232.4075,550.4286 L230.2608,551.2353 L228.0928,551.9762 L225.8564,552.5066 L223.7177,553.3377 L221.4996,553.9244 L221.4172,553.6837 L219.3613,554.7902 L217.2201,555.6473 L215.0259,556.3499 L212.8709,557.1669 L210.6034,557.6553 L210.531,557.4532 L208.3345,558.1605 L206.1679,558.9515 L204.081,559.9649 L201.8892,560.6854 L199.7475,561.5457 L199.8533,561.8295 L197.5658,562.2767 L195.3851,563.0104 L193.3192,564.052 L191.0256,564.4831 L188.9746,565.5645 L188.8903,565.3497 L184.8552,567.4925 L180.5956,569.0639 L176.4192,570.8471 L172.0226,572.0698 L167.85,573.8625 L167.9045,573.9935 L163.8954,575.7923 L159.6585,577.0437 L155.6673,578.8858 L151.6498,580.6644 L147.5729,582.3002 L147.6887,582.5657 L143.7548,583.9641 L140.0206,585.8199 L136.0226,587.0716 L132.1834,588.6869 L128.4866,590.6284 L128.5791,590.8322 L124.8444,591.9322 L121.5593,594.0223 L117.9933,595.4938 L114.3957,596.8957 L110.9345,598.5981 L110.8676,598.4558 L107.8863,600.255 L104.6081,601.4224 L101.6416,603.2533 L98.2905,604.2653 L95.26,605.96 " fill="none" style="stroke:#666666;stroke-width:1.0;"/><polygon fill="#666666" points="486.97,510.09,486.9888,510.1575,485.0357,509.4272,483.1929,509.0925,481.3142,508.6291,479.3173,507.7419,477.484,507.4412,477.4686,507.4204,478.307,508.0023,479.2234,508.689,480.1939,509.4485,480.9778,509.957,482.0231,510.8171,482.1712,510.9272,481.1794,511.5995,480.6199,512.5934,480.1132,513.6265,479.2995,514.4313,478.6473,515.3562,478.6595,515.3754,480.3062,514.294,482.0082,513.3,483.6835,512.2638,485.4099,511.3082,486.97,510.09" style="stroke:#666666;stroke-width:1.0;"/><text fill="#666666" font-family="sans-serif" font-size="12" lengthAdjust="spacing" textLength="101" x="255" y="564.957">data management</text><!--MD5=[5bbf71593c2623e471f8bf7d4e705cc0]
link target_marketing_syst to marketing_manager--><path d="M597.73,519.3 L598.0001,519.3748 L600.0139,529.3238 L603.6109,539.7113 L606.6923,549.956 L608.0783,559.7312 L611.7114,570.1286 L614.0795,580.1758 L616.951,590.3623 L620.26,600.67 " fill="none" style="stroke:#666666;stroke-width:1.0;"/><polygon fill="#666666" points="621.67,605.74,621.7393,605.7502,621.8203,603.7711,622.3077,601.8519,622.6627,599.9131,622.5826,597.9103,623.1048,595.9962,623.0823,595.9835,622.4254,596.9119,621.8822,597.9045,621.4181,598.9416,620.6815,599.8251,620.3266,600.9238,620.4173,601.0846,619.2379,600.1852,618.3232,599.7551,617.4408,599.3823,616.3705,598.6764,615.399,598.1456,615.4165,598.1601,616.645,599.6577,617.9533,601.2213,619.2231,602.753,620.5663,604.3454,621.67,605.74" style="stroke:#666666;stroke-width:1.0;"/><polygon fill="#666666" points="596.31,514.18,596.3793,514.1902,595.8864,516.1086,595.7998,518.0869,595.5809,520.0457,594.9269,521.9404,594.8752,523.9238,594.8526,523.9111,595.307,522.8684,595.8751,521.8899,596.5223,520.956,596.897,519.8685,597.6534,518.9962,597.744,519.1569,598.5357,519.3688,599.5921,520.05,600.6807,520.7885,601.5814,521.1938,602.581,521.7744,602.5985,521.7889,601.3186,520.2487,600.1185,518.7745,598.8799,517.2685,597.7147,515.8232,596.31,514.18" style="stroke:#666666;stroke-width:1.0;"/><text fill="#666666" font-family="sans-serif" font-size="12" lengthAdjust="spacing" textLength="116" x="614" y="557.457">analytics, campaigns</text><text fill="#666666" font-family="sans-serif" font-size="12" lengthAdjust="spacing" textLength="48" x="649.5" y="572.5508">planning</text><!--MD5=[dad39562c7153a8eada50e8956f866f6]
link target_marketing_syst to owner--><path d="M532.37,514.03 L532.4083,514.1152 L529.5748,515.0852 L526.9659,516.5547 L524.2839,517.8615 L521.3613,518.6335 L518.7717,520.1458 L518.7558,520.1151 L515.973,521.3816 L513.2702,522.8026 L510.623,524.3312 L507.7841,525.4893 L505.2138,527.1663 L505.3415,527.3765 L502.4538,528.5158 L499.9392,530.2691 L497.47,532.0972 L494.7361,533.4895 L492.1414,535.1111 L492.1593,535.1356 L489.7047,536.8774 L487.3317,538.7307 L484.9193,540.5302 L482.5821,542.4323 L480,544 L480.2049,544.2167 L477.43,546.8452 L474.5229,549.3339 L471.8092,552.0272 L469.1047,554.73 L466.1128,557.1291 L465.8669,556.9235 L463.8671,560.2861 L461.0576,562.9719 L458.8637,566.1723 L456.0358,568.8427 L453.7275,571.9475 L453.7026,571.93 L451.8644,575.1734 L449.4442,578.0079 L447.3674,581.0837 L445.3194,584.1798 L443.0634,587.1297 L443.2211,587.2264 L441.3173,589.9728 L439.6829,592.8846 L437.6125,595.5288 L436.1924,598.572 L434.34,601.35 " fill="none" style="stroke:#666666;stroke-width:1.0;"/><polygon fill="#666666" points="431.86,605.71,431.9016,605.7663,433.3618,604.428,435.0662,603.4199,436.691,602.3042,438.0543,600.8349,439.7796,599.8551,439.7727,599.8302,438.6512,600.0192,437.5645,600.3342,436.5019,600.7367,435.3561,600.8376,434.3269,601.3609,434.5048,601.41,433.8232,600.2144,433.661,599.1623,433.5622,598.1276,433.0947,596.9911,432.8211,595.9081,432.8437,595.9104,432.6183,597.8675,432.4959,599.8347,432.3238,601.797,432.2465,603.7687,431.86,605.71" style="stroke:#666666;stroke-width:1.0;"/><text fill="#666666" font-family="sans-serif" font-size="12" lengthAdjust="spacing" textLength="114" x="481" y="564.957">analytics, accounting</text><!--MD5=[2b8880a1be681e6a94dd3a349bcc974a]
link buyer to target_marketing_syst--><path d="M720.41,415.82 L720.5535,416.0607 L711.6579,420.3965 L703.6038,426.1432 L695.2757,431.4304 L686.0464,435.2067 L678.0115,440.9856 L669.3042,445.6371 L660.8645,450.7372 L652.6107,456.1492 L643.716,460.4865 L636.0972,466.9631 L627.25,471.38 " fill="none" style="stroke:#666666;stroke-width:1.0;"/><polygon fill="#666666" points="622.91,473.97,622.9184,474.0396,624.8492,473.5976,626.829,473.5634,628.7929,473.3964,630.7043,472.7927,632.6883,472.7935,632.682,472.7684,631.5566,472.3786,630.4632,472.1154,629.392,471.9402,628.2442,471.4617,627.2038,471.4081,627.3827,471.4533,627.2772,470.2597,627.694,469.1981,628.1746,468.1526,628.2844,467.0134,628.5892,465.9235,628.6078,465.9366,627.4447,467.5266,626.3662,469.1764,625.2468,470.7974,624.2053,472.4733,622.91,473.97" style="stroke:#666666;stroke-width:1.0;"/><polygon fill="#666666" points="724.99,413.09,724.9985,413.1595,723.0181,413.193,721.0877,413.6341,719.141,413.9425,717.1407,413.8144,715.2146,414.2905,715.2083,414.2654,716.2777,414.427,717.3788,414.7153,718.5018,415.0916,719.5491,415.1645,720.7025,415.6625,720.8816,415.7072,720.2243,416.7091,720.0898,417.8417,720.019,418.9902,719.5772,420.0459,719.3305,421.1504,719.3492,421.1635,720.4537,419.5322,721.643,417.9605,722.7915,416.36,724.0179,414.8143,724.99,413.09" style="stroke:#666666;stroke-width:1.0;"/><!--MD5=[186d529bec8b9be8fd7f64c10780bf38]
link seller to target_marketing_syst--><path d="M547.69,417.78 L547.9329,417.9198 L552.1546,426.091 L557.8,435.0819 L562.9818,443.8059 L566.639,451.6521 L572.3169,460.6616 L577.35,469.3 " fill="none" style="stroke:#666666;stroke-width:1.0;"/><polygon fill="#666666" points="580.04,473.97,580.1097,473.9773,579.6979,471.9965,579.6947,470.0585,579.5584,468.1065,578.9847,466.1089,579.0165,464.1745,578.9915,464.1677,578.5851,465.2299,578.3047,466.3261,578.112,467.4459,577.6172,468.4843,577.5455,469.6367,577.5935,469.8149,576.3984,469.1396,575.3435,468.9846,574.3056,468.8931,573.1683,468.4323,572.0833,468.1657,572.0967,468.184,573.6683,469.3179,575.301,470.5355,576.9043,471.7127,578.5637,472.9669,580.04,473.97" style="stroke:#666666;stroke-width:1.0;"/><polygon fill="#666666" points="544.99,413.09,545.0597,413.0972,545.0553,415.0351,545.4593,417.0153,545.7304,418.9817,545.564,420.9028,546.0031,422.8866,545.9781,422.8798,546.1613,421.7574,546.4705,420.669,546.8673,419.6043,546.9621,418.4579,547.4799,417.4259,547.5281,417.6041,548.5172,417.5185,549.647,417.953,550.7939,418.451,551.841,418.5798,552.9406,418.9027,552.954,418.9211,551.3442,417.7316,549.7955,416.6257,548.2173,415.4794,546.6953,414.4101,544.99,413.09" style="stroke:#666666;stroke-width:1.0;"/><polygon fill="#DDDDDD" points="666.5,659.125,666.5,659.3352,676.75,658.7107,687,659.3183,697.25,659.5247,707.5,658.4116,717.75,659.0473,728,658.6985,738.25,658.7415,748.5,659.0568,758.75,658.4336,769,659.6786,779.25,658.4947,789.5,658.9272,799.75,659.5569,810,659.0392,820.25,659.1932,830.5,659.125,830.4959,659.1152,831.2299,659.4729,831.9447,659.7844,832.696,660.184,833.414,660.5032,834.0355,660.5895,834.2447,660.6761,834.4068,661.3291,834.7641,662.0628,835.1305,662.8004,834.985,663.3259,835.5,664.125,836.1785,664.125,835.2035,674.0938,836.0338,684.0625,835.005,694.0313,835.4315,704,836.2416,713.9688,835.4513,723.9375,835.6053,733.9063,835.8386,743.875,835.9162,753.8438,835.4961,763.8125,835.5,773.7813,835.5885,773.8179,835.0308,774.4153,835.0018,775.2317,834.7901,775.9725,834.4653,776.6664,834.0355,777.3168,834.1137,777.5056,833.2668,777.4609,832.5381,777.7017,831.8349,778.0041,831.1996,778.4702,830.5,778.7813,830.5,778.5847,820.25,779.4627,810,778.6066,799.75,778.4382,789.5,779.0095,779.25,778.1144,769,778.2621,758.75,779.4302,748.5,779.2169,738.25,779.5157,728,778.4595,717.75,779.1004,707.5,779.3717,697.25,778.3088,687,778.6854,676.75,778.9072,666.5,778.7813,666.5831,778.982,665.7924,778.4871,665.1448,778.3379,664.308,777.732,663.5852,777.4011,662.9645,777.3168,663.1196,777.381,662.4508,776.5182,662.5354,775.9675,662.1494,775.2218,661.7104,774.4542,661.5,773.7813,661.1462,773.7813,661.9588,763.8125,661.2007,753.8438,662.0919,743.875,660.9473,733.9063,662.1174,723.9375,661.9843,713.9688,661.745,704,661.5472,694.0313,662.2266,684.0625,662.1136,674.0938,661.5,664.125,661.5521,664.1466,661.8755,663.4521,662.0457,662.6942,662.5993,662.0951,662.7193,661.3163,662.9645,660.5895,662.9865,660.6426,663.594,660.1092,664.327,659.8789,665.1535,659.8742,665.8477,659.5502,666.5,659.125" style="stroke:#000000;stroke-width:1.0;"/><text fill="#000000" font-family="sans-serif" font-size="14" font-weight="bold" lengthAdjust="spacing" textLength="0" x="723.5" y="680.6582"/><text fill="#000000" font-family="sans-serif" font-size="14" font-weight="bold" lengthAdjust="spacing" textLength="33" x="727.5" y="680.6582">Type</text><polygon fill="#08427B" points="667.5,683.7344,667.5,683.9446,676.8333,683.3201,686.1667,683.9277,695.5,684.1341,704.8333,683.021,714.1667,683.6567,723.5,683.7344,723.3578,683.7344,723.3722,687.2563,723.4773,690.7781,723.2695,694.3,723.6845,697.8219,723.5,701.3438,723.5,700.7135,714.1667,701.146,704.8333,701.7757,695.5,701.258,686.1667,701.412,676.8333,701.3118,667.5,701.3438,667.5595,701.3438,667.5797,697.8219,667.6952,694.3,667.7237,690.7781,667.7264,687.2563,667.5,683.7344" style="stroke:none;stroke-width:1.0;"/><text fill="#000000" font-family="sans-serif" font-size="14" lengthAdjust="spacing" textLength="0" x="691.5" y="698.2676"/><text fill="#000000" font-family="sans-serif" font-size="14" lengthAdjust="spacing" textLength="44" x="727.5" y="698.2676">person</text><polygon fill="#686868" points="667.5,701.3438,667.5,701.5539,676.8333,700.9294,686.1667,701.537,695.5,701.7434,704.8333,700.6304,714.1667,701.266,723.5,701.3438,723.3578,701.3438,723.3722,704.8656,723.4773,708.3875,723.2695,711.9094,723.6845,715.4313,723.5,718.9531,723.5,718.3228,714.1667,718.7554,704.8333,719.3851,695.5,718.8673,686.1667,719.0214,676.8333,718.9212,667.5,718.9531,667.5595,718.9531,667.5797,715.4313,667.6952,711.9094,667.7237,708.3875,667.7264,704.8656,667.5,701.3438" style="stroke:none;stroke-width:1.0;"/><text fill="#000000" font-family="sans-serif" font-size="14" lengthAdjust="spacing" textLength="0" x="691.5" y="715.877"/><text fill="#000000" font-family="sans-serif" font-size="14" lengthAdjust="spacing" textLength="98" x="727.5" y="715.877">external person</text><polygon fill="#1168BD" points="667.5,718.9531,667.5,719.1633,676.8333,718.5388,686.1667,719.1464,695.5,719.3528,704.8333,718.2397,714.1667,718.8754,723.5,718.9531,723.3578,718.9531,723.3722,722.475,723.4773,725.9969,723.2695,729.5188,723.6845,733.0406,723.5,736.5625,723.5,735.9322,714.1667,736.3647,704.8333,736.9944,695.5,736.4767,686.1667,736.6307,676.8333,736.5306,667.5,736.5625,667.5595,736.5625,667.5797,733.0406,667.6952,729.5188,667.7237,725.9969,667.7264,722.475,667.5,718.9531" style="stroke:none;stroke-width:1.0;"/><text fill="#000000" font-family="sans-serif" font-size="14" lengthAdjust="spacing" textLength="0" x="679.5" y="733.4863"/><text fill="#000000" font-family="sans-serif" font-size="14" lengthAdjust="spacing" textLength="44" x="727.5" y="733.4863">system</text><polygon fill="#999999" points="667.5,736.5625,667.5,736.7727,676.8333,736.1482,686.1667,736.7558,695.5,736.9622,704.8333,735.8491,714.1667,736.4848,723.5,736.5625,723.3578,736.5625,723.3722,740.0844,723.4773,743.6063,723.2695,747.1281,723.6845,750.65,723.5,754.1719,723.5,753.5416,714.1667,753.9741,704.8333,754.6038,695.5,754.0861,686.1667,754.2401,676.8333,754.1399,667.5,754.1719,667.5595,754.1719,667.5797,750.65,667.6952,747.1281,667.7237,743.6063,667.7264,740.0844,667.5,736.5625" style="stroke:none;stroke-width:1.0;"/><text fill="#000000" font-family="sans-serif" font-size="14" lengthAdjust="spacing" textLength="0" x="691.5" y="751.0957"/><text fill="#000000" font-family="sans-serif" font-size="14" lengthAdjust="spacing" textLength="98" x="727.5" y="751.0957">external system</text><polygon fill="#438DD5" points="667.5,754.1719,667.5,754.3821,676.8333,753.7576,686.1667,754.3652,695.5,754.5716,704.8333,753.4585,714.1667,754.0942,723.5,754.1719,723.3578,754.1719,723.3722,757.6938,723.4773,761.2156,723.2695,764.7375,723.6845,768.2594,723.5,771.7813,723.5,771.151,714.1667,771.5835,704.8333,772.2132,695.5,771.6955,686.1667,771.8495,676.8333,771.7493,667.5,771.7813,667.5595,771.7813,667.5797,768.2594,667.6952,764.7375,667.7237,761.2156,667.7264,757.6938,667.5,754.1719" style="stroke:none;stroke-width:1.0;"/><text fill="#000000" font-family="sans-serif" font-size="14" lengthAdjust="spacing" textLength="0" x="679.5" y="768.7051"/><text fill="#000000" font-family="sans-serif" font-size="14" lengthAdjust="spacing" textLength="59" x="727.5" y="768.7051">container</text><path d="M667.5,666.125 L667.5,666.4052 L677.625,665.5726 L687.75,666.3827 L697.875,666.6579 L708,665.1738 L718.125,666.0214 L728.25,665.5563 L738.375,665.6137 L748.5,666.0341 L758.625,665.2032 L768.75,666.8632 L778.875,665.2846 L789,665.8613 L799.125,666.7009 L809.25,666.0106 L819.375,666.216 L829.5,666.125 " fill="none" style="stroke:#000000;stroke-width:1.0;"/><path d="M667.5,683.7344 L667.5,684.0146 L677.625,683.1819 L687.75,683.9921 L697.875,684.2673 L708,682.7832 L718.125,683.6308 L728.25,683.1657 L738.375,683.223 L748.5,683.6435 L758.625,682.8125 L768.75,684.4726 L778.875,682.894 L789,683.4707 L799.125,684.3103 L809.25,683.62 L819.375,683.8254 L829.5,683.7344 " fill="none" style="stroke:#000000;stroke-width:1.0;"/><path d="M667.5,701.3438 L667.5,701.624 L677.625,700.7913 L687.75,701.6015 L697.875,701.8767 L708,700.3926 L718.125,701.2401 L728.25,700.7751 L738.375,700.8324 L748.5,701.2529 L758.625,700.4219 L768.75,702.0819 L778.875,700.5034 L789,701.0801 L799.125,701.9197 L809.25,701.2294 L819.375,701.4347 L829.5,701.3438 " fill="none" style="stroke:#000000;stroke-width:1.0;"/><path d="M667.5,718.9531 L667.5,719.2334 L677.625,718.4007 L687.75,719.2108 L697.875,719.486 L708,718.0019 L718.125,718.8495 L728.25,718.3845 L738.375,718.4418 L748.5,718.8622 L758.625,718.0313 L768.75,719.6913 L778.875,718.1128 L789,718.6894 L799.125,719.5291 L809.25,718.8388 L819.375,719.0441 L829.5,718.9531 " fill="none" style="stroke:#000000;stroke-width:1.0;"/><path d="M667.5,736.5625 L667.5,736.8427 L677.625,736.0101 L687.75,736.8202 L697.875,737.0954 L708,735.6113 L718.125,736.4589 L728.25,735.9938 L738.375,736.0512 L748.5,736.4716 L758.625,735.6407 L768.75,737.3007 L778.875,735.7221 L789,736.2988 L799.125,737.1384 L809.25,736.4481 L819.375,736.6535 L829.5,736.5625 " fill="none" style="stroke:#000000;stroke-width:1.0;"/><path d="M667.5,754.1719 L667.5,754.4521 L677.625,753.6194 L687.75,754.4296 L697.875,754.7048 L708,753.2207 L718.125,754.0683 L728.25,753.6032 L738.375,753.6605 L748.5,754.081 L758.625,753.25 L768.75,754.9101 L778.875,753.3315 L789,753.9082 L799.125,754.7478 L809.25,754.0575 L819.375,754.2629 L829.5,754.1719 " fill="none" style="stroke:#000000;stroke-width:1.0;"/><path d="M667.5,771.7813 L667.5,772.0615 L677.625,771.2288 L687.75,772.039 L697.875,772.3142 L708,770.8301 L718.125,771.6776 L728.25,771.2126 L738.375,771.2699 L748.5,771.6904 L758.625,770.8594 L768.75,772.5194 L778.875,770.9409 L789,771.5176 L799.125,772.3572 L809.25,771.6669 L819.375,771.8722 L829.5,771.7813 " fill="none" style="stroke:#000000;stroke-width:1.0;"/><path d="M667.5,666.125 L667.7802,666.125 L666.9476,675.7301 L667.7577,685.3352 L668.0329,694.9403 L666.5488,704.5455 L667.3964,714.1506 L666.9313,723.7557 L666.9887,733.3608 L667.4091,742.9659 L666.5782,752.571 L668.2382,762.1761 L667.5,771.7813 " fill="none" style="stroke:#000000;stroke-width:1.0;"/><path d="M723.5,666.125 L723.7802,666.125 L722.9476,675.7301 L723.7577,685.3352 L724.0329,694.9403 L722.5488,704.5455 L723.3964,714.1506 L722.9313,723.7557 L722.9887,733.3608 L723.4091,742.9659 L722.5782,752.571 L724.2382,762.1761 L723.5,771.7813 " fill="none" style="stroke:#000000;stroke-width:1.0;"/><path d="M829.5,666.125 L829.7802,666.125 L828.9476,675.7301 L829.7577,685.3352 L830.0329,694.9403 L828.5488,704.5455 L829.3964,714.1506 L828.9313,723.7557 L828.9887,733.3608 L829.4091,742.9659 L828.5782,752.571 L830.2382,762.1761 L829.5,771.7813 " fill="none" style="stroke:#000000;stroke-width:1.0;"/><!--MD5=[6d6c37e08de809a676499976781e4fad]
@startuml context
skinparam handwritten true
!includeurl https://raw.githubusercontent.com/RicardoNiepel/C4-PlantUML/release/1-0/C4_Container.puml
LAYOUT_TOP_DOWN
LAYOUT_WITH_LEGEND()
Person(operator, "Operator")
' Person(phone_operator, "Phone operator")
' Person(xls_operator, "Excel operator")
' Person(receptionist, "Receptionist")
' Person(manager, "On-site Manager")
Person(admin, "IT Support")
Person(marketing_manager, "Marketing Manager")
Person(owner, "Owner")
Person_Ext(client, "Client")

System_Ext(voip, "VoIP vendor")
System(target_proc_syst, "Target processing system")
System(target_marketing_syst, "Target marketing system")
System_Ext(target_vendors, "Target vendors")

Person_Ext(buyer, "Ancillary goods Buyer")
Person_Ext(seller, "Ancillary goods Seller")

client - -> voip: phone call
voip ..> operator
client - -> operator: personal visit
voip ..>  target_proc_syst
client - -> target_proc_syst: web-site/mobile app
operator - -> target_proc_syst: better entry UX and/or old Excel approach
target_proc_syst <- -> target_vendors
target_proc_syst <- -> target_marketing_syst
target_marketing_syst <- -> target_vendors
target_proc_syst <- - admin: data management
target_proc_syst - -> owner: analytics, accounting
target_marketing_syst <- - admin: data management
target_marketing_syst <- -> marketing_manager: analytics, campaigns planning
target_marketing_syst - -> owner: analytics, accounting

buyer <- -> target_marketing_syst
seller <- -> target_marketing_syst

@enduml

@startuml context
skinparam handwritten true





skinparam defaultTextAlignment center

skinparam wrapWidth 200
skinparam maxMessageSize 150

skinparam rectangle {
    StereotypeFontSize 12
    shadowing false
}

skinparam database {
    StereotypeFontSize 12
    shadowing false
}

skinparam Arrow {
    Color #666666
    FontColor #666666
    FontSize 12
}

skinparam rectangle<<boundary>> {
    Shadowing false
    StereotypeFontSize 0
    FontColor #444444
    BorderColor #444444
    BorderStyle dashed
}






















skinparam rectangle<<person>> {
    StereotypeFontColor #FFFFFF
    FontColor #FFFFFF
    BackgroundColor #08427B
    BorderColor #073B6F
}

skinparam rectangle<<external_person>> {
    StereotypeFontColor #FFFFFF
    FontColor #FFFFFF
    BackgroundColor #686868
    BorderColor #8A8A8A
}

skinparam rectangle<<system>> {
    StereotypeFontColor #FFFFFF
    FontColor #FFFFFF
    BackgroundColor #1168BD
    BorderColor #3C7FC0
}

skinparam rectangle<<external_system>> {
    StereotypeFontColor #FFFFFF
    FontColor #FFFFFF
    BackgroundColor #999999
    BorderColor #8A8A8A
}

skinparam database<<system>> {
    StereotypeFontColor #FFFFFF
    FontColor #FFFFFF
    BackgroundColor #1168BD
    BorderColor #3C7FC0
}

skinparam database<<external_system>> {
    StereotypeFontColor #FFFFFF
    FontColor #FFFFFF
    BackgroundColor #999999
    BorderColor #8A8A8A
}
















skinparam rectangle<<container>> {
    StereotypeFontColor #FFFFFF
    FontColor #FFFFFF
    BackgroundColor #438DD5
    BorderColor #3C7FC0
}

skinparam database<<container>> {
    StereotypeFontColor #FFFFFF
    FontColor #FFFFFF
    BackgroundColor #438DD5
    BorderColor #3C7FC0
}







top to bottom direction
hide stereotype
legend right
|=              |= Type |
|<#08427B>      | person |
|<#686868>      | external person |
|<#1168BD>   | system |
|<#999999>      | external system |
|<#438DD5>   | container |
endlegend
rectangle "==Operator" <<person>> as operator
rectangle "==IT Support" <<person>> as admin
rectangle "==Marketing Manager" <<person>> as marketing_manager
rectangle "==Owner" <<person>> as owner
rectangle "==Client" <<external_person>> as client

rectangle "==VoIP vendor" <<external_system>> as voip
rectangle "==Target processing system" <<system>> as target_proc_syst
rectangle "==Target marketing system" <<system>> as target_marketing_syst
rectangle "==Target vendors" <<external_system>> as target_vendors

rectangle "==Ancillary goods Buyer" <<external_person>> as buyer
rectangle "==Ancillary goods Seller" <<external_person>> as seller

client - -> voip: phone call
voip ..> operator
client - -> operator: personal visit
voip ..>  target_proc_syst
client - -> target_proc_syst: web-site/mobile app
operator - -> target_proc_syst: better entry UX and/or old Excel approach
target_proc_syst <- -> target_vendors
target_proc_syst <- -> target_marketing_syst
target_marketing_syst <- -> target_vendors
target_proc_syst <- - admin: data management
target_proc_syst - -> owner: analytics, accounting
target_marketing_syst <- - admin: data management
target_marketing_syst <- -> marketing_manager: analytics, campaigns planning
target_marketing_syst - -> owner: analytics, accounting

buyer <- -> target_marketing_syst
seller <- -> target_marketing_syst

@enduml

PlantUML version 1.2021.00(Sun Jan 10 12:25:05 EET 2021)
(GPL source distribution)
Java Runtime: Java(TM) SE Runtime Environment
JVM: Java HotSpot(TM) Client VM
Default Encoding: Cp1251
Language: en
Country: US
--></g></svg>