<?xml version="1.0" encoding="UTF-8" standalone="no"?><svg xmlns="http://www.w3.org/2000/svg" xmlns:xlink="http://www.w3.org/1999/xlink" contentScriptType="application/ecmascript" contentStyleType="text/css" height="794px" preserveAspectRatio="none" style="width:757px;height:794px;" version="1.1" viewBox="0 0 757 794" width="757px" zoomAndPan="magnify"><defs/><g><!--MD5=[0050c6625e3b42e2857ba4d8ed699679]
entity operator--><polygon fill="#08427B" points="7,241,7,241.2102,16.6667,240.5857,26.3333,241.1933,36,241.3997,45.6667,240.2866,55.3333,240.9223,65,240.5735,74.6667,240.6165,84.3333,240.9318,94,241,93.7695,241,94.1845,249.025,93.7899,257.05,93.9341,265.075,94.144,273.1,94,281.125,94,281.0392,84.3333,281.1932,74.6667,281.0931,65,281.3035,55.3333,281.3641,45.6667,281.7107,36,281.7961,26.3333,281.8043,16.6667,281.3796,7,281.125,7.1545,281.125,7.2341,273.1,6.7596,265.075,7.2262,257.05,6.9012,249.025,7,241" style="stroke:#073B6F;stroke-width:1.5;"/><text fill="#FFFFFF" font-family="sans-serif" font-size="16" font-weight="bold" lengthAdjust="spacing" textLength="67" x="17" y="267.6094">Operator</text><!--MD5=[79a439086b036a57b90a01d7b2f8bbd1]
entity admin--><polygon fill="#08427B" points="34.5,606,34.5,606.2102,44.5,605.5857,54.5,606.1933,64.5,606.3997,74.5,605.2866,84.5,605.9223,94.5,605.5735,104.5,605.6165,114.5,605.9318,124.5,605.3086,134.5,606,134.6845,606,134.2899,614.025,134.4341,622.05,134.644,630.075,134.4714,638.1,134.5,646.125,134.5,646.1932,124.5,646.0931,114.5,646.3035,104.5,646.3641,94.5,646.7107,84.5,646.7961,74.5,646.8043,64.5,646.3796,54.5,646.5886,44.5,646.8272,34.5,646.125,34.2596,646.125,34.7262,638.1,34.4012,630.075,34.6779,622.05,34.335,614.025,34.5,606" style="stroke:#073B6F;stroke-width:1.5;"/><text fill="#FFFFFF" font-family="sans-serif" font-size="16" font-weight="bold" lengthAdjust="spacing" textLength="80" x="44.5" y="632.6094">IT Support</text><!--MD5=[3375834085b82f1b76f095371f5f25ba]
entity marketing_manager--><polygon fill="#08427B" points="415,606,415,606.2102,424.7059,605.5857,434.4118,606.1933,444.1176,606.3997,453.8235,605.2866,463.5294,605.9223,473.2353,605.5735,482.9412,605.6165,492.6471,605.9318,502.3529,605.3086,512.0588,606.5536,521.7647,605.3697,531.4706,605.8022,541.1765,606.4319,550.8824,605.9142,560.5882,606.0682,570.2941,605.9681,580,606,580.0595,606,580.0797,614.025,580.1952,622.05,580.2237,630.075,580.2264,638.1,580,646.125,580,646.3796,570.2941,646.5886,560.5882,646.8272,550.8824,645.4038,541.1765,646.8035,531.4706,645.8285,521.7647,646.6588,512.0588,645.63,502.3529,646.0565,492.6471,646.8666,482.9412,646.0763,473.2353,646.2303,463.5294,646.4636,453.8235,646.5412,444.1176,646.1211,434.4118,646.4122,424.7059,645.5526,415,646.125,415.0948,646.125,415.1827,638.1,415.1482,630.075,415.2043,622.05,414.839,614.025,415,606" style="stroke:#073B6F;stroke-width:1.5;"/><text fill="#FFFFFF" font-family="sans-serif" font-size="16" font-weight="bold" lengthAdjust="spacing" textLength="145" x="425" y="632.6094">Marketing Manager</text><!--MD5=[55f2968de154b8cc740615bf6e5af92f]
entity owner--><polygon fill="#08427B" points="296.5,606,296.5,606.2102,306.5,605.5857,316.5,606.1933,326.5,606.3997,336.5,605.2866,346.5,605.9223,356.5,605.5735,366.5,606,366.3722,606,366.4773,614.025,366.2695,622.05,366.6845,630.075,366.2899,638.1,366.5,646.125,366.5,645.9272,356.5,646.5569,346.5,646.0392,336.5,646.1932,326.5,646.0931,316.5,646.3035,306.5,646.3641,296.5,646.125,296.6952,646.125,296.7237,638.1,296.7264,630.075,296.5849,622.05,296.6545,614.025,296.5,606" style="stroke:#073B6F;stroke-width:1.5;"/><text fill="#FFFFFF" font-family="sans-serif" font-size="16" font-weight="bold" lengthAdjust="spacing" textLength="50" x="306.5" y="632.6094">Owner</text><!--MD5=[4a65e84059005d12693a083370a06717]
entity client--><polygon fill="#686868" points="164.5,7,164.5,7.2102,175.1667,6.5857,185.8333,7.1933,196.5,7.3997,207.1667,6.2866,217.8333,6.9223,228.5,7,228.3578,7,228.3722,15.025,228.4773,23.05,228.2695,31.075,228.6845,39.1,228.5,47.125,228.5,46.4947,217.8333,46.9272,207.1667,47.5569,196.5,47.0392,185.8333,47.1932,175.1667,47.0931,164.5,47.125,164.5595,47.125,164.5797,39.1,164.6952,31.075,164.7237,23.05,164.7264,15.025,164.5,7" style="stroke:#8A8A8A;stroke-width:1.5;"/><text fill="#FFFFFF" font-family="sans-serif" font-size="16" font-weight="bold" lengthAdjust="spacing" textLength="44" x="174.5" y="33.6094">Client</text><!--MD5=[4f98fc9e80a4599113be4b51a237f38a]
entity voip--><polygon fill="#999999" points="139.5,124,139.5,124.2102,149.8636,123.5857,160.2273,124.1933,170.5909,124.3997,180.9545,123.2866,191.3182,123.9223,201.6818,123.5735,212.0455,123.6165,222.4091,123.9318,232.7727,123.3086,243.1364,124.5536,253.5,124,253.2899,124,253.4341,132.025,253.644,140.05,253.4714,148.075,253.5227,156.1,253.5,164.125,253.5,164.0931,243.1364,164.3035,232.7727,164.3641,222.4091,164.7107,212.0455,164.7961,201.6818,164.8043,191.3182,164.3796,180.9545,164.5886,170.5909,164.8272,160.2273,163.4038,149.8636,164.8035,139.5,164.125,139.4012,164.125,139.6779,156.1,139.335,148.075,139.4772,140.05,139.7472,132.025,139.5,124" style="stroke:#8A8A8A;stroke-width:1.5;"/><text fill="#FFFFFF" font-family="sans-serif" font-size="16" font-weight="bold" lengthAdjust="spacing" textLength="94" x="149.5" y="150.6094">VoIP vendor</text><!--MD5=[bc72bf43f342d32997f7d9245e3deeb2]
entity target_proc_syst--><polygon fill="#1168BD" points="106.5,373,106.5,373.2102,116.4091,372.5857,126.3182,373.1933,136.2273,373.3997,146.1364,372.2866,156.0455,372.9223,165.9545,372.5735,175.8636,372.6165,185.7727,372.9318,195.6818,372.3086,205.5909,373.5536,215.5,372.3697,225.4091,372.8022,235.3182,373.4319,245.2273,372.9142,255.1364,373.0682,265.0455,372.9681,274.9545,373.1785,284.8636,373.2391,294.7727,373.5857,304.6818,373.6711,314.5909,373.6793,324.5,373,324.5849,373,324.6545,381.025,324.7341,389.05,324.2596,397.075,324.7262,405.1,324.5,413.125,324.5,412.8285,314.5909,413.6588,304.6818,412.63,294.7727,413.0565,284.8636,413.8666,274.9545,413.0763,265.0455,413.2303,255.1364,413.4636,245.2273,413.5412,235.3182,413.1211,225.4091,413.4122,215.5,412.5526,205.5909,413.4094,195.6818,413.6732,185.7727,413.5695,175.8636,413.738,165.9545,412.6419,156.0455,412.4728,146.1364,412.5036,136.2273,413.0661,126.3182,412.9285,116.4091,413.8064,106.5,413.125,106.4418,413.125,106.3856,405.1,106.5761,397.075,106.2777,389.05,106.327,381.025,106.5,373" style="stroke:#3C7FC0;stroke-width:1.5;"/><text fill="#FFFFFF" font-family="sans-serif" font-size="16" font-weight="bold" lengthAdjust="spacing" textLength="198" x="116.5" y="399.6094">Target processing system</text><!--MD5=[97da05a0bb8361e5aa34e2fc3482e3b9]
entity target_marketing_syst--><polygon fill="#1168BD" points="292.5,474,292.5,474.2102,302.4048,473.5857,312.3095,474.1933,322.2143,474.3997,332.119,473.2866,342.0238,473.9223,351.9286,473.5735,361.8333,473.6165,371.7381,473.9318,381.6429,473.3086,391.5476,474.5536,401.4524,473.3697,411.3571,473.8022,421.2619,474.4319,431.1667,473.9142,441.0714,474.0682,450.9762,473.9681,460.881,474.1785,470.7857,474.2391,480.6905,474.5857,490.5952,474.6711,500.5,474,500.7264,474,500.5849,482.025,500.6545,490.05,500.7341,498.075,500.2596,506.1,500.5,514.125,500.5,514.8035,490.5952,513.8285,480.6905,514.6588,470.7857,513.63,460.881,514.0565,450.9762,514.8666,441.0714,514.0763,431.1667,514.2303,421.2619,514.4636,411.3571,514.5412,401.4524,514.1211,391.5476,514.4122,381.6429,513.5526,371.7381,514.4094,361.8333,514.6732,351.9286,514.5695,342.0238,514.738,332.119,513.6419,322.2143,513.4728,312.3095,513.5036,302.4048,514.0661,292.5,514.125,292.4345,514.125,292.7271,506.1,292.4418,498.075,292.3856,490.05,292.5761,482.025,292.5,474" style="stroke:#3C7FC0;stroke-width:1.5;"/><text fill="#FFFFFF" font-family="sans-serif" font-size="16" font-weight="bold" lengthAdjust="spacing" textLength="188" x="302.5" y="500.6094">Target marketing system</text><!--MD5=[8f625b3050d4a9ffed8058b944f8faa1]
entity target_vendors--><polygon fill="#999999" points="615.5,606,615.5,606.2102,625.2143,605.5857,634.9286,606.1933,644.6429,606.3997,654.3571,605.2866,664.0714,605.9223,673.7857,605.5735,683.5,605.6165,693.2143,605.9318,702.9286,605.3086,712.6429,606.5536,722.3571,605.3697,732.0714,605.8022,741.7857,606.4319,751.5,606,751.4714,606,751.5227,614.025,751.4894,622.05,751.5595,630.075,751.5797,638.1,751.5,646.125,751.5,646.7107,741.7857,646.7961,732.0714,646.8043,722.3571,646.3796,712.6429,646.5886,702.9286,646.8272,693.2143,645.4038,683.5,646.8035,673.7857,645.8285,664.0714,646.6588,654.3571,645.63,644.6429,646.0565,634.9286,646.8666,625.2143,646.0763,615.5,646.125,615.5351,646.125,615.6129,638.1,615.6387,630.075,615.4987,622.05,615.5957,614.025,615.5,606" style="stroke:#8A8A8A;stroke-width:1.5;"/><text fill="#FFFFFF" font-family="sans-serif" font-size="16" font-weight="bold" lengthAdjust="spacing" textLength="116" x="625.5" y="632.6094">Target vendors</text><!--MD5=[93b8e507ffd96e15076c37ab7d5585c6]
link client to voip--><path d="M196.5,47.25 L196.7802,47.25 L195.9476,57.4271 L196.7577,67.6043 L197.0329,77.7814 L195.5488,87.9586 L196.3964,98.1357 L195.9313,108.3129 L196.5,118.49 " fill="none" style="stroke:#666666;stroke-width:1.0;"/><polygon fill="#666666" points="196.5,123.69,196.564,123.7185,197.1738,121.8339,198.1589,120.1162,199.0217,118.3441,199.4827,116.3934,200.5,114.69,200.4817,114.6717,199.5995,115.3895,198.8096,116.1996,198.0839,117.0739,197.137,117.727,196.5,118.69,196.6305,118.8205,195.5514,117.7414,194.8534,117.0434,194.2018,116.3918,193.2798,115.4698,192.5,114.69,192.5208,114.6992,193.2903,116.4857,194.1544,118.3142,194.9728,120.1224,195.8784,121.9693,196.5,123.69" style="stroke:#666666;stroke-width:1.0;"/><text fill="#666666" font-family="sans-serif" font-size="12" lengthAdjust="spacing" textLength="57" x="197.5" y="90.457">phone call</text><!--MD5=[ea91bafe0c4722dc0107ef2a90378272]
link voip to operator--><path d="M172.06,164.25 L172.2334,164.4701 L163.984,169.9085 L156.7511,176.6374 L149.1873,182.9461 L140.5347,187.8728 L133.325,194.6311 L125.3031,200.3583 L117.6044,206.4958 L110.1304,212.9186 L101.8821,218.3584 L95.1751,225.7549 L86.4641,230.6073 L79.25,237.36 " fill="none" style="stroke:#666666;stroke-width:1.0;stroke-dasharray:7.0,7.0;"/><polygon fill="#666666" points="75.02,240.69,75.0373,240.7579,76.8945,240.0692,78.8532,239.7784,80.7788,239.3581,82.5957,238.5116,84.5631,238.255,84.5601,238.2293,83.4229,237.9813,82.3009,237.8631,81.1897,237.8351,80.0418,237.4963,78.9451,237.5927,79.1284,237.6143,78.869,236.4445,79.1446,235.3378,79.4855,234.2388,79.4466,233.095,79.6074,231.9748,79.6276,231.9853,78.6805,233.7128,77.8251,235.4886,76.9255,237.241,76.1102,239.0379,75.02,240.69" style="stroke:#666666;stroke-width:1.0;"/><!--MD5=[e45c2a2784d366d45211861b37fbdda9]
link client to operator--><path d="M164.35,38.08 L164.384,38.167 L161.4013,39.0339 L158.6179,40.4108 L155.7695,41.6217 L152.7079,42.2863 L149.9415,43.707 L149.9275,43.6754 L146.7182,44.9296 L143.5795,46.343 L140.4899,47.867 L137.2311,49.0098 L134.2092,50.6866 L134.321,50.9058 L130.7939,52.1143 L127.5931,53.9628 L124.4322,55.8893 L121.0396,57.3616 L117.7688,59.0729 L117.7844,59.0989 L114.4551,61.0301 L111.1964,63.0799 L107.9037,65.0725 L104.676,67.1742 L101.2363,68.92 L101.4089,69.1632 L98.2092,71.4386 L94.8981,73.5571 L91.7501,75.9053 L88.6097,78.2642 L85.2272,80.2821 L85.0169,80.0403 L82.4512,83.096 L79.1929,85.3552 L76.4612,88.2199 L73.1872,90.4612 L70.3577,93.2134 L70.335,93.1931 L67.9796,96.345 L65.0958,99.0208 L62.5238,101.9775 L59.978,104.9578 L57.2433,107.768 L57.3976,107.8701 L55.0932,111.0134 L53.0524,114.3313 L50.5852,117.3668 L48.7541,120.8234 L46.5,124 L46.7233,124.0975 L45.4893,126.8069 L44.3662,129.5648 L42.728,132.0976 L41.4674,134.7953 L40.5413,137.6392 L40.2739,137.5698 L39.7648,140.5279 L38.9545,143.4078 L38.581,146.401 L37.4616,149.2007 L36.7856,152.1155 L36.6343,152.0965 L36.5122,155.1153 L35.7434,158.0532 L35.4345,161.0486 L35.5756,164.1004 L34.9153,167.0518 L35.1089,167.0557 L35.1811,170.0623 L34.6512,173.0567 L34.8755,176.0663 L34.9354,179.0727 L34.6125,182.0713 L34.403,182.0578 L34.7594,185.0136 L35.0471,187.9651 L35.4697,190.9252 L35.3681,193.8516 L35.5594,196.7968 L35.7631,196.824 L35.6912,199.5751 L36.0125,202.3787 L36.9085,205.2592 L36.7465,207.9983 L37.4381,210.8514 L37.6603,210.894 L38.0269,213.47 L38.3183,216.0317 L38.7794,218.6259 L39.6326,221.2952 L39.9309,223.8581 L39.8016,223.827 L40.7445,226.2361 L40.8077,228.4334 L41.8712,230.8715 L42.3715,233.174 L42.72,235.44 " fill="none" style="stroke:#666666;stroke-width:1.0;"/><polygon fill="#666666" points="44.12,240.56,44.1893,240.5705,44.2773,238.5917,44.7713,236.6741,45.1332,234.7367,45.0601,232.7336,45.5891,230.8213,45.5666,230.8085,44.9064,231.7346,44.3597,232.7253,43.892,233.7608,43.1523,234.6417,42.7936,235.7392,42.8848,235.8996,41.7062,234.9974,40.7938,234.5636,39.914,234.187,38.8452,233.4779,37.8757,232.9436,37.8933,232.9581,39.1163,234.4602,40.4195,236.0279,41.6839,237.564,43.0221,239.1605,44.12,240.56" style="stroke:#666666;stroke-width:1.0;"/><text fill="#666666" font-family="sans-serif" font-size="12" lengthAdjust="spacing" textLength="73" x="47.5" y="148.957">personal visit</text><!--MD5=[f343fbcd8dbbe42759cd385de8bb92f3]
link voip to target_proc_syst--><path d="M197.99,164.38 L198.2694,164.4015 L198.2207,174.4981 L199.81,184.7208 L200.8658,194.9024 L200.1676,204.9491 L201.7942,215.1746 L202.112,225.2994 L202.9507,235.4643 L204.1514,245.657 L204.1044,255.7538 L206.541,266.0416 L205.7486,276.0811 L207.1051,286.2858 L208.7237,296.5107 L208.817,306.6182 L209.8032,316.7945 L210.4515,326.9447 L211.5128,337.1268 L212.3749,347.2935 L213.6171,357.4894 L213.62,367.59 " fill="none" style="stroke:#666666;stroke-width:1.0;stroke-dasharray:7.0,7.0;"/><polygon fill="#666666" points="214.02,372.71,214.086,372.7334,214.5486,370.8075,215.3983,369.0189,216.1219,367.1855,216.431,365.2051,217.3139,363.4283,217.2942,363.4114,216.47,364.1951,215.745,365.0638,215.0889,365.9915,214.1952,366.7157,213.6343,367.7249,213.7544,367.8651,212.6384,366.8294,211.8728,366.203,211.15,365.6265,210.1784,364.7595,209.3377,364.0453,209.3577,364.0562,210.2648,365.7732,211.263,367.5395,212.2172,369.282,213.2553,371.0699,214.02,372.71" style="stroke:#666666;stroke-width:1.0;"/><!--MD5=[6fb7b87f8f04c9f2a8da478b068aa2be]
link client to target_proc_syst--><path d="M228.67,44.18 L228.7226,44.2572 L230.5071,45.3519 L232.6002,46.899 L234.5928,48.2988 L236.2549,49.2142 L238.3745,50.8002 L238.3527,50.7734 L240.1411,52.192 L242.0395,53.7455 L244.0144,55.3928 L245.7257,56.7169 L247.8063,58.4937 L247.9819,58.666 L249.3204,60.046 L251.1719,61.9289 L253.086,63.8732 L254.6359,65.4604 L256.3773,67.2355 L256.4018,67.2533 L257.7904,69.18 L259.2905,71.188 L260.7368,73.1568 L262.2858,75.2005 L263.5,77 L263.7713,77.1238 L264.8709,79.5273 L265.7955,81.8509 L266.9762,84.2914 L268.1689,86.7373 L268.9813,89.0097 L268.6641,88.963 L269.5853,91.1282 L269.4624,93.1396 L270.1332,95.268 L269.9866,97.2759 L270.51,99.3825 L270.4796,99.3819 L270.7943,101.5756 L270.3978,103.7547 L270.421,105.9424 L270.4795,108.1309 L270.2838,110.3141 L270.4687,110.317 L270.3253,113.0512 L270.4979,115.7905 L270.1591,118.5216 L270.5831,121.2648 L270.5,124 L270.7431,124.0159 L270.927,127.5335 L271.2316,131.0591 L270.9753,134.548 L271.1302,138.0638 L271.6492,141.6034 L271.3733,141.591 L271.7674,144.8292 L271.8506,148.0535 L272.3846,151.298 L272.1488,154.5081 L272.3707,157.7386 L272.2182,157.7356 L272.5308,160.7145 L272.1918,163.6806 L272.3161,166.6559 L272.8938,169.6401 L272.6642,172.6084 L272.8578,172.6103 L272.9637,175.373 L272.4674,178.1298 L272.7253,180.894 L272.819,183.6566 L272.5297,186.4155 L272.3199,186.4064 L272.3746,189.003 L272.3606,191.5967 L272.4815,194.1963 L272.0778,196.7731 L271.9671,199.3626 L272.172,199.3791 L271.5236,201.8008 L271.2708,204.2543 L271.5958,206.7545 L270.8569,209.1689 L270.9764,211.6524 L271.201,211.6794 L270.7837,214.0304 L270.2905,216.3724 L269.9688,218.7349 L270.0436,221.145 L269.5574,223.4878 L269.426,223.4668 L269.4477,225.8459 L268.5758,228.0825 L268.7199,230.4811 L268.292,232.7885 L267.71,235.0713 L267.8168,235.0923 L267.2754,237.3822 L267.1165,239.7475 L266.6121,242.0447 L265.9632,244.3133 L265.4342,246.6056 L265.5503,246.6325 L264.8369,248.9302 L264.6627,251.3526 L263.8787,253.634 L263.3455,255.9733 L262.7299,258.2937 L262.4682,258.2256 L261.929,260.6572 L261.705,263.1708 L261.035,265.5683 L260.2051,267.9243 L259.5969,270.338 L259.4592,270.2991 L258.791,272.8322 L257.8788,275.2964 L257.6373,277.9502 L257.0639,280.5101 L256.0353,282.9414 L256.2592,283.0094 L254.6489,288.5701 L252.6133,294.0017 L251.0266,299.5696 L249.1427,305.0472 L247.6256,310.6363 L247.7461,310.674 L245.7051,317.1418 L243.8097,323.6551 L241.4528,330.024 L239.4681,336.5094 L237.5,343 L237.6855,343.0666 L236.8208,345.6384 L235.4526,348.0295 L234.6694,350.6306 L233.8964,353.2354 L232.9175,355.7663 L232.6681,355.6589 L231.9983,358.2991 L230.8958,360.7531 L229.6859,363.1608 L228.7216,365.6742 L227.6,368.12 " fill="none" style="stroke:#666666;stroke-width:1.0;"/><polygon fill="#666666" points="225.38,372.86,225.4258,372.913,226.7793,371.4668,228.4016,370.3313,229.9363,369.0946,231.1832,367.5253,232.8285,366.4164,232.8197,366.3921,231.716,366.6664,230.6565,367.0636,229.6279,367.5462,228.4931,367.7344,227.5069,368.3349,227.6805,368.3975,226.9256,367.1994,226.6775,366.1839,226.4913,365.1908,225.9452,364.068,225.5884,363.0133,225.6112,363.0138,225.5361,364.9825,225.5645,366.9533,225.5431,368.923,225.6169,370.8948,225.38,372.86" style="stroke:#666666;stroke-width:1.0;"/><text fill="#666666" font-family="sans-serif" font-size="12" lengthAdjust="spacing" textLength="112" x="273.5" y="207.457">web-site/mobile app</text><!--MD5=[b60212a03d35a2efcffa223a57fe82df]
link operator to target_proc_syst--><path d="M43.55,281.04 L43.641,281.0612 L42.6849,283.9411 L42.2622,286.9452 L41.6658,289.9088 L40.4983,292.7394 L40.1214,295.7542 L40.087,295.751 L39.6311,299.0012 L39.3486,302.2674 L39.1866,305.5447 L38.6093,308.7836 L38.6137,312.0763 L38.8581,312.1055 L38.7252,315.3018 L39.3057,318.5834 L39.9732,321.8754 L40.1343,325.1068 L40.5617,328.3702 L40.5891,328.3832 L41.9365,331.29 L43.4087,334.2561 L44.8207,337.1936 L46.3475,340.1856 L47.5,343 L47.6979,343.2231 L49.5474,344.8646 L51.2693,346.3622 L53.178,348.0704 L55.0955,349.7885 L56.7355,351.1938 L56.5848,350.9109 L59.6969,352.9621 L62.3128,354.0819 L65.306,355.9099 L67.9106,357.0086 L70.8338,358.705 L70.8228,358.6766 L74.5001,360.374 L77.9226,361.4073 L81.4954,362.8324 L85.0808,364.2905 L88.5752,365.5113 L88.6312,365.6876 L90.5458,366.1359 L92.5561,366.8856 L94.4115,367.1478 L96.498,368.1371 L98.4309,368.643 L98.4978,368.8772 L100.547,369.4223 L102.6294,370.0837 L104.5573,370.2048 L106.5985,370.7219 L108.74,371.59 " fill="none" style="stroke:#666666;stroke-width:1.0;"/><polygon fill="#666666" points="113.62,372.89,113.6639,372.9446,111.9989,371.5473,110.5915,370.47,109.1002,369.2885,107.3331,367.7644,105.9477,366.7145,105.9253,366.7015,106.3927,367.6217,106.973,368.6074,107.6319,369.6386,108.0202,370.5128,108.7874,371.607,108.88,371.7666,107.7035,371.9932,106.7973,372.6859,105.9242,373.4353,104.8591,373.854,103.8949,374.4467,103.8985,374.4692,105.8383,374.1248,107.7944,373.8828,109.7426,373.5914,111.7058,373.3941,113.62,372.89" style="stroke:#666666;stroke-width:1.0;"/><text fill="#666666" font-family="sans-serif" font-size="12" lengthAdjust="spacing" textLength="137" x="48.5" y="324.457">better entry UX and/or old</text><text fill="#666666" font-family="sans-serif" font-size="12" lengthAdjust="spacing" textLength="84" x="76.5" y="339.5508">Excel approach</text><!--MD5=[ca8ffed3091559c68fa4c6e2a2d9dca6]
link target_proc_syst to target_vendors--><path d="M329.93,402.92 L329.9439,403.0124 L333.7164,403.3137 L337.5707,404.1566 L341.3983,404.8231 L345.1383,404.9098 L348.9996,405.7991 L348.9937,405.7651 L352.9444,406.3002 L356.9248,407.0069 L360.9257,407.8328 L364.8556,408.2477 L368.8851,409.2384 L368.9327,409.4798 L372.9422,409.7733 L377.0905,410.7717 L381.2558,411.8561 L385.3226,412.4402 L389.4411,413.2874 L389.4477,413.317 L393.6543,414.2152 L397.8909,415.2482 L402.1129,416.2161 L406.3627,417.3081 L410.5222,417.9958 L410.5931,418.2855 L412.7324,418.8124 L414.8259,419.1525 L416.9863,419.7661 L419.15,420.3925 L421.2141,420.6128 L421.1335,420.3026 L423.4438,421.4647 L425.4884,421.6054 L427.7351,422.5227 L429.7737,422.6402 L431.9828,423.4132 L431.9747,423.3839 L434.236,424.329 L436.3079,424.5884 L438.4916,425.2524 L440.6846,425.9504 L442.81,426.4034 L442.862,426.5809 L444.983,427.0389 L447.1929,427.8002 L449.259,428.0708 L451.5396,429.0734 L453.6775,429.5894 L453.7499,429.822 L455.9142,430.4556 L458.1144,431.2047 L460.1476,431.4172 L462.3032,432.0231 L464.5672,432.9774 L464.4807,432.7152 L466.7378,433.6719 L468.8973,434.333 L471.1984,435.4228 L473.2578,435.7808 L475.4609,436.5738 L475.4105,436.4299 L477.6704,437.4317 L479.7147,437.8185 L481.9123,438.6426 L484.2599,439.8947 L486.3404,440.3847 L486.4079,440.5662 L488.6236,441.497 L490.6294,441.8633 L492.8981,442.9366 L495.1095,443.8559 L497.1875,444.4163 L497.1105,444.2209 L499.3312,445.2283 L501.5267,446.1717 L503.7717,447.2408 L505.824,447.8213 L507.984,448.6747 L508.0634,448.8644 L510.0345,449.346 L512.1589,450.1937 L514.5071,451.5761 L516.4432,451.9741 L518.7118,453.1663 L518.8037,453.373 L520.8773,454.1964 L522.9198,454.9499 L525.0324,455.8612 L527.3073,457.1373 L529.3527,457.8972 L529.2958,457.7769 L531.5722,459.1303 L533.462,459.6656 L535.7913,461.1312 L537.8732,462.073 L539.8884,462.8736 L539.9373,462.9709 L541.9803,463.938 L544.1983,465.2535 L546.2582,466.2542 L548.2521,467.1234 L550.3008,468.1018 L550.357,468.2069 L552.3278,469.1479 L554.5592,470.5771 L556.4958,471.4541 L558.5537,472.5583 L560.5718,473.5878 L560.4381,473.3528 L562.505,474.5813 L564.7329,476.093 L566.733,477.204 L568.6514,478.1714 L570.6831,479.338 L570.6089,479.2156 L572.6194,480.4589 L574.4984,481.4855 L576.7387,483.108 L578.8002,484.4356 L580.6166,485.3586 L580.7436,485.555 L582.7318,486.8774 L584.4785,487.8264 L586.4801,489.1694 L588.313,490.2516 L590.354,491.6557 L590.4258,491.7596 L592.321,493.0619 L594.3028,494.4896 L596.0099,495.5196 L597.9386,496.8704 L599.8772,498.2355 L599.9944,498.394 L601.8853,499.8121 L603.4581,500.7999 L605.4005,502.2875 L607.3493,503.7839 L609.1681,505.1044 L608.9994,504.8916 L611.0737,506.6603 L612.8554,508.0598 L614.5644,509.3677 L616.4395,510.8851 L618.2083,512.2683 L618.4182,512.515 L619.8725,513.6555 L621.8077,515.3611 L623.5535,516.8442 L625.2589,518.2798 L626.9798,519.7337 L627.0221,519.7799 L628.7108,521.3255 L630.1863,522.6383 L631.9502,524.2661 L633.6289,525.8008 L635.4644,527.5066 L635.4843,527.5268 L637.1278,529.1518 L638.7867,530.7924 L640.2811,532.2667 L641.9869,533.9546 L643.6439,535.5933 L643.6048,535.5568 L645.4024,537.4497 L646.9248,539.0854 L648.1999,540.49 L649.9051,542.2965 L651.5,544 L651.2933,543.8481 L653.5377,546.7079 L655.5867,549.4242 L657.4982,552.0394 L659.0816,554.4135 L661.172,557.1602 L661.355,557.2552 L662.4004,559.9388 L664.2937,563.0626 L665.618,565.891 L667.2956,568.9028 L668.7788,571.8138 L668.8784,571.8522 L670.1265,574.8751 L670.7842,577.6703 L672.4318,580.8473 L673.4605,583.7856 L674.5386,586.743 L674.69,586.7877 L675.6836,589.6345 L676.1935,592.3385 L677.0921,595.1573 L677.9347,597.9595 L678.67,600.73 " fill="none" style="stroke:#666666;stroke-width:1.0;"/><polygon fill="#666666" points="679.96,605.96,680.029,605.9723,680.169,603.9965,680.7133,602.0926,681.1259,600.1653,681.1056,598.161,681.6846,596.2633,681.6624,596.2499,680.9781,597.1584,680.4056,598.1343,679.9109,599.1572,679.1482,600.0183,678.7608,601.1059,678.8562,601.2639,677.6836,600.3413,676.7896,599.88,675.9296,599.4749,674.8719,598.7424,673.9181,598.1821,673.9361,598.196,675.1181,599.7311,676.3819,601.3298,677.6062,602.8977,678.9058,604.5242,679.96,605.96" style="stroke:#666666;stroke-width:1.0;"/><polygon fill="#666666" points="324.93,402.24,324.967,402.2995,326.5305,403.1618,328.3108,404.3729,330.0205,405.4705,331.4982,406.1944,333.297,407.4355,333.2764,407.4199,332.5008,406.4476,331.8294,405.5542,331.2304,404.7156,330.3819,403.6881,329.8828,402.9251,329.9942,403.0723,330.6581,402.0748,331.6472,401.5069,332.676,400.9914,333.4739,400.171,334.3932,399.5109,334.3995,399.5328,332.4976,400.0465,330.6244,400.6597,328.7374,401.225,326.8767,401.8818,324.93,402.24" style="stroke:#666666;stroke-width:1.0;"/><!--MD5=[c0c7acc93d1cef8dddb84d76aa526444]
link target_proc_syst to target_marketing_syst--><path d="M255,415.61 L255.1345,415.8559 L263.2316,419.772 L272.117,425.1294 L280.7457,430.0176 L288.5303,433.3621 L297.4336,438.7524 L305.7071,442.9911 L314.2313,447.688 L322.9297,452.7036 L331.0277,456.6212 L340.3209,462.7243 L348.0601,465.986 L356.96,471.37 " fill="none" style="stroke:#666666;stroke-width:1.0;"/><polygon fill="#666666" points="361.71,473.97,361.7657,474.0125,360.4052,472.3203,359.3712,470.8773,358.2309,469.3532,356.741,467.5622,355.7351,466.1406,355.7102,466.1333,355.9164,467.1865,356.2479,468.2763,356.6665,469.3917,356.7849,470.4192,357.3238,471.5697,357.3756,471.7469,356.179,471.6858,355.1336,472.142,354.1067,472.6612,352.9724,472.8133,351.8946,473.1585,351.8965,473.1812,353.8568,473.3102,355.8257,473.5424,357.7904,473.7248,359.763,474.0023,361.71,473.97" style="stroke:#666666;stroke-width:1.0;"/><polygon fill="#666666" points="250.4,413.09,250.4557,413.1325,251.4852,414.5721,252.8412,416.2609,254.0909,417.8685,254.9909,419.2093,256.3749,420.9194,256.3501,420.9122,255.9208,419.7937,255.6168,418.7119,255.3999,417.6556,254.8828,416.5114,254.7862,415.4903,254.838,415.6674,255.813,414.9709,256.9394,414.7915,258.0841,414.6752,259.1215,414.1918,260.2154,413.9015,260.2172,413.9242,258.2514,413.7286,256.2941,413.6362,254.3327,413.494,252.3792,413.4469,250.4,413.09" style="stroke:#666666;stroke-width:1.0;"/><!--MD5=[30e63c58437685b8db3a7487cb25588a]
link target_marketing_syst to target_vendors--><path d="M505.6,507.69 L505.6205,507.7811 L508.1475,508.0913 L510.7945,508.9357 L513.4025,509.6061 L515.882,509.7044 L518.5393,510.5947 L518.5308,510.5612 L521.1097,511.0744 L523.7314,511.7563 L526.3829,512.5556 L528.9319,512.9506 L531.6244,513.9119 L531.6921,514.1484 L534.1731,514.3939 L536.8519,515.3301 L539.5547,516.3506 L542.1172,516.8807 L544.7535,517.6688 L544.7628,517.6976 L547.3634,518.5 L550.0065,519.4338 L552.6291,520.3041 L555.2907,521.2954 L557.825,521.8925 L557.9274,522.1726 L560.511,523.1196 L563.0287,523.8859 L565.643,524.9167 L568.2618,525.9599 L570.7371,526.6103 L570.6145,526.3142 L573.3827,527.9367 L575.7471,528.5842 L578.4185,529.9729 L580.7737,530.5983 L583.3881,531.8494 L583.3752,531.8218 L585.9862,533.3051 L588.2942,534.1448 L590.781,535.3642 L593.2828,536.6155 L595.6763,537.6369 L595.764,537.7998 L598.0402,538.908 L600.4663,540.2945 L602.65,541.2307 L605.1952,542.8387 L607.5,544 L607.631,544.2055 L609.4379,545.3343 L611.31,546.5651 L612.8798,547.3219 L614.6712,548.4262 L616.6587,549.8383 L616.4924,549.6178 L618.4035,551.1453 L620.1272,552.4244 L622.1226,554.0639 L623.654,555.088 L625.4612,556.478 L625.3617,556.3625 L627.2059,558.0025 L628.6244,559.149 L630.3457,560.6464 L632.3631,562.4872 L633.8531,563.7165 L633.9874,563.856 L635.665,565.4786 L636.9247,566.6674 L638.7077,568.3995 L640.3767,570.0133 L641.78,571.3512 L641.6275,571.2069 L643.2306,572.8876 L644.7837,574.5211 L646.4349,576.2473 L647.7046,577.6126 L649.1875,579.1796 L649.3423,579.3149 L650.3689,580.5815 L651.6944,582.1092 L653.4563,584.0185 L654.4146,585.2254 L656.0213,586.9989 L656.1985,587.1394 L658.439,590.0162 L660.6194,592.8454 L662.9353,595.7819 L665.5641,598.9664 L667.75,601.8 " fill="none" style="stroke:#666666;stroke-width:1.0;"/><polygon fill="#666666" points="670.73,605.87,670.7984,605.8849,670.1749,603.9161,669.9525,602.0349,669.5995,600.1251,668.8168,598.1216,668.6289,596.2479,668.6033,596.2439,668.3169,597.3446,668.1595,598.4651,668.0919,599.5993,667.715,600.6861,667.7713,601.8393,667.7993,602.0218,666.6212,601.4602,665.5247,601.4311,664.4383,601.4671,663.2938,601.125,662.1799,600.9818,662.1911,601.0015,663.8846,601.9502,665.6294,602.9887,667.3495,603.9839,669.1169,605.0618,670.73,605.87" style="stroke:#666666;stroke-width:1.0;"/><polygon fill="#666666" points="500.57,506.66,500.6107,506.717,502.0935,507.6913,503.8148,509,505.4584,510.1998,506.8466,511.0415,508.5884,512.3789,508.5668,512.3646,507.8459,511.3567,507.234,510.4207,506.6978,509.5349,505.9006,508.4765,505.469,507.6598,505.5708,507.8138,506.297,506.8607,507.3203,506.3571,508.3799,505.9083,509.2285,505.1404,510.1881,504.5404,510.193,504.5626,508.2622,504.9539,506.3537,505.4464,504.4344,505.89,502.5356,506.4267,500.57,506.66" style="stroke:#666666;stroke-width:1.0;"/><!--MD5=[3b0c28eb0e5c2610bcd8a70d47328016]
reverse link target_proc_syst to admin--><path d="M126.56,414.97 L126.5959,415.0562 L124.1829,415.7608 L121.9805,416.9708 L119.7096,418.0162 L117.2131,418.5203 L115.0288,419.7738 L115.0139,419.7426 L112.6636,420.6948 L110.3885,421.8041 L108.1657,423.0226 L105.7628,423.8648 L103.612,425.2341 L103.731,425.4494 L101.2482,426.2202 L99.1128,427.6197 L97.0198,429.0959 L94.6801,430.1258 L92.4702,431.3904 L92.4866,431.4159 L90.3212,432.7569 L88.2306,434.214 L86.1039,435.615 L84.0459,437.123 L81.7638,438.2825 L81.944,438.5201 L79.924,440.0565 L77.7879,441.4396 L75.8218,443.0471 L73.8638,444.6651 L71.6531,445.9499 L71.4378,445.7124 L69.9847,447.8697 L67.8228,449.2452 L66.1998,451.215 L64.0217,452.5727 L62.2986,454.4322 L62.276,454.4118 L60.8556,456.5205 L58.9074,458.1524 L57.2706,460.0657 L55.66,462.0026 L53.8608,463.769 L54.0109,463.8771 L52.3872,465.8142 L51.0201,467.936 L49.2378,469.759 L48.0748,472.0276 L46.5,474 L46.7223,474.0997 L45.2007,477.3797 L43.7894,480.7091 L41.8653,483.8085 L40.3171,487.0766 L39.102,490.494 L38.8292,490.4508 L38.5189,494.0083 L37.9011,497.5172 L37.7292,501.0967 L36.7961,504.5557 L36.3155,508.0863 L36.1632,508.0778 L36.619,511.7198 L36.424,515.3257 L36.6917,518.9573 L37.4123,522.6141 L37.3265,526.226 L37.5156,526.2677 L38.4443,529.9235 L38.7847,533.4498 L39.8619,537.1384 L40.7786,540.7916 L41.3213,544.3625 L41.1231,544.293 L42.514,547.8649 L43.8399,551.414 L45.2934,555.0078 L46.2512,558.4278 L47.4858,561.9449 L47.6729,562.0303 L48.766,565.1382 L50.2202,568.411 L52.2018,571.9244 L53.2124,574.9947 L55.0064,578.4225 L55.2051,578.5306 L56.6996,581.4308 L58.1269,584.2944 L59.7059,587.2405 L61.6357,590.3775 L63.0691,593.2445 L62.9559,593.1746 L64.8511,595.9058 L65.9764,598.1616 L67.9771,600.958 L69.485,603.45 L70.86,605.86 " fill="none" style="stroke:#666666;stroke-width:1.0;"/><polygon fill="#666666" points="131.49,413.1,131.4939,413.17,129.5156,412.8523,127.5602,412.9447,125.5973,412.9036,123.6099,412.4234,121.6565,412.551,121.6458,412.5274,122.6298,412.8857,123.6673,413.3632,124.7422,413.9234,125.6886,414.1983,126.8148,414.8728,126.9831,414.9486,126.1589,415.8183,125.826,416.9091,125.553,418.027,124.9313,418.9878,124.493,420.0312,124.509,420.0474,125.8849,418.6374,127.3337,417.301,128.7473,415.9291,130.228,414.6249,131.49,413.1" style="stroke:#666666;stroke-width:1.0;"/><text fill="#666666" font-family="sans-serif" font-size="12" lengthAdjust="spacing" textLength="101" x="47.5" y="498.957">data management</text><!--MD5=[382269322d6c5eafef83e79dd44da74c]
link target_proc_syst to owner--><path d="M196.61,413.11 L196.6815,413.1702 L194.347,415.5113 L192.4314,418.2051 L190.3794,420.7841 L187.8789,422.9853 L185.9992,425.7094 L185.9713,425.6891 L183.7033,428.5461 L181.5762,431.5054 L179.5469,434.5359 L177.1803,437.3212 L175.2863,440.45 L175.4984,440.5747 L173.129,443.5667 L171.379,446.9227 L169.7046,450.3232 L167.5905,453.4652 L165.7077,456.7431 L165.7356,456.7548 L164.253,460.189 L162.8978,463.6765 L161.4811,467.1382 L160.1817,470.6489 L158.5,474 L158.7953,474.042 L158.5406,475.8591 L158.0954,477.6492 L157.929,479.4789 L157.7757,481.3105 L157.2083,483.0832 L156.8878,483.0798 L157.4809,485.8376 L157.0187,488.5843 L157.3587,491.3394 L156.8725,494.0858 L157.0636,496.8394 L157.0332,496.8381 L157.5334,500.1766 L157.323,503.4851 L157.5319,506.8112 L157.776,510.1389 L157.7661,513.4559 L157.9506,513.4689 L158.0144,516.9886 L158.3935,520.5305 L158.2624,524.0364 L158.8923,527.5961 L159.0163,531.12 L159.2589,531.1415 L159.5127,534.5173 L159.8869,537.9037 L159.7012,541.2405 L159.926,544.6137 L160.5144,548.0191 L160.2396,547.9914 L160.7776,550.8808 L161.006,553.739 L161.6835,556.6425 L161.5943,559.4685 L161.9608,562.3406 L161.8093,562.3236 L162.3694,565.0839 L162.282,567.7712 L162.655,570.5104 L163.4788,573.3004 L163.5,576 L163.6378,576.1361 L166.2695,578.7987 L168.4727,581.0381 L171.2126,583.8076 L173.8356,586.4616 L176.1861,588.8466 L176.0643,588.6756 L179.1008,590.9053 L182.0975,593.0791 L185.1725,595.3629 L187.9428,597.2189 L190.8833,599.3139 L190.9774,599.4967 L194.0047,600.76 L197.2136,602.3761 L200.6879,604.5076 L203.6736,605.6901 L207.0535,607.6383 L207.133,607.8501 L210.5068,609.0079 L213.8538,610.094 L217.2614,611.3419 L220.8093,612.9636 L224.1588,614.0563 L224.1239,613.9279 L227.7281,615.2597 L231.0953,615.7183 L234.732,617.1697 L238.2169,618.0622 L241.661,618.804 L241.6814,618.9109 L245.1372,619.4874 L248.6661,620.4468 L252.129,621.0602 L255.5642,621.5291 L259.0223,622.118 L259.0373,622.2362 L262.3515,622.4838 L265.7354,623.2805 L269.0404,623.4562 L272.3779,623.8873 L275.7047,624.2345 L275.6845,623.9649 L278.7843,624.286 L281.9084,624.9319 L284.9981,625.1183 L288.0755,625.1399 L291.17,625.39 " fill="none" style="stroke:#666666;stroke-width:1.0;"/><polygon fill="#666666" points="296.32,625.61,296.3514,625.6727,294.4967,624.6049,292.8259,623.9044,291.0952,623.0844,289.1677,621.871,287.5126,621.202,287.4935,621.1846,288.1701,621.942,288.9432,622.7875,289.7834,623.6941,290.3925,624.3899,291.3252,625.381,291.4496,625.5173,290.3478,625.9883,289.6092,626.8574,288.9149,627.7749,287.9628,628.41,287.1463,629.1936,287.1545,629.2148,288.9771,628.467,290.8374,627.8156,292.6795,627.1177,294.5563,626.5086,296.32,625.61" style="stroke:#666666;stroke-width:1.0;"/><text fill="#666666" font-family="sans-serif" font-size="12" lengthAdjust="spacing" textLength="114" x="159.5" y="498.957">analytics, accounting</text><!--MD5=[76fe5fb7c4fb0f293e574906a81a11ba]
reverse link target_marketing_syst to admin--><path d="M304.02,515.29 L304.0453,515.3799 L299.6919,516.3179 L295.487,517.783 L291.2337,519.0764 L286.8214,519.8054 L282.6292,521.3158 L282.6192,521.2827 L280.4007,521.7948 L278.2329,522.4734 L276.1002,523.2678 L273.8463,523.6631 L271.7622,524.6175 L271.8374,524.8518 L269.4989,525.0495 L267.38,525.9313 L265.2878,526.8965 L263.0398,527.3762 L260.8738,528.1112 L260.8835,528.14 L258.7011,528.8349 L256.5632,529.6606 L254.4039,530.4232 L252.2854,531.3061 L250.0336,531.7967 L250.135,532.0772 L247.9918,532.856 L245.7832,533.4539 L243.6703,534.3166 L241.562,535.1917 L239.3114,535.6736 L239.1959,535.3746 L237.3131,536.7685 L235.0502,537.1778 L233.0762,538.3356 L230.8046,538.7227 L228.777,539.7415 L228.7653,539.7133 L226.8478,540.8977 L224.6579,541.4249 L222.6287,542.3398 L220.613,543.2873 L218.5,544 L218.5768,544.1683 L215.5249,545.3568 L212.6043,546.8328 L209.4713,547.8436 L206.6551,549.5484 L203.6282,550.7918 L203.7379,551.0093 L200.7411,552.4685 L197.7987,554.0357 L194.6033,555.101 L191.5934,556.5343 L188.7478,558.2934 L188.6157,558.0509 L185.7994,559.8689 L182.8343,561.4137 L180.085,563.3549 L176.9672,564.6192 L174.0685,566.2859 L173.9921,566.154 L171.2656,568.0265 L168.2125,569.3351 L165.3918,571.0447 L162.7983,573.1468 L159.8,574.55 L159.9008,574.7153 L157.2403,576.4921 L154.2664,577.7545 L151.6851,579.6611 L149.0183,581.4274 L146.1521,582.8666 L146.0395,582.6894 L143.5658,584.4606 L141.0552,586.1738 L138.6171,588.001 L135.8972,589.385 L133.3347,591.0166 L133.4478,591.1882 L130.8438,592.3639 L128.4581,593.8709 L126.3915,595.8619 L123.7375,596.9619 L121.5574,598.7807 L121.6846,598.9678 L119.5035,600.2885 L117.2795,601.546 L115.1525,602.9463 L113.2501,604.6767 L111.03,605.94 " fill="none" style="stroke:#666666;stroke-width:1.0;"/><polygon fill="#666666" points="308.85,514.01,308.861,514.0792,306.883,513.5637,304.9697,513.4538,303.0352,513.2118,301.0316,512.5355,299.1238,512.4604,299.1108,512.438,300.0314,512.9047,301.0175,513.4843,302.0491,514.1424,302.9239,514.5299,304.0184,515.2965,304.178,515.3891,303.2694,516.1701,302.8269,517.2213,302.4413,518.3054,301.7247,519.1978,301.1823,520.1911,301.1965,520.2088,302.7091,518.9466,304.2867,517.765,305.8329,516.5445,307.439,515.3982,308.85,514.01" style="stroke:#666666;stroke-width:1.0;"/><text fill="#666666" font-family="sans-serif" font-size="12" lengthAdjust="spacing" textLength="101" x="219.5" y="564.957">data management</text><!--MD5=[5bbf71593c2623e471f8bf7d4e705cc0]
link target_marketing_syst to marketing_manager--><path d="M431.18,517.33 L431.2398,517.4017 L434.0493,519.6801 L437.2095,522.379 L440.2555,524.9409 L442.9259,527.0525 L446.1163,529.7875 L446.0911,529.7638 L448.655,532.5 L451.3457,535.3557 L454.1244,538.2942 L456.5995,540.9468 L459.5,544 L459.7017,544.1409 L461.1813,546.5742 L463.2498,549.419 L465.3901,552.3139 L467.1124,554.9168 L469.0545,557.6733 L469.081,557.6881 L470.6855,560.6135 L472.4105,563.6061 L474.0774,566.5663 L475.8553,569.5884 L477.2713,572.4087 L477.5417,572.5345 L478.9157,575.4828 L480.1153,578.3499 L481.5702,581.3358 L483.0371,584.3273 L484.1248,587.1423 L483.8272,587.0233 L485.4979,589.9878 L486.1885,592.5605 L487.6242,595.431 L488.2927,597.9948 L489.59,600.81 " fill="none" style="stroke:#666666;stroke-width:1.0;"/><polygon fill="#666666" points="491.44,605.91,491.5099,605.9148,491.437,603.9354,491.7738,601.9841,491.9773,600.0237,491.7419,598.0331,492.1139,596.0842,492.0904,596.0733,491.5076,597.0499,491.0431,598.0817,490.661,599.1517,489.9952,600.0898,489.7267,601.2127,489.8046,601.38,488.6123,600.5448,487.6475,600.1981,486.7104,599.9109,485.6119,599.277,484.5982,598.8255,484.6146,598.8413,485.9589,600.235,487.3777,601.7006,488.7606,603.1316,490.2121,604.6287,491.44,605.91" style="stroke:#666666;stroke-width:1.0;"/><polygon fill="#666666" points="426.92,514.17,426.981,514.2044,427.7665,515.8184,428.9099,517.6339,429.9367,519.3838,430.5803,520.9179,431.7543,522.7507,431.7287,522.747,431.4492,521.6107,431.2989,520.4935,431.2384,519.3894,430.8684,518.2398,430.932,517.154,430.9588,517.3366,432.0208,516.7816,433.1611,516.7598,434.3109,516.803,435.4052,516.4678,436.5287,516.3316,436.5337,516.3538,434.6046,515.8889,432.6983,515.525,430.781,515.1124,428.8846,514.7928,426.92,514.17" style="stroke:#666666;stroke-width:1.0;"/><text fill="#666666" font-family="sans-serif" font-size="12" lengthAdjust="spacing" textLength="116" x="479.5" y="557.457">analytics, campaigns</text><text fill="#666666" font-family="sans-serif" font-size="12" lengthAdjust="spacing" textLength="48" x="515" y="572.5508">planning</text><!--MD5=[dad39562c7153a8eada50e8956f866f6]
link target_marketing_syst to owner--><path d="M366.1,514.04 L366.1602,514.1115 L364.4656,515.1757 L363.1237,516.6588 L361.667,518.0056 L359.8325,518.9037 L358.5209,520.4228 L358.4966,520.3983 L356.9419,521.7196 L355.5096,523.1646 L354.1626,524.6956 L352.522,525.9302 L351.2925,527.58 L351.4826,527.7362 L349.7812,528.9776 L348.6347,530.6751 L347.556,532.4282 L346.0833,533.8575 L344.8178,535.4572 L344.8436,535.4732 L343.7422,537.1582 L342.758,538.9162 L341.7174,540.639 L340.7846,542.429 L339.5,544 L339.7773,544.1097 L338.6812,546.8899 L337.4063,549.5994 L336.3932,552.4124 L335.3923,555.2303 L334.0027,557.8944 L333.6893,557.8268 L333.6602,560.9116 L332.5993,563.7738 L332.3227,566.8053 L331.2385,569.6625 L330.8162,572.6625 L330.7859,572.6596 L330.866,575.6226 L330.2379,578.5182 L330.0276,581.4536 L329.8525,584.3922 L329.4242,587.3069 L329.6092,587.3084 L329.3996,590.0115 L329.5062,592.7172 L329.1013,595.4186 L329.4592,598.1264 L329.31,600.83 " fill="none" style="stroke:#666666;stroke-width:1.0;"/><polygon fill="#666666" points="329.52,605.87,329.5851,605.8959,330.1191,603.9885,331.0347,602.2327,331.8261,600.4276,332.2087,598.46,333.1571,596.7173,333.1381,596.6997,332.2852,597.4522,331.5284,598.2933,330.8382,599.1959,329.9182,599.8863,329.3202,600.874,329.4453,601.0096,328.3463,599.9522,327.6128,599.2908,326.9238,598.6776,325.9754,597.7834,325.1635,597.0371,325.1839,597.0471,326.0252,598.7989,326.9595,600.5966,327.8489,602.3721,328.8238,604.1898,329.52,605.87" style="stroke:#666666;stroke-width:1.0;"/><text fill="#666666" font-family="sans-serif" font-size="12" lengthAdjust="spacing" textLength="114" x="340.5" y="564.957">analytics, accounting</text><polygon fill="#DDDDDD" points="566.5,659.125,566.5,659.3352,576.75,658.7107,587,659.3183,597.25,659.5247,607.5,658.4116,617.75,659.0473,628,658.6985,638.25,658.7415,648.5,659.0568,658.75,658.4336,669,659.6786,679.25,658.4947,689.5,658.9272,699.75,659.5569,710,659.0392,720.25,659.1932,730.5,659.125,730.4959,659.1152,731.2299,659.4729,731.9447,659.7844,732.696,660.184,733.414,660.5032,734.0355,660.5895,734.2447,660.6761,734.4068,661.3291,734.7641,662.0628,735.1305,662.8004,734.985,663.3259,735.5,664.125,736.1785,664.125,735.2035,674.0938,736.0338,684.0625,735.005,694.0313,735.4315,704,736.2416,713.9688,735.4513,723.9375,735.6053,733.9063,735.8386,743.875,735.9162,753.8438,735.4961,763.8125,735.5,773.7813,735.5885,773.8179,735.0308,774.4153,735.0018,775.2317,734.7901,775.9725,734.4653,776.6664,734.0355,777.3168,734.1137,777.5056,733.2668,777.4609,732.5381,777.7017,731.8349,778.0041,731.1996,778.4702,730.5,778.7813,730.5,778.5847,720.25,779.4627,710,778.6066,699.75,778.4382,689.5,779.0095,679.25,778.1144,669,778.2621,658.75,779.4302,648.5,779.2169,638.25,779.5157,628,778.4595,617.75,779.1004,607.5,779.3717,597.25,778.3088,587,778.6854,576.75,778.9072,566.5,778.7813,566.5831,778.982,565.7924,778.4871,565.1448,778.3379,564.308,777.732,563.5852,777.4011,562.9645,777.3168,563.1196,777.381,562.4508,776.5182,562.5354,775.9675,562.1494,775.2218,561.7104,774.4542,561.5,773.7813,561.1462,773.7813,561.9588,763.8125,561.2007,753.8438,562.0919,743.875,560.9473,733.9063,562.1174,723.9375,561.9843,713.9688,561.745,704,561.5472,694.0313,562.2266,684.0625,562.1136,674.0938,561.5,664.125,561.5521,664.1466,561.8755,663.4521,562.0457,662.6942,562.5993,662.0951,562.7193,661.3163,562.9645,660.5895,562.9865,660.6426,563.594,660.1092,564.327,659.8789,565.1535,659.8742,565.8477,659.5502,566.5,659.125" style="stroke:#000000;stroke-width:1.0;"/><text fill="#000000" font-family="sans-serif" font-size="14" font-weight="bold" lengthAdjust="spacing" textLength="0" x="623.5" y="680.6582"/><text fill="#000000" font-family="sans-serif" font-size="14" font-weight="bold" lengthAdjust="spacing" textLength="33" x="627.5" y="680.6582">Type</text><polygon fill="#08427B" points="567.5,683.7344,567.5,683.9446,576.8333,683.3201,586.1667,683.9277,595.5,684.1341,604.8333,683.021,614.1667,683.6567,623.5,683.7344,623.3578,683.7344,623.3722,687.2563,623.4773,690.7781,623.2695,694.3,623.6845,697.8219,623.5,701.3438,623.5,700.7135,614.1667,701.146,604.8333,701.7757,595.5,701.258,586.1667,701.412,576.8333,701.3118,567.5,701.3438,567.5595,701.3438,567.5797,697.8219,567.6952,694.3,567.7237,690.7781,567.7264,687.2563,567.5,683.7344" style="stroke:none;stroke-width:1.0;"/><text fill="#000000" font-family="sans-serif" font-size="14" lengthAdjust="spacing" textLength="0" x="591.5" y="698.2676"/><text fill="#000000" font-family="sans-serif" font-size="14" lengthAdjust="spacing" textLength="44" x="627.5" y="698.2676">person</text><polygon fill="#686868" points="567.5,701.3438,567.5,701.5539,576.8333,700.9294,586.1667,701.537,595.5,701.7434,604.8333,700.6304,614.1667,701.266,623.5,701.3438,623.3578,701.3438,623.3722,704.8656,623.4773,708.3875,623.2695,711.9094,623.6845,715.4313,623.5,718.9531,623.5,718.3228,614.1667,718.7554,604.8333,719.3851,595.5,718.8673,586.1667,719.0214,576.8333,718.9212,567.5,718.9531,567.5595,718.9531,567.5797,715.4313,567.6952,711.9094,567.7237,708.3875,567.7264,704.8656,567.5,701.3438" style="stroke:none;stroke-width:1.0;"/><text fill="#000000" font-family="sans-serif" font-size="14" lengthAdjust="spacing" textLength="0" x="591.5" y="715.877"/><text fill="#000000" font-family="sans-serif" font-size="14" lengthAdjust="spacing" textLength="98" x="627.5" y="715.877">external person</text><polygon fill="#1168BD" points="567.5,718.9531,567.5,719.1633,576.8333,718.5388,586.1667,719.1464,595.5,719.3528,604.8333,718.2397,614.1667,718.8754,623.5,718.9531,623.3578,718.9531,623.3722,722.475,623.4773,725.9969,623.2695,729.5188,623.6845,733.0406,623.5,736.5625,623.5,735.9322,614.1667,736.3647,604.8333,736.9944,595.5,736.4767,586.1667,736.6307,576.8333,736.5306,567.5,736.5625,567.5595,736.5625,567.5797,733.0406,567.6952,729.5188,567.7237,725.9969,567.7264,722.475,567.5,718.9531" style="stroke:none;stroke-width:1.0;"/><text fill="#000000" font-family="sans-serif" font-size="14" lengthAdjust="spacing" textLength="0" x="579.5" y="733.4863"/><text fill="#000000" font-family="sans-serif" font-size="14" lengthAdjust="spacing" textLength="44" x="627.5" y="733.4863">system</text><polygon fill="#999999" points="567.5,736.5625,567.5,736.7727,576.8333,736.1482,586.1667,736.7558,595.5,736.9622,604.8333,735.8491,614.1667,736.4848,623.5,736.5625,623.3578,736.5625,623.3722,740.0844,623.4773,743.6063,623.2695,747.1281,623.6845,750.65,623.5,754.1719,623.5,753.5416,614.1667,753.9741,604.8333,754.6038,595.5,754.0861,586.1667,754.2401,576.8333,754.1399,567.5,754.1719,567.5595,754.1719,567.5797,750.65,567.6952,747.1281,567.7237,743.6063,567.7264,740.0844,567.5,736.5625" style="stroke:none;stroke-width:1.0;"/><text fill="#000000" font-family="sans-serif" font-size="14" lengthAdjust="spacing" textLength="0" x="591.5" y="751.0957"/><text fill="#000000" font-family="sans-serif" font-size="14" lengthAdjust="spacing" textLength="98" x="627.5" y="751.0957">external system</text><polygon fill="#438DD5" points="567.5,754.1719,567.5,754.3821,576.8333,753.7576,586.1667,754.3652,595.5,754.5716,604.8333,753.4585,614.1667,754.0942,623.5,754.1719,623.3578,754.1719,623.3722,757.6938,623.4773,761.2156,623.2695,764.7375,623.6845,768.2594,623.5,771.7813,623.5,771.151,614.1667,771.5835,604.8333,772.2132,595.5,771.6955,586.1667,771.8495,576.8333,771.7493,567.5,771.7813,567.5595,771.7813,567.5797,768.2594,567.6952,764.7375,567.7237,761.2156,567.7264,757.6938,567.5,754.1719" style="stroke:none;stroke-width:1.0;"/><text fill="#000000" font-family="sans-serif" font-size="14" lengthAdjust="spacing" textLength="0" x="579.5" y="768.7051"/><text fill="#000000" font-family="sans-serif" font-size="14" lengthAdjust="spacing" textLength="59" x="627.5" y="768.7051">container</text><path d="M567.5,666.125 L567.5,666.4052 L577.625,665.5726 L587.75,666.3827 L597.875,666.6579 L608,665.1738 L618.125,666.0214 L628.25,665.5563 L638.375,665.6137 L648.5,666.0341 L658.625,665.2032 L668.75,666.8632 L678.875,665.2846 L689,665.8613 L699.125,666.7009 L709.25,666.0106 L719.375,666.216 L729.5,666.125 " fill="none" style="stroke:#000000;stroke-width:1.0;"/><path d="M567.5,683.7344 L567.5,684.0146 L577.625,683.1819 L587.75,683.9921 L597.875,684.2673 L608,682.7832 L618.125,683.6308 L628.25,683.1657 L638.375,683.223 L648.5,683.6435 L658.625,682.8125 L668.75,684.4726 L678.875,682.894 L689,683.4707 L699.125,684.3103 L709.25,683.62 L719.375,683.8254 L729.5,683.7344 " fill="none" style="stroke:#000000;stroke-width:1.0;"/><path d="M567.5,701.3438 L567.5,701.624 L577.625,700.7913 L587.75,701.6015 L597.875,701.8767 L608,700.3926 L618.125,701.2401 L628.25,700.7751 L638.375,700.8324 L648.5,701.2529 L658.625,700.4219 L668.75,702.0819 L678.875,700.5034 L689,701.0801 L699.125,701.9197 L709.25,701.2294 L719.375,701.4347 L729.5,701.3438 " fill="none" style="stroke:#000000;stroke-width:1.0;"/><path d="M567.5,718.9531 L567.5,719.2334 L577.625,718.4007 L587.75,719.2108 L597.875,719.486 L608,718.0019 L618.125,718.8495 L628.25,718.3845 L638.375,718.4418 L648.5,718.8622 L658.625,718.0313 L668.75,719.6913 L678.875,718.1128 L689,718.6894 L699.125,719.5291 L709.25,718.8388 L719.375,719.0441 L729.5,718.9531 " fill="none" style="stroke:#000000;stroke-width:1.0;"/><path d="M567.5,736.5625 L567.5,736.8427 L577.625,736.0101 L587.75,736.8202 L597.875,737.0954 L608,735.6113 L618.125,736.4589 L628.25,735.9938 L638.375,736.0512 L648.5,736.4716 L658.625,735.6407 L668.75,737.3007 L678.875,735.7221 L689,736.2988 L699.125,737.1384 L709.25,736.4481 L719.375,736.6535 L729.5,736.5625 " fill="none" style="stroke:#000000;stroke-width:1.0;"/><path d="M567.5,754.1719 L567.5,754.4521 L577.625,753.6194 L587.75,754.4296 L597.875,754.7048 L608,753.2207 L618.125,754.0683 L628.25,753.6032 L638.375,753.6605 L648.5,754.081 L658.625,753.25 L668.75,754.9101 L678.875,753.3315 L689,753.9082 L699.125,754.7478 L709.25,754.0575 L719.375,754.2629 L729.5,754.1719 " fill="none" style="stroke:#000000;stroke-width:1.0;"/><path d="M567.5,771.7813 L567.5,772.0615 L577.625,771.2288 L587.75,772.039 L597.875,772.3142 L608,770.8301 L618.125,771.6776 L628.25,771.2126 L638.375,771.2699 L648.5,771.6904 L658.625,770.8594 L668.75,772.5194 L678.875,770.9409 L689,771.5176 L699.125,772.3572 L709.25,771.6669 L719.375,771.8722 L729.5,771.7813 " fill="none" style="stroke:#000000;stroke-width:1.0;"/><path d="M567.5,666.125 L567.7802,666.125 L566.9476,675.7301 L567.7577,685.3352 L568.0329,694.9403 L566.5488,704.5455 L567.3964,714.1506 L566.9313,723.7557 L566.9887,733.3608 L567.4091,742.9659 L566.5782,752.571 L568.2382,762.1761 L567.5,771.7813 " fill="none" style="stroke:#000000;stroke-width:1.0;"/><path d="M623.5,666.125 L623.7802,666.125 L622.9476,675.7301 L623.7577,685.3352 L624.0329,694.9403 L622.5488,704.5455 L623.3964,714.1506 L622.9313,723.7557 L622.9887,733.3608 L623.4091,742.9659 L622.5782,752.571 L624.2382,762.1761 L623.5,771.7813 " fill="none" style="stroke:#000000;stroke-width:1.0;"/><path d="M729.5,666.125 L729.7802,666.125 L728.9476,675.7301 L729.7577,685.3352 L730.0329,694.9403 L728.5488,704.5455 L729.3964,714.1506 L728.9313,723.7557 L728.9887,733.3608 L729.4091,742.9659 L728.5782,752.571 L730.2382,762.1761 L729.5,771.7813 " fill="none" style="stroke:#000000;stroke-width:1.0;"/><!--MD5=[55eefea3f65125b567e26f368b5283b1]
@startuml context
skinparam handwritten true
!includeurl https://raw.githubusercontent.com/RicardoNiepel/C4-PlantUML/release/1-0/C4_Container.puml
LAYOUT_TOP_DOWN
LAYOUT_WITH_LEGEND()
Person(operator, "Operator")
' Person(phone_operator, "Phone operator")
' Person(xls_operator, "Excel operator")
' Person(receptionist, "Receptionist")
' Person(manager, "On-site Manager")
Person(admin, "IT Support")
Person(marketing_manager, "Marketing Manager")
Person(owner, "Owner")
Person_Ext(client, "Client")

System_Ext(voip, "VoIP vendor")
System(target_proc_syst, "Target processing system")
System(target_marketing_syst, "Target marketing system")
System_Ext(target_vendors, "Target vendors")

client - -> voip: phone call
voip ..> operator
client - -> operator: personal visit
voip ..>  target_proc_syst
client - -> target_proc_syst: web-site/mobile app
operator - -> target_proc_syst: better entry UX and/or old Excel approach
target_proc_syst <- -> target_vendors
target_proc_syst <- -> target_marketing_syst
target_marketing_syst <- -> target_vendors
target_proc_syst <- - admin: data management
target_proc_syst - -> owner: analytics, accounting
target_marketing_syst <- - admin: data management
target_marketing_syst <- -> marketing_manager: analytics, campaigns planning
target_marketing_syst - -> owner: analytics, accounting

@enduml

@startuml context
skinparam handwritten true





skinparam defaultTextAlignment center

skinparam wrapWidth 200
skinparam maxMessageSize 150

skinparam rectangle {
    StereotypeFontSize 12
    shadowing false
}

skinparam database {
    StereotypeFontSize 12
    shadowing false
}

skinparam Arrow {
    Color #666666
    FontColor #666666
    FontSize 12
}

skinparam rectangle<<boundary>> {
    Shadowing false
    StereotypeFontSize 0
    FontColor #444444
    BorderColor #444444
    BorderStyle dashed
}






















skinparam rectangle<<person>> {
    StereotypeFontColor #FFFFFF
    FontColor #FFFFFF
    BackgroundColor #08427B
    BorderColor #073B6F
}

skinparam rectangle<<external_person>> {
    StereotypeFontColor #FFFFFF
    FontColor #FFFFFF
    BackgroundColor #686868
    BorderColor #8A8A8A
}

skinparam rectangle<<system>> {
    StereotypeFontColor #FFFFFF
    FontColor #FFFFFF
    BackgroundColor #1168BD
    BorderColor #3C7FC0
}

skinparam rectangle<<external_system>> {
    StereotypeFontColor #FFFFFF
    FontColor #FFFFFF
    BackgroundColor #999999
    BorderColor #8A8A8A
}

skinparam database<<system>> {
    StereotypeFontColor #FFFFFF
    FontColor #FFFFFF
    BackgroundColor #1168BD
    BorderColor #3C7FC0
}

skinparam database<<external_system>> {
    StereotypeFontColor #FFFFFF
    FontColor #FFFFFF
    BackgroundColor #999999
    BorderColor #8A8A8A
}
















skinparam rectangle<<container>> {
    StereotypeFontColor #FFFFFF
    FontColor #FFFFFF
    BackgroundColor #438DD5
    BorderColor #3C7FC0
}

skinparam database<<container>> {
    StereotypeFontColor #FFFFFF
    FontColor #FFFFFF
    BackgroundColor #438DD5
    BorderColor #3C7FC0
}







top to bottom direction
hide stereotype
legend right
|=              |= Type |
|<#08427B>      | person |
|<#686868>      | external person |
|<#1168BD>   | system |
|<#999999>      | external system |
|<#438DD5>   | container |
endlegend
rectangle "==Operator" <<person>> as operator
rectangle "==IT Support" <<person>> as admin
rectangle "==Marketing Manager" <<person>> as marketing_manager
rectangle "==Owner" <<person>> as owner
rectangle "==Client" <<external_person>> as client

rectangle "==VoIP vendor" <<external_system>> as voip
rectangle "==Target processing system" <<system>> as target_proc_syst
rectangle "==Target marketing system" <<system>> as target_marketing_syst
rectangle "==Target vendors" <<external_system>> as target_vendors

client - -> voip: phone call
voip ..> operator
client - -> operator: personal visit
voip ..>  target_proc_syst
client - -> target_proc_syst: web-site/mobile app
operator - -> target_proc_syst: better entry UX and/or old Excel approach
target_proc_syst <- -> target_vendors
target_proc_syst <- -> target_marketing_syst
target_marketing_syst <- -> target_vendors
target_proc_syst <- - admin: data management
target_proc_syst - -> owner: analytics, accounting
target_marketing_syst <- - admin: data management
target_marketing_syst <- -> marketing_manager: analytics, campaigns planning
target_marketing_syst - -> owner: analytics, accounting

@enduml

PlantUML version 1.2021.00(Sun Jan 10 12:25:05 EET 2021)
(GPL source distribution)
Java Runtime: Java(TM) SE Runtime Environment
JVM: Java HotSpot(TM) Client VM
Default Encoding: Cp1251
Language: en
Country: US
--></g></svg>